G04 #@! TF.GenerationSoftware,KiCad,Pcbnew,(5.1.7)-1*
G04 #@! TF.CreationDate,2020-12-21T12:07:40-05:00*
G04 #@! TF.ProjectId,Fan Controller v3.0,46616e20-436f-46e7-9472-6f6c6c657220,A*
G04 #@! TF.SameCoordinates,Original*
G04 #@! TF.FileFunction,Copper,L2,Bot*
G04 #@! TF.FilePolarity,Positive*
%FSLAX46Y46*%
G04 Gerber Fmt 4.6, Leading zero omitted, Abs format (unit mm)*
G04 Created by KiCad (PCBNEW (5.1.7)-1) date 2020-12-21 12:07:40*
%MOMM*%
%LPD*%
G01*
G04 APERTURE LIST*
G04 #@! TA.AperFunction,ComponentPad*
%ADD10C,7.000000*%
G04 #@! TD*
G04 #@! TA.AperFunction,ComponentPad*
%ADD11R,1.500000X1.050000*%
G04 #@! TD*
G04 #@! TA.AperFunction,ComponentPad*
%ADD12O,1.500000X1.050000*%
G04 #@! TD*
G04 #@! TA.AperFunction,ComponentPad*
%ADD13R,1.800000X1.800000*%
G04 #@! TD*
G04 #@! TA.AperFunction,ComponentPad*
%ADD14C,1.800000*%
G04 #@! TD*
G04 #@! TA.AperFunction,ComponentPad*
%ADD15O,4.000000X4.000000*%
G04 #@! TD*
G04 #@! TA.AperFunction,ComponentPad*
%ADD16O,2.500000X2.500000*%
G04 #@! TD*
G04 #@! TA.AperFunction,ComponentPad*
%ADD17R,2.500000X2.500000*%
G04 #@! TD*
G04 #@! TA.AperFunction,ComponentPad*
%ADD18O,1.700000X1.700000*%
G04 #@! TD*
G04 #@! TA.AperFunction,ComponentPad*
%ADD19R,1.700000X1.700000*%
G04 #@! TD*
G04 #@! TA.AperFunction,ComponentPad*
%ADD20C,2.700000*%
G04 #@! TD*
G04 #@! TA.AperFunction,ViaPad*
%ADD21C,0.600000*%
G04 #@! TD*
G04 #@! TA.AperFunction,Conductor*
%ADD22C,0.400000*%
G04 #@! TD*
G04 #@! TA.AperFunction,Conductor*
%ADD23C,0.600000*%
G04 #@! TD*
G04 #@! TA.AperFunction,Conductor*
%ADD24C,0.200000*%
G04 #@! TD*
G04 #@! TA.AperFunction,Conductor*
%ADD25C,0.127000*%
G04 #@! TD*
G04 #@! TA.AperFunction,Conductor*
%ADD26C,0.254000*%
G04 #@! TD*
G04 #@! TA.AperFunction,Conductor*
%ADD27C,0.152400*%
G04 #@! TD*
G04 APERTURE END LIST*
D10*
G04 #@! TO.P,REF\u002A\u002A,1*
G04 #@! TO.N,N/C*
X144399000Y-43561000D03*
G04 #@! TD*
G04 #@! TO.P,REF\u002A\u002A,1*
G04 #@! TO.N,N/C*
X199136000Y-73533000D03*
G04 #@! TD*
G04 #@! TO.P,REF\u002A\u002A,1*
G04 #@! TO.N,N/C*
X199136000Y-43561000D03*
G04 #@! TD*
G04 #@! TO.P,REF\u002A\u002A,1*
G04 #@! TO.N,N/C*
X144399000Y-73533000D03*
G04 #@! TD*
D11*
G04 #@! TO.P,U1,1*
G04 #@! TO.N,+3V3*
X165735000Y-54991000D03*
D12*
G04 #@! TO.P,U1,3*
G04 #@! TO.N,+12V*
X165735000Y-52451000D03*
G04 #@! TO.P,U1,2*
G04 #@! TO.N,FAN_GND*
X165735000Y-53721000D03*
G04 #@! TD*
D13*
G04 #@! TO.P,RV1,1*
G04 #@! TO.N,FAN_GND*
X159766000Y-64262000D03*
D14*
G04 #@! TO.P,RV1,2*
G04 #@! TO.N,POT_WIPER*
X157266000Y-64262000D03*
G04 #@! TO.P,RV1,3*
G04 #@! TO.N,+3V3*
X154766000Y-64262000D03*
D15*
G04 #@! TO.P,RV1,*
G04 #@! TO.N,*
X162016000Y-71762000D03*
X152516000Y-71762000D03*
G04 #@! TD*
D16*
G04 #@! TO.P,K1,5*
G04 #@! TO.N,+12V*
X184245000Y-52674000D03*
G04 #@! TO.P,K1,4*
X196445000Y-52674000D03*
G04 #@! TO.P,K1,3*
G04 #@! TO.N,N/C*
X196445000Y-64674000D03*
G04 #@! TO.P,K1,2*
G04 #@! TO.N,Net-(D1-Pad2)*
X184245000Y-64674000D03*
D17*
G04 #@! TO.P,K1,1*
G04 #@! TO.N,FAN_12P*
X182245000Y-58674000D03*
G04 #@! TD*
D18*
G04 #@! TO.P,JP4,3*
G04 #@! TO.N,FAN_GND*
X183134000Y-71501000D03*
G04 #@! TO.P,JP4,2*
G04 #@! TO.N,TIMER_RUNNING_N*
X183134000Y-74041000D03*
D19*
G04 #@! TO.P,JP4,1*
G04 #@! TO.N,Net-(JP4-Pad1)*
X183134000Y-76581000D03*
G04 #@! TD*
D18*
G04 #@! TO.P,JP3,2*
G04 #@! TO.N,Net-(JP3-Pad2)*
X187960000Y-74041000D03*
D19*
G04 #@! TO.P,JP3,1*
G04 #@! TO.N,Net-(JP1-Pad1)*
X187960000Y-71501000D03*
G04 #@! TD*
D18*
G04 #@! TO.P,JP2,2*
G04 #@! TO.N,Net-(JP2-Pad2)*
X190500000Y-74041000D03*
D19*
G04 #@! TO.P,JP2,1*
G04 #@! TO.N,Net-(JP1-Pad1)*
X190500000Y-71501000D03*
G04 #@! TD*
D18*
G04 #@! TO.P,JP1,2*
G04 #@! TO.N,Net-(JP1-Pad2)*
X193040000Y-74041000D03*
D19*
G04 #@! TO.P,JP1,1*
G04 #@! TO.N,Net-(JP1-Pad1)*
X193040000Y-71501000D03*
G04 #@! TD*
D20*
G04 #@! TO.P,J3,6*
G04 #@! TO.N,Net-(J3-Pad6)*
X191631000Y-43180000D03*
G04 #@! TO.P,J3,5*
G04 #@! TO.N,FAN_GND*
X187671000Y-43180000D03*
G04 #@! TO.P,J3,4*
G04 #@! TO.N,Net-(J3-Pad4)*
X183711000Y-43180000D03*
G04 #@! TO.P,J3,3*
G04 #@! TO.N,FAN_PWM*
X179751000Y-43180000D03*
G04 #@! TO.P,J3,2*
G04 #@! TO.N,FAN_GND*
X175791000Y-43180000D03*
G04 #@! TO.P,J3,1*
G04 #@! TO.N,FAN_12P*
G04 #@! TA.AperFunction,ComponentPad*
G36*
G01*
X170481000Y-44279999D02*
X170481000Y-42080001D01*
G75*
G02*
X170731001Y-41830000I250001J0D01*
G01*
X172930999Y-41830000D01*
G75*
G02*
X173181000Y-42080001I0J-250001D01*
G01*
X173181000Y-44279999D01*
G75*
G02*
X172930999Y-44530000I-250001J0D01*
G01*
X170731001Y-44530000D01*
G75*
G02*
X170481000Y-44279999I0J250001D01*
G01*
G37*
G04 #@! TD.AperFunction*
G04 #@! TD*
G04 #@! TO.P,J2,3*
G04 #@! TO.N,FAN_GND*
X145542000Y-57104000D03*
G04 #@! TO.P,J2,2*
G04 #@! TO.N,POT_WIPER*
X145542000Y-61064000D03*
G04 #@! TO.P,J2,1*
G04 #@! TO.N,+3V3*
G04 #@! TA.AperFunction,ComponentPad*
G36*
G01*
X146641999Y-66374000D02*
X144442001Y-66374000D01*
G75*
G02*
X144192000Y-66123999I0J250001D01*
G01*
X144192000Y-63924001D01*
G75*
G02*
X144442001Y-63674000I250001J0D01*
G01*
X146641999Y-63674000D01*
G75*
G02*
X146892000Y-63924001I0J-250001D01*
G01*
X146892000Y-66123999D01*
G75*
G02*
X146641999Y-66374000I-250001J0D01*
G01*
G37*
G04 #@! TD.AperFunction*
G04 #@! TD*
G04 #@! TO.P,J1,2*
G04 #@! TO.N,FAN_GND*
X165504000Y-43180000D03*
G04 #@! TO.P,J1,1*
G04 #@! TO.N,Net-(F1-Pad2)*
G04 #@! TA.AperFunction,ComponentPad*
G36*
G01*
X160194000Y-44279999D02*
X160194000Y-42080001D01*
G75*
G02*
X160444001Y-41830000I250001J0D01*
G01*
X162643999Y-41830000D01*
G75*
G02*
X162894000Y-42080001I0J-250001D01*
G01*
X162894000Y-44279999D01*
G75*
G02*
X162643999Y-44530000I-250001J0D01*
G01*
X160444001Y-44530000D01*
G75*
G02*
X160194000Y-44279999I0J250001D01*
G01*
G37*
G04 #@! TD.AperFunction*
G04 #@! TD*
D21*
G04 #@! TO.N,FAN_GND*
X176276000Y-68453000D03*
G04 #@! TO.N,+3V3*
X176276000Y-70358000D03*
X168021000Y-67818000D03*
X168275000Y-61595000D03*
X176784000Y-60833000D03*
X148971000Y-52070000D03*
G04 #@! TO.N,FAN_PWM*
X152273000Y-48895000D03*
G04 #@! TO.N,Net-(JP1-Pad1)*
X178308000Y-74168000D03*
G04 #@! TO.N,TIMER_RUNNING_N*
X173863000Y-60833000D03*
G04 #@! TD*
D22*
G04 #@! TO.N,FAN_GND*
X172085000Y-64262000D02*
X176276000Y-68453000D01*
X159766000Y-64262000D02*
X172085000Y-64262000D01*
D23*
G04 #@! TO.N,+12V*
X165958000Y-52674000D02*
X165735000Y-52451000D01*
X184245000Y-52674000D02*
X165958000Y-52674000D01*
X184245000Y-52674000D02*
X196445000Y-52674000D01*
D24*
G04 #@! TO.N,FAN_PWM*
X174036000Y-48895000D02*
X179751000Y-43180000D01*
X152273000Y-48895000D02*
X174036000Y-48895000D01*
D25*
G04 #@! TO.N,Net-(JP1-Pad1)*
X179221501Y-75081501D02*
X184379499Y-75081501D01*
X184379499Y-75081501D02*
X187960000Y-71501000D01*
X178308000Y-74168000D02*
X179221501Y-75081501D01*
G04 #@! TO.N,TIMER_RUNNING_N*
X173863000Y-64770000D02*
X183134000Y-74041000D01*
X173863000Y-60833000D02*
X173863000Y-64770000D01*
G04 #@! TD*
D26*
G04 #@! TO.N,+3V3*
X200637380Y-38817231D02*
X201226446Y-38995080D01*
X201769740Y-39283954D01*
X202246580Y-39672855D01*
X202638801Y-40146968D01*
X202931462Y-40688234D01*
X203113419Y-41276040D01*
X203180950Y-41918562D01*
X203180950Y-42701027D01*
X203112094Y-42354865D01*
X202800389Y-41602343D01*
X202347864Y-40925091D01*
X201771909Y-40349136D01*
X201094657Y-39896611D01*
X200342135Y-39584906D01*
X199543262Y-39426000D01*
X198728738Y-39426000D01*
X197929865Y-39584906D01*
X197177343Y-39896611D01*
X196500091Y-40349136D01*
X195924136Y-40925091D01*
X195471611Y-41602343D01*
X195159906Y-42354865D01*
X195001000Y-43153738D01*
X195001000Y-43968262D01*
X195159906Y-44767135D01*
X195471611Y-45519657D01*
X195924136Y-46196909D01*
X196500091Y-46772864D01*
X197177343Y-47225389D01*
X197929865Y-47537094D01*
X198728738Y-47696000D01*
X199543262Y-47696000D01*
X200342135Y-47537094D01*
X201094657Y-47225389D01*
X201771909Y-46772864D01*
X202347864Y-46196909D01*
X202800389Y-45519657D01*
X203112094Y-44767135D01*
X203180950Y-44420973D01*
X203180951Y-72673032D01*
X203112094Y-72326865D01*
X202800389Y-71574343D01*
X202347864Y-70897091D01*
X201771909Y-70321136D01*
X201094657Y-69868611D01*
X200342135Y-69556906D01*
X199543262Y-69398000D01*
X198728738Y-69398000D01*
X197929865Y-69556906D01*
X197177343Y-69868611D01*
X196500091Y-70321136D01*
X195924136Y-70897091D01*
X195471611Y-71574343D01*
X195159906Y-72326865D01*
X195001000Y-73125738D01*
X195001000Y-73940262D01*
X195159906Y-74739135D01*
X195471611Y-75491657D01*
X195924136Y-76168909D01*
X196500091Y-76744864D01*
X197177343Y-77197389D01*
X197929865Y-77509094D01*
X198728738Y-77668000D01*
X199543262Y-77668000D01*
X200342135Y-77509094D01*
X201094657Y-77197389D01*
X201771909Y-76744864D01*
X202347864Y-76168909D01*
X202800389Y-75491657D01*
X203112094Y-74739135D01*
X203180951Y-74392968D01*
X203180951Y-74898006D01*
X203117769Y-75542380D01*
X202939920Y-76131445D01*
X202651046Y-76674741D01*
X202262145Y-77151580D01*
X201788033Y-77543799D01*
X201246765Y-77836462D01*
X200658960Y-78018419D01*
X200016438Y-78085950D01*
X143541983Y-78085950D01*
X142897620Y-78022769D01*
X142308555Y-77844920D01*
X141765259Y-77556046D01*
X141288420Y-77167145D01*
X140896201Y-76693033D01*
X140603538Y-76151765D01*
X140421581Y-75563960D01*
X140354050Y-74921438D01*
X140354050Y-74392973D01*
X140422906Y-74739135D01*
X140734611Y-75491657D01*
X141187136Y-76168909D01*
X141763091Y-76744864D01*
X142440343Y-77197389D01*
X143192865Y-77509094D01*
X143991738Y-77668000D01*
X144806262Y-77668000D01*
X145605135Y-77509094D01*
X146357657Y-77197389D01*
X147034909Y-76744864D01*
X147610864Y-76168909D01*
X148063389Y-75491657D01*
X148375094Y-74739135D01*
X148534000Y-73940262D01*
X148534000Y-73125738D01*
X148375094Y-72326865D01*
X148063389Y-71574343D01*
X148015369Y-71502475D01*
X149881000Y-71502475D01*
X149881000Y-72021525D01*
X149982261Y-72530601D01*
X150180893Y-73010141D01*
X150469262Y-73441715D01*
X150836285Y-73808738D01*
X151267859Y-74097107D01*
X151747399Y-74295739D01*
X152256475Y-74397000D01*
X152775525Y-74397000D01*
X153284601Y-74295739D01*
X153764141Y-74097107D01*
X154195715Y-73808738D01*
X154562738Y-73441715D01*
X154851107Y-73010141D01*
X155049739Y-72530601D01*
X155151000Y-72021525D01*
X155151000Y-71502475D01*
X159381000Y-71502475D01*
X159381000Y-72021525D01*
X159482261Y-72530601D01*
X159680893Y-73010141D01*
X159969262Y-73441715D01*
X160336285Y-73808738D01*
X160767859Y-74097107D01*
X161247399Y-74295739D01*
X161756475Y-74397000D01*
X162275525Y-74397000D01*
X162784601Y-74295739D01*
X163264141Y-74097107D01*
X163695715Y-73808738D01*
X164062738Y-73441715D01*
X164351107Y-73010141D01*
X164549739Y-72530601D01*
X164651000Y-72021525D01*
X164651000Y-71502475D01*
X164549739Y-70993399D01*
X164351107Y-70513859D01*
X164062738Y-70082285D01*
X163695715Y-69715262D01*
X163264141Y-69426893D01*
X162784601Y-69228261D01*
X162275525Y-69127000D01*
X161756475Y-69127000D01*
X161247399Y-69228261D01*
X160767859Y-69426893D01*
X160336285Y-69715262D01*
X159969262Y-70082285D01*
X159680893Y-70513859D01*
X159482261Y-70993399D01*
X159381000Y-71502475D01*
X155151000Y-71502475D01*
X155049739Y-70993399D01*
X154851107Y-70513859D01*
X154562738Y-70082285D01*
X154195715Y-69715262D01*
X153764141Y-69426893D01*
X153284601Y-69228261D01*
X152775525Y-69127000D01*
X152256475Y-69127000D01*
X151747399Y-69228261D01*
X151267859Y-69426893D01*
X150836285Y-69715262D01*
X150469262Y-70082285D01*
X150180893Y-70513859D01*
X149982261Y-70993399D01*
X149881000Y-71502475D01*
X148015369Y-71502475D01*
X147610864Y-70897091D01*
X147034909Y-70321136D01*
X146357657Y-69868611D01*
X145605135Y-69556906D01*
X144806262Y-69398000D01*
X143991738Y-69398000D01*
X143192865Y-69556906D01*
X142440343Y-69868611D01*
X141763091Y-70321136D01*
X141187136Y-70897091D01*
X140734611Y-71574343D01*
X140422906Y-72326865D01*
X140354050Y-72673027D01*
X140354050Y-66374000D01*
X143553928Y-66374000D01*
X143566188Y-66498482D01*
X143602498Y-66618180D01*
X143661463Y-66728494D01*
X143740815Y-66825185D01*
X143837506Y-66904537D01*
X143947820Y-66963502D01*
X144067518Y-66999812D01*
X144192000Y-67012072D01*
X145256250Y-67009000D01*
X145415000Y-66850250D01*
X145415000Y-65151000D01*
X145669000Y-65151000D01*
X145669000Y-66850250D01*
X145827750Y-67009000D01*
X146892000Y-67012072D01*
X147016482Y-66999812D01*
X147136180Y-66963502D01*
X147246494Y-66904537D01*
X147343185Y-66825185D01*
X147422537Y-66728494D01*
X147481502Y-66618180D01*
X147517812Y-66498482D01*
X147530072Y-66374000D01*
X147527048Y-65326080D01*
X153881525Y-65326080D01*
X153965208Y-65580261D01*
X154237775Y-65711158D01*
X154530642Y-65786365D01*
X154832553Y-65802991D01*
X155131907Y-65760397D01*
X155417199Y-65660222D01*
X155566792Y-65580261D01*
X155650475Y-65326080D01*
X154766000Y-64441605D01*
X153881525Y-65326080D01*
X147527048Y-65326080D01*
X147527000Y-65309750D01*
X147368250Y-65151000D01*
X145669000Y-65151000D01*
X145415000Y-65151000D01*
X143715750Y-65151000D01*
X143557000Y-65309750D01*
X143553928Y-66374000D01*
X140354050Y-66374000D01*
X140354050Y-63674000D01*
X143553928Y-63674000D01*
X143557000Y-64738250D01*
X143715750Y-64897000D01*
X145415000Y-64897000D01*
X145415000Y-64877000D01*
X145669000Y-64877000D01*
X145669000Y-64897000D01*
X147368250Y-64897000D01*
X147527000Y-64738250D01*
X147528182Y-64328553D01*
X153225009Y-64328553D01*
X153267603Y-64627907D01*
X153367778Y-64913199D01*
X153447739Y-65062792D01*
X153701920Y-65146475D01*
X154586395Y-64262000D01*
X154945605Y-64262000D01*
X155830080Y-65146475D01*
X155978262Y-65097690D01*
X156073688Y-65240505D01*
X156287495Y-65454312D01*
X156538905Y-65622299D01*
X156818257Y-65738011D01*
X157114816Y-65797000D01*
X157417184Y-65797000D01*
X157713743Y-65738011D01*
X157993095Y-65622299D01*
X158244505Y-65454312D01*
X158282120Y-65416697D01*
X158335463Y-65516494D01*
X158414815Y-65613185D01*
X158511506Y-65692537D01*
X158621820Y-65751502D01*
X158741518Y-65787812D01*
X158866000Y-65800072D01*
X160666000Y-65800072D01*
X160790482Y-65787812D01*
X160910180Y-65751502D01*
X161020494Y-65692537D01*
X161117185Y-65613185D01*
X161196537Y-65516494D01*
X161255502Y-65406180D01*
X161291812Y-65286482D01*
X161304072Y-65162000D01*
X161304072Y-65097000D01*
X171739133Y-65097000D01*
X175383346Y-68741214D01*
X175447414Y-68895889D01*
X175549738Y-69049028D01*
X175679972Y-69179262D01*
X175833111Y-69281586D01*
X176003271Y-69352068D01*
X176183911Y-69388000D01*
X176368089Y-69388000D01*
X176548729Y-69352068D01*
X176718889Y-69281586D01*
X176872028Y-69179262D01*
X177002262Y-69049028D01*
X177063120Y-68957947D01*
X181708102Y-73602930D01*
X181706068Y-73607842D01*
X181649000Y-73894740D01*
X181649000Y-74187260D01*
X181687936Y-74383001D01*
X179510829Y-74383001D01*
X179243000Y-74115173D01*
X179243000Y-74075911D01*
X179207068Y-73895271D01*
X179136586Y-73725111D01*
X179034262Y-73571972D01*
X178904028Y-73441738D01*
X178750889Y-73339414D01*
X178580729Y-73268932D01*
X178400089Y-73233000D01*
X178215911Y-73233000D01*
X178035271Y-73268932D01*
X177865111Y-73339414D01*
X177711972Y-73441738D01*
X177581738Y-73571972D01*
X177479414Y-73725111D01*
X177408932Y-73895271D01*
X177373000Y-74075911D01*
X177373000Y-74260089D01*
X177408932Y-74440729D01*
X177479414Y-74610889D01*
X177581738Y-74764028D01*
X177711972Y-74894262D01*
X177865111Y-74996586D01*
X178035271Y-75067068D01*
X178215911Y-75103000D01*
X178255173Y-75103000D01*
X178703330Y-75551158D01*
X178725198Y-75577804D01*
X178751844Y-75599672D01*
X178751847Y-75599675D01*
X178831558Y-75665092D01*
X178952904Y-75729953D01*
X179084571Y-75769894D01*
X179187192Y-75780001D01*
X179187203Y-75780001D01*
X179221501Y-75783379D01*
X179255799Y-75780001D01*
X181645928Y-75780001D01*
X181645928Y-77431000D01*
X181658188Y-77555482D01*
X181694498Y-77675180D01*
X181753463Y-77785494D01*
X181832815Y-77882185D01*
X181929506Y-77961537D01*
X182039820Y-78020502D01*
X182159518Y-78056812D01*
X182284000Y-78069072D01*
X183984000Y-78069072D01*
X184108482Y-78056812D01*
X184228180Y-78020502D01*
X184338494Y-77961537D01*
X184435185Y-77882185D01*
X184514537Y-77785494D01*
X184573502Y-77675180D01*
X184609812Y-77555482D01*
X184622072Y-77431000D01*
X184622072Y-75737847D01*
X184648096Y-75729953D01*
X184769442Y-75665092D01*
X184875802Y-75577804D01*
X184897674Y-75551153D01*
X186475000Y-73973828D01*
X186475000Y-74187260D01*
X186532068Y-74474158D01*
X186644010Y-74744411D01*
X186806525Y-74987632D01*
X187013368Y-75194475D01*
X187256589Y-75356990D01*
X187526842Y-75468932D01*
X187813740Y-75526000D01*
X188106260Y-75526000D01*
X188393158Y-75468932D01*
X188663411Y-75356990D01*
X188906632Y-75194475D01*
X189113475Y-74987632D01*
X189230000Y-74813240D01*
X189346525Y-74987632D01*
X189553368Y-75194475D01*
X189796589Y-75356990D01*
X190066842Y-75468932D01*
X190353740Y-75526000D01*
X190646260Y-75526000D01*
X190933158Y-75468932D01*
X191203411Y-75356990D01*
X191446632Y-75194475D01*
X191653475Y-74987632D01*
X191770000Y-74813240D01*
X191886525Y-74987632D01*
X192093368Y-75194475D01*
X192336589Y-75356990D01*
X192606842Y-75468932D01*
X192893740Y-75526000D01*
X193186260Y-75526000D01*
X193473158Y-75468932D01*
X193743411Y-75356990D01*
X193986632Y-75194475D01*
X194193475Y-74987632D01*
X194355990Y-74744411D01*
X194467932Y-74474158D01*
X194525000Y-74187260D01*
X194525000Y-73894740D01*
X194467932Y-73607842D01*
X194355990Y-73337589D01*
X194193475Y-73094368D01*
X194061620Y-72962513D01*
X194134180Y-72940502D01*
X194244494Y-72881537D01*
X194341185Y-72802185D01*
X194420537Y-72705494D01*
X194479502Y-72595180D01*
X194515812Y-72475482D01*
X194528072Y-72351000D01*
X194528072Y-70651000D01*
X194515812Y-70526518D01*
X194479502Y-70406820D01*
X194420537Y-70296506D01*
X194341185Y-70199815D01*
X194244494Y-70120463D01*
X194134180Y-70061498D01*
X194014482Y-70025188D01*
X193890000Y-70012928D01*
X192190000Y-70012928D01*
X192065518Y-70025188D01*
X191945820Y-70061498D01*
X191835506Y-70120463D01*
X191770000Y-70174222D01*
X191704494Y-70120463D01*
X191594180Y-70061498D01*
X191474482Y-70025188D01*
X191350000Y-70012928D01*
X189650000Y-70012928D01*
X189525518Y-70025188D01*
X189405820Y-70061498D01*
X189295506Y-70120463D01*
X189230000Y-70174222D01*
X189164494Y-70120463D01*
X189054180Y-70061498D01*
X188934482Y-70025188D01*
X188810000Y-70012928D01*
X187110000Y-70012928D01*
X186985518Y-70025188D01*
X186865820Y-70061498D01*
X186755506Y-70120463D01*
X186658815Y-70199815D01*
X186579463Y-70296506D01*
X186520498Y-70406820D01*
X186484188Y-70526518D01*
X186471928Y-70651000D01*
X186471928Y-72001244D01*
X184612269Y-73860903D01*
X184561932Y-73607842D01*
X184449990Y-73337589D01*
X184287475Y-73094368D01*
X184080632Y-72887525D01*
X183906240Y-72771000D01*
X184080632Y-72654475D01*
X184287475Y-72447632D01*
X184449990Y-72204411D01*
X184561932Y-71934158D01*
X184619000Y-71647260D01*
X184619000Y-71354740D01*
X184561932Y-71067842D01*
X184449990Y-70797589D01*
X184287475Y-70554368D01*
X184080632Y-70347525D01*
X183837411Y-70185010D01*
X183567158Y-70073068D01*
X183280260Y-70016000D01*
X182987740Y-70016000D01*
X182700842Y-70073068D01*
X182430589Y-70185010D01*
X182187368Y-70347525D01*
X181980525Y-70554368D01*
X181818010Y-70797589D01*
X181706068Y-71067842D01*
X181649000Y-71354740D01*
X181649000Y-71568172D01*
X174569172Y-64488344D01*
X182360000Y-64488344D01*
X182360000Y-64859656D01*
X182432439Y-65223834D01*
X182574534Y-65566882D01*
X182780825Y-65875618D01*
X183043382Y-66138175D01*
X183352118Y-66344466D01*
X183695166Y-66486561D01*
X184059344Y-66559000D01*
X184430656Y-66559000D01*
X184794834Y-66486561D01*
X185137882Y-66344466D01*
X185446618Y-66138175D01*
X185709175Y-65875618D01*
X185915466Y-65566882D01*
X186057561Y-65223834D01*
X186130000Y-64859656D01*
X186130000Y-64488344D01*
X194560000Y-64488344D01*
X194560000Y-64859656D01*
X194632439Y-65223834D01*
X194774534Y-65566882D01*
X194980825Y-65875618D01*
X195243382Y-66138175D01*
X195552118Y-66344466D01*
X195895166Y-66486561D01*
X196259344Y-66559000D01*
X196630656Y-66559000D01*
X196994834Y-66486561D01*
X197337882Y-66344466D01*
X197646618Y-66138175D01*
X197909175Y-65875618D01*
X198115466Y-65566882D01*
X198257561Y-65223834D01*
X198330000Y-64859656D01*
X198330000Y-64488344D01*
X198257561Y-64124166D01*
X198115466Y-63781118D01*
X197909175Y-63472382D01*
X197646618Y-63209825D01*
X197337882Y-63003534D01*
X196994834Y-62861439D01*
X196630656Y-62789000D01*
X196259344Y-62789000D01*
X195895166Y-62861439D01*
X195552118Y-63003534D01*
X195243382Y-63209825D01*
X194980825Y-63472382D01*
X194774534Y-63781118D01*
X194632439Y-64124166D01*
X194560000Y-64488344D01*
X186130000Y-64488344D01*
X186057561Y-64124166D01*
X185915466Y-63781118D01*
X185709175Y-63472382D01*
X185446618Y-63209825D01*
X185137882Y-63003534D01*
X184794834Y-62861439D01*
X184430656Y-62789000D01*
X184059344Y-62789000D01*
X183695166Y-62861439D01*
X183352118Y-63003534D01*
X183043382Y-63209825D01*
X182780825Y-63472382D01*
X182574534Y-63781118D01*
X182432439Y-64124166D01*
X182360000Y-64488344D01*
X174569172Y-64488344D01*
X174561500Y-64480673D01*
X174561500Y-61456790D01*
X174589262Y-61429028D01*
X174691586Y-61275889D01*
X174762068Y-61105729D01*
X174798000Y-60925089D01*
X174798000Y-60740911D01*
X174762068Y-60560271D01*
X174691586Y-60390111D01*
X174589262Y-60236972D01*
X174459028Y-60106738D01*
X174305889Y-60004414D01*
X174135729Y-59933932D01*
X173955089Y-59898000D01*
X173770911Y-59898000D01*
X173590271Y-59933932D01*
X173420111Y-60004414D01*
X173266972Y-60106738D01*
X173136738Y-60236972D01*
X173034414Y-60390111D01*
X172963932Y-60560271D01*
X172928000Y-60740911D01*
X172928000Y-60925089D01*
X172963932Y-61105729D01*
X173034414Y-61275889D01*
X173136738Y-61429028D01*
X173164500Y-61456790D01*
X173164501Y-64160634D01*
X172704446Y-63700579D01*
X172678291Y-63668709D01*
X172551146Y-63564364D01*
X172406087Y-63486828D01*
X172248689Y-63439082D01*
X172126019Y-63427000D01*
X172126018Y-63427000D01*
X172085000Y-63422960D01*
X172043982Y-63427000D01*
X161304072Y-63427000D01*
X161304072Y-63362000D01*
X161291812Y-63237518D01*
X161255502Y-63117820D01*
X161196537Y-63007506D01*
X161117185Y-62910815D01*
X161020494Y-62831463D01*
X160910180Y-62772498D01*
X160790482Y-62736188D01*
X160666000Y-62723928D01*
X158866000Y-62723928D01*
X158741518Y-62736188D01*
X158621820Y-62772498D01*
X158511506Y-62831463D01*
X158414815Y-62910815D01*
X158335463Y-63007506D01*
X158282120Y-63107303D01*
X158244505Y-63069688D01*
X157993095Y-62901701D01*
X157713743Y-62785989D01*
X157417184Y-62727000D01*
X157114816Y-62727000D01*
X156818257Y-62785989D01*
X156538905Y-62901701D01*
X156287495Y-63069688D01*
X156073688Y-63283495D01*
X155978262Y-63426310D01*
X155830080Y-63377525D01*
X154945605Y-64262000D01*
X154586395Y-64262000D01*
X153701920Y-63377525D01*
X153447739Y-63461208D01*
X153316842Y-63733775D01*
X153241635Y-64026642D01*
X153225009Y-64328553D01*
X147528182Y-64328553D01*
X147530072Y-63674000D01*
X147517812Y-63549518D01*
X147481502Y-63429820D01*
X147422537Y-63319506D01*
X147343185Y-63222815D01*
X147312851Y-63197920D01*
X153881525Y-63197920D01*
X154766000Y-64082395D01*
X155650475Y-63197920D01*
X155566792Y-62943739D01*
X155294225Y-62812842D01*
X155001358Y-62737635D01*
X154699447Y-62721009D01*
X154400093Y-62763603D01*
X154114801Y-62863778D01*
X153965208Y-62943739D01*
X153881525Y-63197920D01*
X147312851Y-63197920D01*
X147246494Y-63143463D01*
X147136180Y-63084498D01*
X147016482Y-63048188D01*
X146892000Y-63035928D01*
X145827750Y-63039000D01*
X145669002Y-63197748D01*
X145669002Y-63049000D01*
X145737505Y-63049000D01*
X146121003Y-62972718D01*
X146482250Y-62823085D01*
X146807364Y-62605851D01*
X147083851Y-62329364D01*
X147301085Y-62004250D01*
X147450718Y-61643003D01*
X147527000Y-61259505D01*
X147527000Y-60868495D01*
X147450718Y-60484997D01*
X147301085Y-60123750D01*
X147083851Y-59798636D01*
X146807364Y-59522149D01*
X146482250Y-59304915D01*
X146121003Y-59155282D01*
X145762642Y-59084000D01*
X146121003Y-59012718D01*
X146482250Y-58863085D01*
X146807364Y-58645851D01*
X147083851Y-58369364D01*
X147301085Y-58044250D01*
X147450718Y-57683003D01*
X147502236Y-57424000D01*
X180356928Y-57424000D01*
X180356928Y-59924000D01*
X180369188Y-60048482D01*
X180405498Y-60168180D01*
X180464463Y-60278494D01*
X180543815Y-60375185D01*
X180640506Y-60454537D01*
X180750820Y-60513502D01*
X180870518Y-60549812D01*
X180995000Y-60562072D01*
X183495000Y-60562072D01*
X183619482Y-60549812D01*
X183739180Y-60513502D01*
X183849494Y-60454537D01*
X183946185Y-60375185D01*
X184025537Y-60278494D01*
X184084502Y-60168180D01*
X184120812Y-60048482D01*
X184133072Y-59924000D01*
X184133072Y-57424000D01*
X184120812Y-57299518D01*
X184084502Y-57179820D01*
X184025537Y-57069506D01*
X183946185Y-56972815D01*
X183849494Y-56893463D01*
X183739180Y-56834498D01*
X183619482Y-56798188D01*
X183495000Y-56785928D01*
X180995000Y-56785928D01*
X180870518Y-56798188D01*
X180750820Y-56834498D01*
X180640506Y-56893463D01*
X180543815Y-56972815D01*
X180464463Y-57069506D01*
X180405498Y-57179820D01*
X180369188Y-57299518D01*
X180356928Y-57424000D01*
X147502236Y-57424000D01*
X147527000Y-57299505D01*
X147527000Y-56908495D01*
X147450718Y-56524997D01*
X147301085Y-56163750D01*
X147083851Y-55838636D01*
X146807364Y-55562149D01*
X146738298Y-55516000D01*
X164346928Y-55516000D01*
X164359188Y-55640482D01*
X164395498Y-55760180D01*
X164454463Y-55870494D01*
X164533815Y-55967185D01*
X164630506Y-56046537D01*
X164740820Y-56105502D01*
X164860518Y-56141812D01*
X164985000Y-56154072D01*
X165449250Y-56151000D01*
X165608000Y-55992250D01*
X165608000Y-55118000D01*
X165862000Y-55118000D01*
X165862000Y-55992250D01*
X166020750Y-56151000D01*
X166485000Y-56154072D01*
X166609482Y-56141812D01*
X166729180Y-56105502D01*
X166839494Y-56046537D01*
X166936185Y-55967185D01*
X167015537Y-55870494D01*
X167074502Y-55760180D01*
X167110812Y-55640482D01*
X167123072Y-55516000D01*
X167120000Y-55276750D01*
X166961250Y-55118000D01*
X165862000Y-55118000D01*
X165608000Y-55118000D01*
X164508750Y-55118000D01*
X164350000Y-55276750D01*
X164346928Y-55516000D01*
X146738298Y-55516000D01*
X146482250Y-55344915D01*
X146121003Y-55195282D01*
X145737505Y-55119000D01*
X145346495Y-55119000D01*
X144962997Y-55195282D01*
X144601750Y-55344915D01*
X144276636Y-55562149D01*
X144000149Y-55838636D01*
X143782915Y-56163750D01*
X143633282Y-56524997D01*
X143557000Y-56908495D01*
X143557000Y-57299505D01*
X143633282Y-57683003D01*
X143782915Y-58044250D01*
X144000149Y-58369364D01*
X144276636Y-58645851D01*
X144601750Y-58863085D01*
X144962997Y-59012718D01*
X145321358Y-59084000D01*
X144962997Y-59155282D01*
X144601750Y-59304915D01*
X144276636Y-59522149D01*
X144000149Y-59798636D01*
X143782915Y-60123750D01*
X143633282Y-60484997D01*
X143557000Y-60868495D01*
X143557000Y-61259505D01*
X143633282Y-61643003D01*
X143782915Y-62004250D01*
X144000149Y-62329364D01*
X144276636Y-62605851D01*
X144601750Y-62823085D01*
X144962997Y-62972718D01*
X145346495Y-63049000D01*
X145414998Y-63049000D01*
X145414998Y-63197748D01*
X145256250Y-63039000D01*
X144192000Y-63035928D01*
X144067518Y-63048188D01*
X143947820Y-63084498D01*
X143837506Y-63143463D01*
X143740815Y-63222815D01*
X143661463Y-63319506D01*
X143602498Y-63429820D01*
X143566188Y-63549518D01*
X143553928Y-63674000D01*
X140354050Y-63674000D01*
X140354050Y-52451000D01*
X164344388Y-52451000D01*
X164366785Y-52678400D01*
X164433115Y-52897060D01*
X164534105Y-53086000D01*
X164433115Y-53274940D01*
X164366785Y-53493600D01*
X164344388Y-53721000D01*
X164366785Y-53948400D01*
X164430093Y-54157098D01*
X164395498Y-54221820D01*
X164359188Y-54341518D01*
X164346928Y-54466000D01*
X164350000Y-54705250D01*
X164508750Y-54864000D01*
X165281891Y-54864000D01*
X165282600Y-54864215D01*
X165453021Y-54881000D01*
X166016979Y-54881000D01*
X166187400Y-54864215D01*
X166188109Y-54864000D01*
X166961250Y-54864000D01*
X167120000Y-54705250D01*
X167123072Y-54466000D01*
X167110812Y-54341518D01*
X167074502Y-54221820D01*
X167039907Y-54157098D01*
X167103215Y-53948400D01*
X167125612Y-53721000D01*
X167114581Y-53609000D01*
X182602676Y-53609000D01*
X182780825Y-53875618D01*
X183043382Y-54138175D01*
X183352118Y-54344466D01*
X183695166Y-54486561D01*
X184059344Y-54559000D01*
X184430656Y-54559000D01*
X184794834Y-54486561D01*
X185137882Y-54344466D01*
X185446618Y-54138175D01*
X185709175Y-53875618D01*
X185887324Y-53609000D01*
X194802676Y-53609000D01*
X194980825Y-53875618D01*
X195243382Y-54138175D01*
X195552118Y-54344466D01*
X195895166Y-54486561D01*
X196259344Y-54559000D01*
X196630656Y-54559000D01*
X196994834Y-54486561D01*
X197337882Y-54344466D01*
X197646618Y-54138175D01*
X197909175Y-53875618D01*
X198115466Y-53566882D01*
X198257561Y-53223834D01*
X198330000Y-52859656D01*
X198330000Y-52488344D01*
X198257561Y-52124166D01*
X198115466Y-51781118D01*
X197909175Y-51472382D01*
X197646618Y-51209825D01*
X197337882Y-51003534D01*
X196994834Y-50861439D01*
X196630656Y-50789000D01*
X196259344Y-50789000D01*
X195895166Y-50861439D01*
X195552118Y-51003534D01*
X195243382Y-51209825D01*
X194980825Y-51472382D01*
X194802676Y-51739000D01*
X185887324Y-51739000D01*
X185709175Y-51472382D01*
X185446618Y-51209825D01*
X185137882Y-51003534D01*
X184794834Y-50861439D01*
X184430656Y-50789000D01*
X184059344Y-50789000D01*
X183695166Y-50861439D01*
X183352118Y-51003534D01*
X183043382Y-51209825D01*
X182780825Y-51472382D01*
X182602676Y-51739000D01*
X166876302Y-51739000D01*
X166784212Y-51626788D01*
X166607579Y-51481829D01*
X166406060Y-51374115D01*
X166187400Y-51307785D01*
X166016979Y-51291000D01*
X165453021Y-51291000D01*
X165282600Y-51307785D01*
X165063940Y-51374115D01*
X164862421Y-51481829D01*
X164685788Y-51626788D01*
X164540829Y-51803421D01*
X164433115Y-52004940D01*
X164366785Y-52223600D01*
X164344388Y-52451000D01*
X140354050Y-52451000D01*
X140354050Y-48802911D01*
X151338000Y-48802911D01*
X151338000Y-48987089D01*
X151373932Y-49167729D01*
X151444414Y-49337889D01*
X151546738Y-49491028D01*
X151676972Y-49621262D01*
X151830111Y-49723586D01*
X152000271Y-49794068D01*
X152180911Y-49830000D01*
X152365089Y-49830000D01*
X152545729Y-49794068D01*
X152715889Y-49723586D01*
X152855951Y-49630000D01*
X173999895Y-49630000D01*
X174036000Y-49633556D01*
X174072105Y-49630000D01*
X174180085Y-49619365D01*
X174318633Y-49577337D01*
X174446320Y-49509087D01*
X174558238Y-49417238D01*
X174581259Y-49389187D01*
X178966746Y-45003701D01*
X179171997Y-45088718D01*
X179555495Y-45165000D01*
X179946505Y-45165000D01*
X180330003Y-45088718D01*
X180691250Y-44939085D01*
X181016364Y-44721851D01*
X181292851Y-44445364D01*
X181510085Y-44120250D01*
X181659718Y-43759003D01*
X181731000Y-43400642D01*
X181802282Y-43759003D01*
X181951915Y-44120250D01*
X182169149Y-44445364D01*
X182445636Y-44721851D01*
X182770750Y-44939085D01*
X183131997Y-45088718D01*
X183515495Y-45165000D01*
X183906505Y-45165000D01*
X184290003Y-45088718D01*
X184651250Y-44939085D01*
X184976364Y-44721851D01*
X185252851Y-44445364D01*
X185470085Y-44120250D01*
X185619718Y-43759003D01*
X185691000Y-43400642D01*
X185762282Y-43759003D01*
X185911915Y-44120250D01*
X186129149Y-44445364D01*
X186405636Y-44721851D01*
X186730750Y-44939085D01*
X187091997Y-45088718D01*
X187475495Y-45165000D01*
X187866505Y-45165000D01*
X188250003Y-45088718D01*
X188611250Y-44939085D01*
X188936364Y-44721851D01*
X189212851Y-44445364D01*
X189430085Y-44120250D01*
X189579718Y-43759003D01*
X189651000Y-43400642D01*
X189722282Y-43759003D01*
X189871915Y-44120250D01*
X190089149Y-44445364D01*
X190365636Y-44721851D01*
X190690750Y-44939085D01*
X191051997Y-45088718D01*
X191435495Y-45165000D01*
X191826505Y-45165000D01*
X192210003Y-45088718D01*
X192571250Y-44939085D01*
X192896364Y-44721851D01*
X193172851Y-44445364D01*
X193390085Y-44120250D01*
X193539718Y-43759003D01*
X193616000Y-43375505D01*
X193616000Y-42984495D01*
X193539718Y-42600997D01*
X193390085Y-42239750D01*
X193172851Y-41914636D01*
X192896364Y-41638149D01*
X192571250Y-41420915D01*
X192210003Y-41271282D01*
X191826505Y-41195000D01*
X191435495Y-41195000D01*
X191051997Y-41271282D01*
X190690750Y-41420915D01*
X190365636Y-41638149D01*
X190089149Y-41914636D01*
X189871915Y-42239750D01*
X189722282Y-42600997D01*
X189651000Y-42959358D01*
X189579718Y-42600997D01*
X189430085Y-42239750D01*
X189212851Y-41914636D01*
X188936364Y-41638149D01*
X188611250Y-41420915D01*
X188250003Y-41271282D01*
X187866505Y-41195000D01*
X187475495Y-41195000D01*
X187091997Y-41271282D01*
X186730750Y-41420915D01*
X186405636Y-41638149D01*
X186129149Y-41914636D01*
X185911915Y-42239750D01*
X185762282Y-42600997D01*
X185691000Y-42959358D01*
X185619718Y-42600997D01*
X185470085Y-42239750D01*
X185252851Y-41914636D01*
X184976364Y-41638149D01*
X184651250Y-41420915D01*
X184290003Y-41271282D01*
X183906505Y-41195000D01*
X183515495Y-41195000D01*
X183131997Y-41271282D01*
X182770750Y-41420915D01*
X182445636Y-41638149D01*
X182169149Y-41914636D01*
X181951915Y-42239750D01*
X181802282Y-42600997D01*
X181731000Y-42959358D01*
X181659718Y-42600997D01*
X181510085Y-42239750D01*
X181292851Y-41914636D01*
X181016364Y-41638149D01*
X180691250Y-41420915D01*
X180330003Y-41271282D01*
X179946505Y-41195000D01*
X179555495Y-41195000D01*
X179171997Y-41271282D01*
X178810750Y-41420915D01*
X178485636Y-41638149D01*
X178209149Y-41914636D01*
X177991915Y-42239750D01*
X177842282Y-42600997D01*
X177771000Y-42959358D01*
X177699718Y-42600997D01*
X177550085Y-42239750D01*
X177332851Y-41914636D01*
X177056364Y-41638149D01*
X176731250Y-41420915D01*
X176370003Y-41271282D01*
X175986505Y-41195000D01*
X175595495Y-41195000D01*
X175211997Y-41271282D01*
X174850750Y-41420915D01*
X174525636Y-41638149D01*
X174249149Y-41914636D01*
X174031915Y-42239750D01*
X173882282Y-42600997D01*
X173819072Y-42918777D01*
X173819072Y-42080001D01*
X173802008Y-41906747D01*
X173751471Y-41740150D01*
X173669405Y-41586614D01*
X173558961Y-41452039D01*
X173424386Y-41341595D01*
X173270850Y-41259529D01*
X173104253Y-41208992D01*
X172930999Y-41191928D01*
X170731001Y-41191928D01*
X170557747Y-41208992D01*
X170391150Y-41259529D01*
X170237614Y-41341595D01*
X170103039Y-41452039D01*
X169992595Y-41586614D01*
X169910529Y-41740150D01*
X169859992Y-41906747D01*
X169842928Y-42080001D01*
X169842928Y-44279999D01*
X169859992Y-44453253D01*
X169910529Y-44619850D01*
X169992595Y-44773386D01*
X170103039Y-44907961D01*
X170237614Y-45018405D01*
X170391150Y-45100471D01*
X170557747Y-45151008D01*
X170731001Y-45168072D01*
X172930999Y-45168072D01*
X173104253Y-45151008D01*
X173270850Y-45100471D01*
X173424386Y-45018405D01*
X173558961Y-44907961D01*
X173669405Y-44773386D01*
X173751471Y-44619850D01*
X173802008Y-44453253D01*
X173819072Y-44279999D01*
X173819072Y-43441223D01*
X173882282Y-43759003D01*
X174031915Y-44120250D01*
X174249149Y-44445364D01*
X174525636Y-44721851D01*
X174850750Y-44939085D01*
X175211997Y-45088718D01*
X175595495Y-45165000D01*
X175986505Y-45165000D01*
X176370003Y-45088718D01*
X176731250Y-44939085D01*
X177056364Y-44721851D01*
X177332851Y-44445364D01*
X177550085Y-44120250D01*
X177699718Y-43759003D01*
X177771000Y-43400642D01*
X177842282Y-43759003D01*
X177927299Y-43964254D01*
X173731554Y-48160000D01*
X152855951Y-48160000D01*
X152715889Y-48066414D01*
X152545729Y-47995932D01*
X152365089Y-47960000D01*
X152180911Y-47960000D01*
X152000271Y-47995932D01*
X151830111Y-48066414D01*
X151676972Y-48168738D01*
X151546738Y-48298972D01*
X151444414Y-48452111D01*
X151373932Y-48622271D01*
X151338000Y-48802911D01*
X140354050Y-48802911D01*
X140354050Y-44420973D01*
X140422906Y-44767135D01*
X140734611Y-45519657D01*
X141187136Y-46196909D01*
X141763091Y-46772864D01*
X142440343Y-47225389D01*
X143192865Y-47537094D01*
X143991738Y-47696000D01*
X144806262Y-47696000D01*
X145605135Y-47537094D01*
X146357657Y-47225389D01*
X147034909Y-46772864D01*
X147610864Y-46196909D01*
X148063389Y-45519657D01*
X148375094Y-44767135D01*
X148534000Y-43968262D01*
X148534000Y-43153738D01*
X148375094Y-42354865D01*
X148261242Y-42080001D01*
X159555928Y-42080001D01*
X159555928Y-44279999D01*
X159572992Y-44453253D01*
X159623529Y-44619850D01*
X159705595Y-44773386D01*
X159816039Y-44907961D01*
X159950614Y-45018405D01*
X160104150Y-45100471D01*
X160270747Y-45151008D01*
X160444001Y-45168072D01*
X162643999Y-45168072D01*
X162817253Y-45151008D01*
X162983850Y-45100471D01*
X163137386Y-45018405D01*
X163271961Y-44907961D01*
X163382405Y-44773386D01*
X163464471Y-44619850D01*
X163515008Y-44453253D01*
X163532072Y-44279999D01*
X163532072Y-43441223D01*
X163595282Y-43759003D01*
X163744915Y-44120250D01*
X163962149Y-44445364D01*
X164238636Y-44721851D01*
X164563750Y-44939085D01*
X164924997Y-45088718D01*
X165308495Y-45165000D01*
X165699505Y-45165000D01*
X166083003Y-45088718D01*
X166444250Y-44939085D01*
X166769364Y-44721851D01*
X167045851Y-44445364D01*
X167263085Y-44120250D01*
X167412718Y-43759003D01*
X167489000Y-43375505D01*
X167489000Y-42984495D01*
X167412718Y-42600997D01*
X167263085Y-42239750D01*
X167045851Y-41914636D01*
X166769364Y-41638149D01*
X166444250Y-41420915D01*
X166083003Y-41271282D01*
X165699505Y-41195000D01*
X165308495Y-41195000D01*
X164924997Y-41271282D01*
X164563750Y-41420915D01*
X164238636Y-41638149D01*
X163962149Y-41914636D01*
X163744915Y-42239750D01*
X163595282Y-42600997D01*
X163532072Y-42918777D01*
X163532072Y-42080001D01*
X163515008Y-41906747D01*
X163464471Y-41740150D01*
X163382405Y-41586614D01*
X163271961Y-41452039D01*
X163137386Y-41341595D01*
X162983850Y-41259529D01*
X162817253Y-41208992D01*
X162643999Y-41191928D01*
X160444001Y-41191928D01*
X160270747Y-41208992D01*
X160104150Y-41259529D01*
X159950614Y-41341595D01*
X159816039Y-41452039D01*
X159705595Y-41586614D01*
X159623529Y-41740150D01*
X159572992Y-41906747D01*
X159555928Y-42080001D01*
X148261242Y-42080001D01*
X148063389Y-41602343D01*
X147610864Y-40925091D01*
X147034909Y-40349136D01*
X146357657Y-39896611D01*
X145605135Y-39584906D01*
X144806262Y-39426000D01*
X143991738Y-39426000D01*
X143192865Y-39584906D01*
X142440343Y-39896611D01*
X141763091Y-40349136D01*
X141187136Y-40925091D01*
X140734611Y-41602343D01*
X140422906Y-42354865D01*
X140354050Y-42701027D01*
X140354050Y-41941983D01*
X140417231Y-41297620D01*
X140595080Y-40708554D01*
X140883954Y-40165260D01*
X141272855Y-39688420D01*
X141746968Y-39296199D01*
X142288234Y-39003538D01*
X142876040Y-38821581D01*
X143518562Y-38754050D01*
X199993017Y-38754050D01*
X200637380Y-38817231D01*
G04 #@! TA.AperFunction,Conductor*
D27*
G36*
X200637380Y-38817231D02*
G01*
X201226446Y-38995080D01*
X201769740Y-39283954D01*
X202246580Y-39672855D01*
X202638801Y-40146968D01*
X202931462Y-40688234D01*
X203113419Y-41276040D01*
X203180950Y-41918562D01*
X203180950Y-42701027D01*
X203112094Y-42354865D01*
X202800389Y-41602343D01*
X202347864Y-40925091D01*
X201771909Y-40349136D01*
X201094657Y-39896611D01*
X200342135Y-39584906D01*
X199543262Y-39426000D01*
X198728738Y-39426000D01*
X197929865Y-39584906D01*
X197177343Y-39896611D01*
X196500091Y-40349136D01*
X195924136Y-40925091D01*
X195471611Y-41602343D01*
X195159906Y-42354865D01*
X195001000Y-43153738D01*
X195001000Y-43968262D01*
X195159906Y-44767135D01*
X195471611Y-45519657D01*
X195924136Y-46196909D01*
X196500091Y-46772864D01*
X197177343Y-47225389D01*
X197929865Y-47537094D01*
X198728738Y-47696000D01*
X199543262Y-47696000D01*
X200342135Y-47537094D01*
X201094657Y-47225389D01*
X201771909Y-46772864D01*
X202347864Y-46196909D01*
X202800389Y-45519657D01*
X203112094Y-44767135D01*
X203180950Y-44420973D01*
X203180951Y-72673032D01*
X203112094Y-72326865D01*
X202800389Y-71574343D01*
X202347864Y-70897091D01*
X201771909Y-70321136D01*
X201094657Y-69868611D01*
X200342135Y-69556906D01*
X199543262Y-69398000D01*
X198728738Y-69398000D01*
X197929865Y-69556906D01*
X197177343Y-69868611D01*
X196500091Y-70321136D01*
X195924136Y-70897091D01*
X195471611Y-71574343D01*
X195159906Y-72326865D01*
X195001000Y-73125738D01*
X195001000Y-73940262D01*
X195159906Y-74739135D01*
X195471611Y-75491657D01*
X195924136Y-76168909D01*
X196500091Y-76744864D01*
X197177343Y-77197389D01*
X197929865Y-77509094D01*
X198728738Y-77668000D01*
X199543262Y-77668000D01*
X200342135Y-77509094D01*
X201094657Y-77197389D01*
X201771909Y-76744864D01*
X202347864Y-76168909D01*
X202800389Y-75491657D01*
X203112094Y-74739135D01*
X203180951Y-74392968D01*
X203180951Y-74898006D01*
X203117769Y-75542380D01*
X202939920Y-76131445D01*
X202651046Y-76674741D01*
X202262145Y-77151580D01*
X201788033Y-77543799D01*
X201246765Y-77836462D01*
X200658960Y-78018419D01*
X200016438Y-78085950D01*
X143541983Y-78085950D01*
X142897620Y-78022769D01*
X142308555Y-77844920D01*
X141765259Y-77556046D01*
X141288420Y-77167145D01*
X140896201Y-76693033D01*
X140603538Y-76151765D01*
X140421581Y-75563960D01*
X140354050Y-74921438D01*
X140354050Y-74392973D01*
X140422906Y-74739135D01*
X140734611Y-75491657D01*
X141187136Y-76168909D01*
X141763091Y-76744864D01*
X142440343Y-77197389D01*
X143192865Y-77509094D01*
X143991738Y-77668000D01*
X144806262Y-77668000D01*
X145605135Y-77509094D01*
X146357657Y-77197389D01*
X147034909Y-76744864D01*
X147610864Y-76168909D01*
X148063389Y-75491657D01*
X148375094Y-74739135D01*
X148534000Y-73940262D01*
X148534000Y-73125738D01*
X148375094Y-72326865D01*
X148063389Y-71574343D01*
X148015369Y-71502475D01*
X149881000Y-71502475D01*
X149881000Y-72021525D01*
X149982261Y-72530601D01*
X150180893Y-73010141D01*
X150469262Y-73441715D01*
X150836285Y-73808738D01*
X151267859Y-74097107D01*
X151747399Y-74295739D01*
X152256475Y-74397000D01*
X152775525Y-74397000D01*
X153284601Y-74295739D01*
X153764141Y-74097107D01*
X154195715Y-73808738D01*
X154562738Y-73441715D01*
X154851107Y-73010141D01*
X155049739Y-72530601D01*
X155151000Y-72021525D01*
X155151000Y-71502475D01*
X159381000Y-71502475D01*
X159381000Y-72021525D01*
X159482261Y-72530601D01*
X159680893Y-73010141D01*
X159969262Y-73441715D01*
X160336285Y-73808738D01*
X160767859Y-74097107D01*
X161247399Y-74295739D01*
X161756475Y-74397000D01*
X162275525Y-74397000D01*
X162784601Y-74295739D01*
X163264141Y-74097107D01*
X163695715Y-73808738D01*
X164062738Y-73441715D01*
X164351107Y-73010141D01*
X164549739Y-72530601D01*
X164651000Y-72021525D01*
X164651000Y-71502475D01*
X164549739Y-70993399D01*
X164351107Y-70513859D01*
X164062738Y-70082285D01*
X163695715Y-69715262D01*
X163264141Y-69426893D01*
X162784601Y-69228261D01*
X162275525Y-69127000D01*
X161756475Y-69127000D01*
X161247399Y-69228261D01*
X160767859Y-69426893D01*
X160336285Y-69715262D01*
X159969262Y-70082285D01*
X159680893Y-70513859D01*
X159482261Y-70993399D01*
X159381000Y-71502475D01*
X155151000Y-71502475D01*
X155049739Y-70993399D01*
X154851107Y-70513859D01*
X154562738Y-70082285D01*
X154195715Y-69715262D01*
X153764141Y-69426893D01*
X153284601Y-69228261D01*
X152775525Y-69127000D01*
X152256475Y-69127000D01*
X151747399Y-69228261D01*
X151267859Y-69426893D01*
X150836285Y-69715262D01*
X150469262Y-70082285D01*
X150180893Y-70513859D01*
X149982261Y-70993399D01*
X149881000Y-71502475D01*
X148015369Y-71502475D01*
X147610864Y-70897091D01*
X147034909Y-70321136D01*
X146357657Y-69868611D01*
X145605135Y-69556906D01*
X144806262Y-69398000D01*
X143991738Y-69398000D01*
X143192865Y-69556906D01*
X142440343Y-69868611D01*
X141763091Y-70321136D01*
X141187136Y-70897091D01*
X140734611Y-71574343D01*
X140422906Y-72326865D01*
X140354050Y-72673027D01*
X140354050Y-66374000D01*
X143553928Y-66374000D01*
X143566188Y-66498482D01*
X143602498Y-66618180D01*
X143661463Y-66728494D01*
X143740815Y-66825185D01*
X143837506Y-66904537D01*
X143947820Y-66963502D01*
X144067518Y-66999812D01*
X144192000Y-67012072D01*
X145256250Y-67009000D01*
X145415000Y-66850250D01*
X145415000Y-65151000D01*
X145669000Y-65151000D01*
X145669000Y-66850250D01*
X145827750Y-67009000D01*
X146892000Y-67012072D01*
X147016482Y-66999812D01*
X147136180Y-66963502D01*
X147246494Y-66904537D01*
X147343185Y-66825185D01*
X147422537Y-66728494D01*
X147481502Y-66618180D01*
X147517812Y-66498482D01*
X147530072Y-66374000D01*
X147527048Y-65326080D01*
X153881525Y-65326080D01*
X153965208Y-65580261D01*
X154237775Y-65711158D01*
X154530642Y-65786365D01*
X154832553Y-65802991D01*
X155131907Y-65760397D01*
X155417199Y-65660222D01*
X155566792Y-65580261D01*
X155650475Y-65326080D01*
X154766000Y-64441605D01*
X153881525Y-65326080D01*
X147527048Y-65326080D01*
X147527000Y-65309750D01*
X147368250Y-65151000D01*
X145669000Y-65151000D01*
X145415000Y-65151000D01*
X143715750Y-65151000D01*
X143557000Y-65309750D01*
X143553928Y-66374000D01*
X140354050Y-66374000D01*
X140354050Y-63674000D01*
X143553928Y-63674000D01*
X143557000Y-64738250D01*
X143715750Y-64897000D01*
X145415000Y-64897000D01*
X145415000Y-64877000D01*
X145669000Y-64877000D01*
X145669000Y-64897000D01*
X147368250Y-64897000D01*
X147527000Y-64738250D01*
X147528182Y-64328553D01*
X153225009Y-64328553D01*
X153267603Y-64627907D01*
X153367778Y-64913199D01*
X153447739Y-65062792D01*
X153701920Y-65146475D01*
X154586395Y-64262000D01*
X154945605Y-64262000D01*
X155830080Y-65146475D01*
X155978262Y-65097690D01*
X156073688Y-65240505D01*
X156287495Y-65454312D01*
X156538905Y-65622299D01*
X156818257Y-65738011D01*
X157114816Y-65797000D01*
X157417184Y-65797000D01*
X157713743Y-65738011D01*
X157993095Y-65622299D01*
X158244505Y-65454312D01*
X158282120Y-65416697D01*
X158335463Y-65516494D01*
X158414815Y-65613185D01*
X158511506Y-65692537D01*
X158621820Y-65751502D01*
X158741518Y-65787812D01*
X158866000Y-65800072D01*
X160666000Y-65800072D01*
X160790482Y-65787812D01*
X160910180Y-65751502D01*
X161020494Y-65692537D01*
X161117185Y-65613185D01*
X161196537Y-65516494D01*
X161255502Y-65406180D01*
X161291812Y-65286482D01*
X161304072Y-65162000D01*
X161304072Y-65097000D01*
X171739133Y-65097000D01*
X175383346Y-68741214D01*
X175447414Y-68895889D01*
X175549738Y-69049028D01*
X175679972Y-69179262D01*
X175833111Y-69281586D01*
X176003271Y-69352068D01*
X176183911Y-69388000D01*
X176368089Y-69388000D01*
X176548729Y-69352068D01*
X176718889Y-69281586D01*
X176872028Y-69179262D01*
X177002262Y-69049028D01*
X177063120Y-68957947D01*
X181708102Y-73602930D01*
X181706068Y-73607842D01*
X181649000Y-73894740D01*
X181649000Y-74187260D01*
X181687936Y-74383001D01*
X179510829Y-74383001D01*
X179243000Y-74115173D01*
X179243000Y-74075911D01*
X179207068Y-73895271D01*
X179136586Y-73725111D01*
X179034262Y-73571972D01*
X178904028Y-73441738D01*
X178750889Y-73339414D01*
X178580729Y-73268932D01*
X178400089Y-73233000D01*
X178215911Y-73233000D01*
X178035271Y-73268932D01*
X177865111Y-73339414D01*
X177711972Y-73441738D01*
X177581738Y-73571972D01*
X177479414Y-73725111D01*
X177408932Y-73895271D01*
X177373000Y-74075911D01*
X177373000Y-74260089D01*
X177408932Y-74440729D01*
X177479414Y-74610889D01*
X177581738Y-74764028D01*
X177711972Y-74894262D01*
X177865111Y-74996586D01*
X178035271Y-75067068D01*
X178215911Y-75103000D01*
X178255173Y-75103000D01*
X178703330Y-75551158D01*
X178725198Y-75577804D01*
X178751844Y-75599672D01*
X178751847Y-75599675D01*
X178831558Y-75665092D01*
X178952904Y-75729953D01*
X179084571Y-75769894D01*
X179187192Y-75780001D01*
X179187203Y-75780001D01*
X179221501Y-75783379D01*
X179255799Y-75780001D01*
X181645928Y-75780001D01*
X181645928Y-77431000D01*
X181658188Y-77555482D01*
X181694498Y-77675180D01*
X181753463Y-77785494D01*
X181832815Y-77882185D01*
X181929506Y-77961537D01*
X182039820Y-78020502D01*
X182159518Y-78056812D01*
X182284000Y-78069072D01*
X183984000Y-78069072D01*
X184108482Y-78056812D01*
X184228180Y-78020502D01*
X184338494Y-77961537D01*
X184435185Y-77882185D01*
X184514537Y-77785494D01*
X184573502Y-77675180D01*
X184609812Y-77555482D01*
X184622072Y-77431000D01*
X184622072Y-75737847D01*
X184648096Y-75729953D01*
X184769442Y-75665092D01*
X184875802Y-75577804D01*
X184897674Y-75551153D01*
X186475000Y-73973828D01*
X186475000Y-74187260D01*
X186532068Y-74474158D01*
X186644010Y-74744411D01*
X186806525Y-74987632D01*
X187013368Y-75194475D01*
X187256589Y-75356990D01*
X187526842Y-75468932D01*
X187813740Y-75526000D01*
X188106260Y-75526000D01*
X188393158Y-75468932D01*
X188663411Y-75356990D01*
X188906632Y-75194475D01*
X189113475Y-74987632D01*
X189230000Y-74813240D01*
X189346525Y-74987632D01*
X189553368Y-75194475D01*
X189796589Y-75356990D01*
X190066842Y-75468932D01*
X190353740Y-75526000D01*
X190646260Y-75526000D01*
X190933158Y-75468932D01*
X191203411Y-75356990D01*
X191446632Y-75194475D01*
X191653475Y-74987632D01*
X191770000Y-74813240D01*
X191886525Y-74987632D01*
X192093368Y-75194475D01*
X192336589Y-75356990D01*
X192606842Y-75468932D01*
X192893740Y-75526000D01*
X193186260Y-75526000D01*
X193473158Y-75468932D01*
X193743411Y-75356990D01*
X193986632Y-75194475D01*
X194193475Y-74987632D01*
X194355990Y-74744411D01*
X194467932Y-74474158D01*
X194525000Y-74187260D01*
X194525000Y-73894740D01*
X194467932Y-73607842D01*
X194355990Y-73337589D01*
X194193475Y-73094368D01*
X194061620Y-72962513D01*
X194134180Y-72940502D01*
X194244494Y-72881537D01*
X194341185Y-72802185D01*
X194420537Y-72705494D01*
X194479502Y-72595180D01*
X194515812Y-72475482D01*
X194528072Y-72351000D01*
X194528072Y-70651000D01*
X194515812Y-70526518D01*
X194479502Y-70406820D01*
X194420537Y-70296506D01*
X194341185Y-70199815D01*
X194244494Y-70120463D01*
X194134180Y-70061498D01*
X194014482Y-70025188D01*
X193890000Y-70012928D01*
X192190000Y-70012928D01*
X192065518Y-70025188D01*
X191945820Y-70061498D01*
X191835506Y-70120463D01*
X191770000Y-70174222D01*
X191704494Y-70120463D01*
X191594180Y-70061498D01*
X191474482Y-70025188D01*
X191350000Y-70012928D01*
X189650000Y-70012928D01*
X189525518Y-70025188D01*
X189405820Y-70061498D01*
X189295506Y-70120463D01*
X189230000Y-70174222D01*
X189164494Y-70120463D01*
X189054180Y-70061498D01*
X188934482Y-70025188D01*
X188810000Y-70012928D01*
X187110000Y-70012928D01*
X186985518Y-70025188D01*
X186865820Y-70061498D01*
X186755506Y-70120463D01*
X186658815Y-70199815D01*
X186579463Y-70296506D01*
X186520498Y-70406820D01*
X186484188Y-70526518D01*
X186471928Y-70651000D01*
X186471928Y-72001244D01*
X184612269Y-73860903D01*
X184561932Y-73607842D01*
X184449990Y-73337589D01*
X184287475Y-73094368D01*
X184080632Y-72887525D01*
X183906240Y-72771000D01*
X184080632Y-72654475D01*
X184287475Y-72447632D01*
X184449990Y-72204411D01*
X184561932Y-71934158D01*
X184619000Y-71647260D01*
X184619000Y-71354740D01*
X184561932Y-71067842D01*
X184449990Y-70797589D01*
X184287475Y-70554368D01*
X184080632Y-70347525D01*
X183837411Y-70185010D01*
X183567158Y-70073068D01*
X183280260Y-70016000D01*
X182987740Y-70016000D01*
X182700842Y-70073068D01*
X182430589Y-70185010D01*
X182187368Y-70347525D01*
X181980525Y-70554368D01*
X181818010Y-70797589D01*
X181706068Y-71067842D01*
X181649000Y-71354740D01*
X181649000Y-71568172D01*
X174569172Y-64488344D01*
X182360000Y-64488344D01*
X182360000Y-64859656D01*
X182432439Y-65223834D01*
X182574534Y-65566882D01*
X182780825Y-65875618D01*
X183043382Y-66138175D01*
X183352118Y-66344466D01*
X183695166Y-66486561D01*
X184059344Y-66559000D01*
X184430656Y-66559000D01*
X184794834Y-66486561D01*
X185137882Y-66344466D01*
X185446618Y-66138175D01*
X185709175Y-65875618D01*
X185915466Y-65566882D01*
X186057561Y-65223834D01*
X186130000Y-64859656D01*
X186130000Y-64488344D01*
X194560000Y-64488344D01*
X194560000Y-64859656D01*
X194632439Y-65223834D01*
X194774534Y-65566882D01*
X194980825Y-65875618D01*
X195243382Y-66138175D01*
X195552118Y-66344466D01*
X195895166Y-66486561D01*
X196259344Y-66559000D01*
X196630656Y-66559000D01*
X196994834Y-66486561D01*
X197337882Y-66344466D01*
X197646618Y-66138175D01*
X197909175Y-65875618D01*
X198115466Y-65566882D01*
X198257561Y-65223834D01*
X198330000Y-64859656D01*
X198330000Y-64488344D01*
X198257561Y-64124166D01*
X198115466Y-63781118D01*
X197909175Y-63472382D01*
X197646618Y-63209825D01*
X197337882Y-63003534D01*
X196994834Y-62861439D01*
X196630656Y-62789000D01*
X196259344Y-62789000D01*
X195895166Y-62861439D01*
X195552118Y-63003534D01*
X195243382Y-63209825D01*
X194980825Y-63472382D01*
X194774534Y-63781118D01*
X194632439Y-64124166D01*
X194560000Y-64488344D01*
X186130000Y-64488344D01*
X186057561Y-64124166D01*
X185915466Y-63781118D01*
X185709175Y-63472382D01*
X185446618Y-63209825D01*
X185137882Y-63003534D01*
X184794834Y-62861439D01*
X184430656Y-62789000D01*
X184059344Y-62789000D01*
X183695166Y-62861439D01*
X183352118Y-63003534D01*
X183043382Y-63209825D01*
X182780825Y-63472382D01*
X182574534Y-63781118D01*
X182432439Y-64124166D01*
X182360000Y-64488344D01*
X174569172Y-64488344D01*
X174561500Y-64480673D01*
X174561500Y-61456790D01*
X174589262Y-61429028D01*
X174691586Y-61275889D01*
X174762068Y-61105729D01*
X174798000Y-60925089D01*
X174798000Y-60740911D01*
X174762068Y-60560271D01*
X174691586Y-60390111D01*
X174589262Y-60236972D01*
X174459028Y-60106738D01*
X174305889Y-60004414D01*
X174135729Y-59933932D01*
X173955089Y-59898000D01*
X173770911Y-59898000D01*
X173590271Y-59933932D01*
X173420111Y-60004414D01*
X173266972Y-60106738D01*
X173136738Y-60236972D01*
X173034414Y-60390111D01*
X172963932Y-60560271D01*
X172928000Y-60740911D01*
X172928000Y-60925089D01*
X172963932Y-61105729D01*
X173034414Y-61275889D01*
X173136738Y-61429028D01*
X173164500Y-61456790D01*
X173164501Y-64160634D01*
X172704446Y-63700579D01*
X172678291Y-63668709D01*
X172551146Y-63564364D01*
X172406087Y-63486828D01*
X172248689Y-63439082D01*
X172126019Y-63427000D01*
X172126018Y-63427000D01*
X172085000Y-63422960D01*
X172043982Y-63427000D01*
X161304072Y-63427000D01*
X161304072Y-63362000D01*
X161291812Y-63237518D01*
X161255502Y-63117820D01*
X161196537Y-63007506D01*
X161117185Y-62910815D01*
X161020494Y-62831463D01*
X160910180Y-62772498D01*
X160790482Y-62736188D01*
X160666000Y-62723928D01*
X158866000Y-62723928D01*
X158741518Y-62736188D01*
X158621820Y-62772498D01*
X158511506Y-62831463D01*
X158414815Y-62910815D01*
X158335463Y-63007506D01*
X158282120Y-63107303D01*
X158244505Y-63069688D01*
X157993095Y-62901701D01*
X157713743Y-62785989D01*
X157417184Y-62727000D01*
X157114816Y-62727000D01*
X156818257Y-62785989D01*
X156538905Y-62901701D01*
X156287495Y-63069688D01*
X156073688Y-63283495D01*
X155978262Y-63426310D01*
X155830080Y-63377525D01*
X154945605Y-64262000D01*
X154586395Y-64262000D01*
X153701920Y-63377525D01*
X153447739Y-63461208D01*
X153316842Y-63733775D01*
X153241635Y-64026642D01*
X153225009Y-64328553D01*
X147528182Y-64328553D01*
X147530072Y-63674000D01*
X147517812Y-63549518D01*
X147481502Y-63429820D01*
X147422537Y-63319506D01*
X147343185Y-63222815D01*
X147312851Y-63197920D01*
X153881525Y-63197920D01*
X154766000Y-64082395D01*
X155650475Y-63197920D01*
X155566792Y-62943739D01*
X155294225Y-62812842D01*
X155001358Y-62737635D01*
X154699447Y-62721009D01*
X154400093Y-62763603D01*
X154114801Y-62863778D01*
X153965208Y-62943739D01*
X153881525Y-63197920D01*
X147312851Y-63197920D01*
X147246494Y-63143463D01*
X147136180Y-63084498D01*
X147016482Y-63048188D01*
X146892000Y-63035928D01*
X145827750Y-63039000D01*
X145669002Y-63197748D01*
X145669002Y-63049000D01*
X145737505Y-63049000D01*
X146121003Y-62972718D01*
X146482250Y-62823085D01*
X146807364Y-62605851D01*
X147083851Y-62329364D01*
X147301085Y-62004250D01*
X147450718Y-61643003D01*
X147527000Y-61259505D01*
X147527000Y-60868495D01*
X147450718Y-60484997D01*
X147301085Y-60123750D01*
X147083851Y-59798636D01*
X146807364Y-59522149D01*
X146482250Y-59304915D01*
X146121003Y-59155282D01*
X145762642Y-59084000D01*
X146121003Y-59012718D01*
X146482250Y-58863085D01*
X146807364Y-58645851D01*
X147083851Y-58369364D01*
X147301085Y-58044250D01*
X147450718Y-57683003D01*
X147502236Y-57424000D01*
X180356928Y-57424000D01*
X180356928Y-59924000D01*
X180369188Y-60048482D01*
X180405498Y-60168180D01*
X180464463Y-60278494D01*
X180543815Y-60375185D01*
X180640506Y-60454537D01*
X180750820Y-60513502D01*
X180870518Y-60549812D01*
X180995000Y-60562072D01*
X183495000Y-60562072D01*
X183619482Y-60549812D01*
X183739180Y-60513502D01*
X183849494Y-60454537D01*
X183946185Y-60375185D01*
X184025537Y-60278494D01*
X184084502Y-60168180D01*
X184120812Y-60048482D01*
X184133072Y-59924000D01*
X184133072Y-57424000D01*
X184120812Y-57299518D01*
X184084502Y-57179820D01*
X184025537Y-57069506D01*
X183946185Y-56972815D01*
X183849494Y-56893463D01*
X183739180Y-56834498D01*
X183619482Y-56798188D01*
X183495000Y-56785928D01*
X180995000Y-56785928D01*
X180870518Y-56798188D01*
X180750820Y-56834498D01*
X180640506Y-56893463D01*
X180543815Y-56972815D01*
X180464463Y-57069506D01*
X180405498Y-57179820D01*
X180369188Y-57299518D01*
X180356928Y-57424000D01*
X147502236Y-57424000D01*
X147527000Y-57299505D01*
X147527000Y-56908495D01*
X147450718Y-56524997D01*
X147301085Y-56163750D01*
X147083851Y-55838636D01*
X146807364Y-55562149D01*
X146738298Y-55516000D01*
X164346928Y-55516000D01*
X164359188Y-55640482D01*
X164395498Y-55760180D01*
X164454463Y-55870494D01*
X164533815Y-55967185D01*
X164630506Y-56046537D01*
X164740820Y-56105502D01*
X164860518Y-56141812D01*
X164985000Y-56154072D01*
X165449250Y-56151000D01*
X165608000Y-55992250D01*
X165608000Y-55118000D01*
X165862000Y-55118000D01*
X165862000Y-55992250D01*
X166020750Y-56151000D01*
X166485000Y-56154072D01*
X166609482Y-56141812D01*
X166729180Y-56105502D01*
X166839494Y-56046537D01*
X166936185Y-55967185D01*
X167015537Y-55870494D01*
X167074502Y-55760180D01*
X167110812Y-55640482D01*
X167123072Y-55516000D01*
X167120000Y-55276750D01*
X166961250Y-55118000D01*
X165862000Y-55118000D01*
X165608000Y-55118000D01*
X164508750Y-55118000D01*
X164350000Y-55276750D01*
X164346928Y-55516000D01*
X146738298Y-55516000D01*
X146482250Y-55344915D01*
X146121003Y-55195282D01*
X145737505Y-55119000D01*
X145346495Y-55119000D01*
X144962997Y-55195282D01*
X144601750Y-55344915D01*
X144276636Y-55562149D01*
X144000149Y-55838636D01*
X143782915Y-56163750D01*
X143633282Y-56524997D01*
X143557000Y-56908495D01*
X143557000Y-57299505D01*
X143633282Y-57683003D01*
X143782915Y-58044250D01*
X144000149Y-58369364D01*
X144276636Y-58645851D01*
X144601750Y-58863085D01*
X144962997Y-59012718D01*
X145321358Y-59084000D01*
X144962997Y-59155282D01*
X144601750Y-59304915D01*
X144276636Y-59522149D01*
X144000149Y-59798636D01*
X143782915Y-60123750D01*
X143633282Y-60484997D01*
X143557000Y-60868495D01*
X143557000Y-61259505D01*
X143633282Y-61643003D01*
X143782915Y-62004250D01*
X144000149Y-62329364D01*
X144276636Y-62605851D01*
X144601750Y-62823085D01*
X144962997Y-62972718D01*
X145346495Y-63049000D01*
X145414998Y-63049000D01*
X145414998Y-63197748D01*
X145256250Y-63039000D01*
X144192000Y-63035928D01*
X144067518Y-63048188D01*
X143947820Y-63084498D01*
X143837506Y-63143463D01*
X143740815Y-63222815D01*
X143661463Y-63319506D01*
X143602498Y-63429820D01*
X143566188Y-63549518D01*
X143553928Y-63674000D01*
X140354050Y-63674000D01*
X140354050Y-52451000D01*
X164344388Y-52451000D01*
X164366785Y-52678400D01*
X164433115Y-52897060D01*
X164534105Y-53086000D01*
X164433115Y-53274940D01*
X164366785Y-53493600D01*
X164344388Y-53721000D01*
X164366785Y-53948400D01*
X164430093Y-54157098D01*
X164395498Y-54221820D01*
X164359188Y-54341518D01*
X164346928Y-54466000D01*
X164350000Y-54705250D01*
X164508750Y-54864000D01*
X165281891Y-54864000D01*
X165282600Y-54864215D01*
X165453021Y-54881000D01*
X166016979Y-54881000D01*
X166187400Y-54864215D01*
X166188109Y-54864000D01*
X166961250Y-54864000D01*
X167120000Y-54705250D01*
X167123072Y-54466000D01*
X167110812Y-54341518D01*
X167074502Y-54221820D01*
X167039907Y-54157098D01*
X167103215Y-53948400D01*
X167125612Y-53721000D01*
X167114581Y-53609000D01*
X182602676Y-53609000D01*
X182780825Y-53875618D01*
X183043382Y-54138175D01*
X183352118Y-54344466D01*
X183695166Y-54486561D01*
X184059344Y-54559000D01*
X184430656Y-54559000D01*
X184794834Y-54486561D01*
X185137882Y-54344466D01*
X185446618Y-54138175D01*
X185709175Y-53875618D01*
X185887324Y-53609000D01*
X194802676Y-53609000D01*
X194980825Y-53875618D01*
X195243382Y-54138175D01*
X195552118Y-54344466D01*
X195895166Y-54486561D01*
X196259344Y-54559000D01*
X196630656Y-54559000D01*
X196994834Y-54486561D01*
X197337882Y-54344466D01*
X197646618Y-54138175D01*
X197909175Y-53875618D01*
X198115466Y-53566882D01*
X198257561Y-53223834D01*
X198330000Y-52859656D01*
X198330000Y-52488344D01*
X198257561Y-52124166D01*
X198115466Y-51781118D01*
X197909175Y-51472382D01*
X197646618Y-51209825D01*
X197337882Y-51003534D01*
X196994834Y-50861439D01*
X196630656Y-50789000D01*
X196259344Y-50789000D01*
X195895166Y-50861439D01*
X195552118Y-51003534D01*
X195243382Y-51209825D01*
X194980825Y-51472382D01*
X194802676Y-51739000D01*
X185887324Y-51739000D01*
X185709175Y-51472382D01*
X185446618Y-51209825D01*
X185137882Y-51003534D01*
X184794834Y-50861439D01*
X184430656Y-50789000D01*
X184059344Y-50789000D01*
X183695166Y-50861439D01*
X183352118Y-51003534D01*
X183043382Y-51209825D01*
X182780825Y-51472382D01*
X182602676Y-51739000D01*
X166876302Y-51739000D01*
X166784212Y-51626788D01*
X166607579Y-51481829D01*
X166406060Y-51374115D01*
X166187400Y-51307785D01*
X166016979Y-51291000D01*
X165453021Y-51291000D01*
X165282600Y-51307785D01*
X165063940Y-51374115D01*
X164862421Y-51481829D01*
X164685788Y-51626788D01*
X164540829Y-51803421D01*
X164433115Y-52004940D01*
X164366785Y-52223600D01*
X164344388Y-52451000D01*
X140354050Y-52451000D01*
X140354050Y-48802911D01*
X151338000Y-48802911D01*
X151338000Y-48987089D01*
X151373932Y-49167729D01*
X151444414Y-49337889D01*
X151546738Y-49491028D01*
X151676972Y-49621262D01*
X151830111Y-49723586D01*
X152000271Y-49794068D01*
X152180911Y-49830000D01*
X152365089Y-49830000D01*
X152545729Y-49794068D01*
X152715889Y-49723586D01*
X152855951Y-49630000D01*
X173999895Y-49630000D01*
X174036000Y-49633556D01*
X174072105Y-49630000D01*
X174180085Y-49619365D01*
X174318633Y-49577337D01*
X174446320Y-49509087D01*
X174558238Y-49417238D01*
X174581259Y-49389187D01*
X178966746Y-45003701D01*
X179171997Y-45088718D01*
X179555495Y-45165000D01*
X179946505Y-45165000D01*
X180330003Y-45088718D01*
X180691250Y-44939085D01*
X181016364Y-44721851D01*
X181292851Y-44445364D01*
X181510085Y-44120250D01*
X181659718Y-43759003D01*
X181731000Y-43400642D01*
X181802282Y-43759003D01*
X181951915Y-44120250D01*
X182169149Y-44445364D01*
X182445636Y-44721851D01*
X182770750Y-44939085D01*
X183131997Y-45088718D01*
X183515495Y-45165000D01*
X183906505Y-45165000D01*
X184290003Y-45088718D01*
X184651250Y-44939085D01*
X184976364Y-44721851D01*
X185252851Y-44445364D01*
X185470085Y-44120250D01*
X185619718Y-43759003D01*
X185691000Y-43400642D01*
X185762282Y-43759003D01*
X185911915Y-44120250D01*
X186129149Y-44445364D01*
X186405636Y-44721851D01*
X186730750Y-44939085D01*
X187091997Y-45088718D01*
X187475495Y-45165000D01*
X187866505Y-45165000D01*
X188250003Y-45088718D01*
X188611250Y-44939085D01*
X188936364Y-44721851D01*
X189212851Y-44445364D01*
X189430085Y-44120250D01*
X189579718Y-43759003D01*
X189651000Y-43400642D01*
X189722282Y-43759003D01*
X189871915Y-44120250D01*
X190089149Y-44445364D01*
X190365636Y-44721851D01*
X190690750Y-44939085D01*
X191051997Y-45088718D01*
X191435495Y-45165000D01*
X191826505Y-45165000D01*
X192210003Y-45088718D01*
X192571250Y-44939085D01*
X192896364Y-44721851D01*
X193172851Y-44445364D01*
X193390085Y-44120250D01*
X193539718Y-43759003D01*
X193616000Y-43375505D01*
X193616000Y-42984495D01*
X193539718Y-42600997D01*
X193390085Y-42239750D01*
X193172851Y-41914636D01*
X192896364Y-41638149D01*
X192571250Y-41420915D01*
X192210003Y-41271282D01*
X191826505Y-41195000D01*
X191435495Y-41195000D01*
X191051997Y-41271282D01*
X190690750Y-41420915D01*
X190365636Y-41638149D01*
X190089149Y-41914636D01*
X189871915Y-42239750D01*
X189722282Y-42600997D01*
X189651000Y-42959358D01*
X189579718Y-42600997D01*
X189430085Y-42239750D01*
X189212851Y-41914636D01*
X188936364Y-41638149D01*
X188611250Y-41420915D01*
X188250003Y-41271282D01*
X187866505Y-41195000D01*
X187475495Y-41195000D01*
X187091997Y-41271282D01*
X186730750Y-41420915D01*
X186405636Y-41638149D01*
X186129149Y-41914636D01*
X185911915Y-42239750D01*
X185762282Y-42600997D01*
X185691000Y-42959358D01*
X185619718Y-42600997D01*
X185470085Y-42239750D01*
X185252851Y-41914636D01*
X184976364Y-41638149D01*
X184651250Y-41420915D01*
X184290003Y-41271282D01*
X183906505Y-41195000D01*
X183515495Y-41195000D01*
X183131997Y-41271282D01*
X182770750Y-41420915D01*
X182445636Y-41638149D01*
X182169149Y-41914636D01*
X181951915Y-42239750D01*
X181802282Y-42600997D01*
X181731000Y-42959358D01*
X181659718Y-42600997D01*
X181510085Y-42239750D01*
X181292851Y-41914636D01*
X181016364Y-41638149D01*
X180691250Y-41420915D01*
X180330003Y-41271282D01*
X179946505Y-41195000D01*
X179555495Y-41195000D01*
X179171997Y-41271282D01*
X178810750Y-41420915D01*
X178485636Y-41638149D01*
X178209149Y-41914636D01*
X177991915Y-42239750D01*
X177842282Y-42600997D01*
X177771000Y-42959358D01*
X177699718Y-42600997D01*
X177550085Y-42239750D01*
X177332851Y-41914636D01*
X177056364Y-41638149D01*
X176731250Y-41420915D01*
X176370003Y-41271282D01*
X175986505Y-41195000D01*
X175595495Y-41195000D01*
X175211997Y-41271282D01*
X174850750Y-41420915D01*
X174525636Y-41638149D01*
X174249149Y-41914636D01*
X174031915Y-42239750D01*
X173882282Y-42600997D01*
X173819072Y-42918777D01*
X173819072Y-42080001D01*
X173802008Y-41906747D01*
X173751471Y-41740150D01*
X173669405Y-41586614D01*
X173558961Y-41452039D01*
X173424386Y-41341595D01*
X173270850Y-41259529D01*
X173104253Y-41208992D01*
X172930999Y-41191928D01*
X170731001Y-41191928D01*
X170557747Y-41208992D01*
X170391150Y-41259529D01*
X170237614Y-41341595D01*
X170103039Y-41452039D01*
X169992595Y-41586614D01*
X169910529Y-41740150D01*
X169859992Y-41906747D01*
X169842928Y-42080001D01*
X169842928Y-44279999D01*
X169859992Y-44453253D01*
X169910529Y-44619850D01*
X169992595Y-44773386D01*
X170103039Y-44907961D01*
X170237614Y-45018405D01*
X170391150Y-45100471D01*
X170557747Y-45151008D01*
X170731001Y-45168072D01*
X172930999Y-45168072D01*
X173104253Y-45151008D01*
X173270850Y-45100471D01*
X173424386Y-45018405D01*
X173558961Y-44907961D01*
X173669405Y-44773386D01*
X173751471Y-44619850D01*
X173802008Y-44453253D01*
X173819072Y-44279999D01*
X173819072Y-43441223D01*
X173882282Y-43759003D01*
X174031915Y-44120250D01*
X174249149Y-44445364D01*
X174525636Y-44721851D01*
X174850750Y-44939085D01*
X175211997Y-45088718D01*
X175595495Y-45165000D01*
X175986505Y-45165000D01*
X176370003Y-45088718D01*
X176731250Y-44939085D01*
X177056364Y-44721851D01*
X177332851Y-44445364D01*
X177550085Y-44120250D01*
X177699718Y-43759003D01*
X177771000Y-43400642D01*
X177842282Y-43759003D01*
X177927299Y-43964254D01*
X173731554Y-48160000D01*
X152855951Y-48160000D01*
X152715889Y-48066414D01*
X152545729Y-47995932D01*
X152365089Y-47960000D01*
X152180911Y-47960000D01*
X152000271Y-47995932D01*
X151830111Y-48066414D01*
X151676972Y-48168738D01*
X151546738Y-48298972D01*
X151444414Y-48452111D01*
X151373932Y-48622271D01*
X151338000Y-48802911D01*
X140354050Y-48802911D01*
X140354050Y-44420973D01*
X140422906Y-44767135D01*
X140734611Y-45519657D01*
X141187136Y-46196909D01*
X141763091Y-46772864D01*
X142440343Y-47225389D01*
X143192865Y-47537094D01*
X143991738Y-47696000D01*
X144806262Y-47696000D01*
X145605135Y-47537094D01*
X146357657Y-47225389D01*
X147034909Y-46772864D01*
X147610864Y-46196909D01*
X148063389Y-45519657D01*
X148375094Y-44767135D01*
X148534000Y-43968262D01*
X148534000Y-43153738D01*
X148375094Y-42354865D01*
X148261242Y-42080001D01*
X159555928Y-42080001D01*
X159555928Y-44279999D01*
X159572992Y-44453253D01*
X159623529Y-44619850D01*
X159705595Y-44773386D01*
X159816039Y-44907961D01*
X159950614Y-45018405D01*
X160104150Y-45100471D01*
X160270747Y-45151008D01*
X160444001Y-45168072D01*
X162643999Y-45168072D01*
X162817253Y-45151008D01*
X162983850Y-45100471D01*
X163137386Y-45018405D01*
X163271961Y-44907961D01*
X163382405Y-44773386D01*
X163464471Y-44619850D01*
X163515008Y-44453253D01*
X163532072Y-44279999D01*
X163532072Y-43441223D01*
X163595282Y-43759003D01*
X163744915Y-44120250D01*
X163962149Y-44445364D01*
X164238636Y-44721851D01*
X164563750Y-44939085D01*
X164924997Y-45088718D01*
X165308495Y-45165000D01*
X165699505Y-45165000D01*
X166083003Y-45088718D01*
X166444250Y-44939085D01*
X166769364Y-44721851D01*
X167045851Y-44445364D01*
X167263085Y-44120250D01*
X167412718Y-43759003D01*
X167489000Y-43375505D01*
X167489000Y-42984495D01*
X167412718Y-42600997D01*
X167263085Y-42239750D01*
X167045851Y-41914636D01*
X166769364Y-41638149D01*
X166444250Y-41420915D01*
X166083003Y-41271282D01*
X165699505Y-41195000D01*
X165308495Y-41195000D01*
X164924997Y-41271282D01*
X164563750Y-41420915D01*
X164238636Y-41638149D01*
X163962149Y-41914636D01*
X163744915Y-42239750D01*
X163595282Y-42600997D01*
X163532072Y-42918777D01*
X163532072Y-42080001D01*
X163515008Y-41906747D01*
X163464471Y-41740150D01*
X163382405Y-41586614D01*
X163271961Y-41452039D01*
X163137386Y-41341595D01*
X162983850Y-41259529D01*
X162817253Y-41208992D01*
X162643999Y-41191928D01*
X160444001Y-41191928D01*
X160270747Y-41208992D01*
X160104150Y-41259529D01*
X159950614Y-41341595D01*
X159816039Y-41452039D01*
X159705595Y-41586614D01*
X159623529Y-41740150D01*
X159572992Y-41906747D01*
X159555928Y-42080001D01*
X148261242Y-42080001D01*
X148063389Y-41602343D01*
X147610864Y-40925091D01*
X147034909Y-40349136D01*
X146357657Y-39896611D01*
X145605135Y-39584906D01*
X144806262Y-39426000D01*
X143991738Y-39426000D01*
X143192865Y-39584906D01*
X142440343Y-39896611D01*
X141763091Y-40349136D01*
X141187136Y-40925091D01*
X140734611Y-41602343D01*
X140422906Y-42354865D01*
X140354050Y-42701027D01*
X140354050Y-41941983D01*
X140417231Y-41297620D01*
X140595080Y-40708554D01*
X140883954Y-40165260D01*
X141272855Y-39688420D01*
X141746968Y-39296199D01*
X142288234Y-39003538D01*
X142876040Y-38821581D01*
X143518562Y-38754050D01*
X199993017Y-38754050D01*
X200637380Y-38817231D01*
G37*
G04 #@! TD.AperFunction*
G04 #@! TD*
M02*
