M48
; DRILL file {KiCad (5.1.7)-1} date 12/21/20 12:07:55
; FORMAT={-:-/ absolute / inch / decimal}
; #@! TF.CreationDate,2020-12-21T12:07:55-05:00
; #@! TF.GenerationSoftware,Kicad,Pcbnew,(5.1.7)-1
FMAT,2
INCH
T1C0.0118
T2C0.0295
T3C0.0394
T4C0.0512
T5C0.0669
T6C0.0787
T7C0.1693
%
G90
G05
T1
X5.865Y-2.05
X5.995Y-1.925
X6.615Y-2.67
X6.625Y-2.425
X6.845Y-2.395
X6.94Y-2.695
X6.94Y-2.77
X6.96Y-2.395
X7.02Y-2.92
T2
X6.525Y-2.065
X6.525Y-2.115
X6.525Y-2.165
T3
X7.5Y-2.815
X7.5Y-2.915
X7.6Y-2.815
X7.6Y-2.915
X7.4Y-2.815
X7.4Y-2.915
X6.0931Y-2.53
X6.1916Y-2.53
X6.29Y-2.53
X7.21Y-2.815
X7.21Y-2.915
X7.21Y-3.015
T4
X7.175Y-2.31
X7.2537Y-2.0738
X7.2537Y-2.5462
X7.7341Y-2.0738
X7.7341Y-2.5462
T5
X6.765Y-1.7
X6.9209Y-1.7
X7.0768Y-1.7
X7.2327Y-1.7
X7.3886Y-1.7
X7.5445Y-1.7
X6.36Y-1.7
X6.5159Y-1.7
X5.73Y-2.2482
X5.73Y-2.4041
X5.73Y-2.56
T6
X6.0046Y-2.8253
X6.3786Y-2.8253
T7
X5.685Y-2.895
X7.84Y-2.895
X7.84Y-1.715
X5.685Y-1.715
T0
M30
