G04 #@! TF.GenerationSoftware,KiCad,Pcbnew,(5.1.7)-1*
G04 #@! TF.CreationDate,2020-12-21T12:07:40-05:00*
G04 #@! TF.ProjectId,Fan Controller v3.0,46616e20-436f-46e7-9472-6f6c6c657220,A*
G04 #@! TF.SameCoordinates,Original*
G04 #@! TF.FileFunction,Legend,Top*
G04 #@! TF.FilePolarity,Positive*
%FSLAX46Y46*%
G04 Gerber Fmt 4.6, Leading zero omitted, Abs format (unit mm)*
G04 Created by KiCad (PCBNEW (5.1.7)-1) date 2020-12-21 12:07:40*
%MOMM*%
%LPD*%
G01*
G04 APERTURE LIST*
%ADD10C,0.152400*%
%ADD11C,0.304800*%
%ADD12C,0.010000*%
%ADD13C,0.120000*%
%ADD14C,0.150000*%
%ADD15C,7.000000*%
%ADD16R,1.450000X0.450000*%
%ADD17R,1.500000X0.400000*%
%ADD18R,1.060000X0.650000*%
%ADD19R,1.220000X0.650000*%
%ADD20R,1.500000X1.050000*%
%ADD21O,1.500000X1.050000*%
%ADD22R,1.300000X1.550000*%
%ADD23R,1.800000X1.800000*%
%ADD24C,1.800000*%
%ADD25O,4.000000X4.000000*%
%ADD26R,1.900000X0.800000*%
%ADD27R,0.800000X1.900000*%
%ADD28O,2.500000X2.500000*%
%ADD29R,2.500000X2.500000*%
%ADD30O,1.700000X1.700000*%
%ADD31R,1.700000X1.700000*%
%ADD32C,2.700000*%
G04 APERTURE END LIST*
D10*
X178490638Y-45782895D02*
X178490638Y-46363466D01*
X178451933Y-46479580D01*
X178374523Y-46556990D01*
X178258409Y-46595695D01*
X178181000Y-46595695D01*
X179264733Y-46595695D02*
X178877685Y-46595695D01*
X178877685Y-45782895D01*
X180000123Y-46518285D02*
X179961419Y-46556990D01*
X179845304Y-46595695D01*
X179767895Y-46595695D01*
X179651780Y-46556990D01*
X179574371Y-46479580D01*
X179535666Y-46402171D01*
X179496961Y-46247352D01*
X179496961Y-46131238D01*
X179535666Y-45976419D01*
X179574371Y-45899009D01*
X179651780Y-45821600D01*
X179767895Y-45782895D01*
X179845304Y-45782895D01*
X179961419Y-45821600D01*
X180000123Y-45860304D01*
X180580695Y-45782895D02*
X180580695Y-46363466D01*
X180541990Y-46479580D01*
X180464580Y-46556990D01*
X180348466Y-46595695D01*
X180271057Y-46595695D01*
X181354790Y-46595695D02*
X180967742Y-46595695D01*
X180967742Y-45782895D01*
X182090180Y-46518285D02*
X182051476Y-46556990D01*
X181935361Y-46595695D01*
X181857952Y-46595695D01*
X181741838Y-46556990D01*
X181664428Y-46479580D01*
X181625723Y-46402171D01*
X181587019Y-46247352D01*
X181587019Y-46131238D01*
X181625723Y-45976419D01*
X181664428Y-45899009D01*
X181741838Y-45821600D01*
X181857952Y-45782895D01*
X181935361Y-45782895D01*
X182051476Y-45821600D01*
X182090180Y-45860304D01*
X182670752Y-45782895D02*
X182670752Y-46363466D01*
X182632047Y-46479580D01*
X182554638Y-46556990D01*
X182438523Y-46595695D01*
X182361114Y-46595695D01*
X183444847Y-46595695D02*
X183057800Y-46595695D01*
X183057800Y-45782895D01*
X184180238Y-46518285D02*
X184141533Y-46556990D01*
X184025419Y-46595695D01*
X183948009Y-46595695D01*
X183831895Y-46556990D01*
X183754485Y-46479580D01*
X183715780Y-46402171D01*
X183677076Y-46247352D01*
X183677076Y-46131238D01*
X183715780Y-45976419D01*
X183754485Y-45899009D01*
X183831895Y-45821600D01*
X183948009Y-45782895D01*
X184025419Y-45782895D01*
X184141533Y-45821600D01*
X184180238Y-45860304D01*
X184760809Y-45782895D02*
X184760809Y-46363466D01*
X184722104Y-46479580D01*
X184644695Y-46556990D01*
X184528580Y-46595695D01*
X184451171Y-46595695D01*
X185534904Y-46595695D02*
X185147857Y-46595695D01*
X185147857Y-45782895D01*
X186270295Y-46518285D02*
X186231590Y-46556990D01*
X186115476Y-46595695D01*
X186038066Y-46595695D01*
X185921952Y-46556990D01*
X185844542Y-46479580D01*
X185805838Y-46402171D01*
X185767133Y-46247352D01*
X185767133Y-46131238D01*
X185805838Y-45976419D01*
X185844542Y-45899009D01*
X185921952Y-45821600D01*
X186038066Y-45782895D01*
X186115476Y-45782895D01*
X186231590Y-45821600D01*
X186270295Y-45860304D01*
D11*
X187796714Y-57966428D02*
X188087000Y-57966428D01*
X188232142Y-58039000D01*
X188377285Y-58184142D01*
X188449857Y-58474428D01*
X188449857Y-58982428D01*
X188377285Y-59272714D01*
X188232142Y-59417857D01*
X188087000Y-59490428D01*
X187796714Y-59490428D01*
X187651571Y-59417857D01*
X187506428Y-59272714D01*
X187433857Y-58982428D01*
X187433857Y-58474428D01*
X187506428Y-58184142D01*
X187651571Y-58039000D01*
X187796714Y-57966428D01*
X191135000Y-59490428D02*
X190627000Y-58764714D01*
X190264142Y-59490428D02*
X190264142Y-57966428D01*
X190844714Y-57966428D01*
X190989857Y-58039000D01*
X191062428Y-58111571D01*
X191135000Y-58256714D01*
X191135000Y-58474428D01*
X191062428Y-58619571D01*
X190989857Y-58692142D01*
X190844714Y-58764714D01*
X190264142Y-58764714D01*
X191788142Y-58692142D02*
X192296142Y-58692142D01*
X192513857Y-59490428D02*
X191788142Y-59490428D01*
X191788142Y-57966428D01*
X192513857Y-57966428D01*
X193892714Y-59490428D02*
X193167000Y-59490428D01*
X193167000Y-57966428D01*
X194328142Y-59055000D02*
X195053857Y-59055000D01*
X194183000Y-59490428D02*
X194691000Y-57966428D01*
X195199000Y-59490428D01*
X195997285Y-58764714D02*
X195997285Y-59490428D01*
X195489285Y-57966428D02*
X195997285Y-58764714D01*
X196505285Y-57966428D01*
X197231000Y-59345285D02*
X197303571Y-59417857D01*
X197231000Y-59490428D01*
X197158428Y-59417857D01*
X197231000Y-59345285D01*
X197231000Y-59490428D01*
X196940714Y-58039000D02*
X197085857Y-57966428D01*
X197448714Y-57966428D01*
X197593857Y-58039000D01*
X197666428Y-58184142D01*
X197666428Y-58329285D01*
X197593857Y-58474428D01*
X197521285Y-58547000D01*
X197376142Y-58619571D01*
X197303571Y-58692142D01*
X197231000Y-58837285D01*
X197231000Y-58909857D01*
X198319571Y-59345285D02*
X198392142Y-59417857D01*
X198319571Y-59490428D01*
X198247000Y-59417857D01*
X198319571Y-59345285D01*
X198319571Y-59490428D01*
X198319571Y-58909857D02*
X198247000Y-58039000D01*
X198319571Y-57966428D01*
X198392142Y-58039000D01*
X198319571Y-58909857D01*
X198319571Y-57966428D01*
D10*
X141464695Y-53650847D02*
X140651895Y-53650847D01*
X140922828Y-53263800D02*
X141464695Y-53263800D01*
X141000238Y-53263800D02*
X140961533Y-53225095D01*
X140922828Y-53147685D01*
X140922828Y-53031571D01*
X140961533Y-52954161D01*
X141038942Y-52915457D01*
X141464695Y-52915457D01*
X141387285Y-52528409D02*
X141425990Y-52489704D01*
X141464695Y-52528409D01*
X141425990Y-52567114D01*
X141387285Y-52528409D01*
X141464695Y-52528409D01*
X140961533Y-52528409D02*
X141000238Y-52489704D01*
X141038942Y-52528409D01*
X141000238Y-52567114D01*
X140961533Y-52528409D01*
X141038942Y-52528409D01*
X141464695Y-51096333D02*
X141464695Y-51560790D01*
X141464695Y-51328561D02*
X140651895Y-51328561D01*
X140768009Y-51405971D01*
X140845419Y-51483380D01*
X140884123Y-51560790D01*
X140729304Y-50786695D02*
X140690600Y-50747990D01*
X140651895Y-50670580D01*
X140651895Y-50477057D01*
X140690600Y-50399647D01*
X140729304Y-50360942D01*
X140806714Y-50322238D01*
X140884123Y-50322238D01*
X141000238Y-50360942D01*
X141464695Y-50825400D01*
X141464695Y-50322238D01*
X140651895Y-50090009D02*
X141464695Y-49819076D01*
X140651895Y-49548142D01*
X141425990Y-49238504D02*
X141464695Y-49238504D01*
X141542104Y-49277209D01*
X141580809Y-49315914D01*
X140651895Y-48348295D02*
X140651895Y-47845133D01*
X140961533Y-48116066D01*
X140961533Y-47999952D01*
X141000238Y-47922542D01*
X141038942Y-47883838D01*
X141116352Y-47845133D01*
X141309876Y-47845133D01*
X141387285Y-47883838D01*
X141425990Y-47922542D01*
X141464695Y-47999952D01*
X141464695Y-48232180D01*
X141425990Y-48309590D01*
X141387285Y-48348295D01*
X141232466Y-47535495D02*
X141232466Y-47148447D01*
X141464695Y-47612904D02*
X140651895Y-47341971D01*
X141464695Y-47071038D01*
X155573790Y-58057142D02*
X155302857Y-58057142D01*
X155302857Y-58482895D02*
X155302857Y-57670095D01*
X155689904Y-57670095D01*
X156347885Y-58482895D02*
X156347885Y-58057142D01*
X156309180Y-57979733D01*
X156231771Y-57941028D01*
X156076952Y-57941028D01*
X155999542Y-57979733D01*
X156347885Y-58444190D02*
X156270476Y-58482895D01*
X156076952Y-58482895D01*
X155999542Y-58444190D01*
X155960838Y-58366780D01*
X155960838Y-58289371D01*
X155999542Y-58211961D01*
X156076952Y-58173257D01*
X156270476Y-58173257D01*
X156347885Y-58134552D01*
X156734933Y-57941028D02*
X156734933Y-58482895D01*
X156734933Y-58018438D02*
X156773638Y-57979733D01*
X156851047Y-57941028D01*
X156967161Y-57941028D01*
X157044571Y-57979733D01*
X157083276Y-58057142D01*
X157083276Y-58482895D01*
X158554057Y-58405485D02*
X158515352Y-58444190D01*
X158399238Y-58482895D01*
X158321828Y-58482895D01*
X158205714Y-58444190D01*
X158128304Y-58366780D01*
X158089600Y-58289371D01*
X158050895Y-58134552D01*
X158050895Y-58018438D01*
X158089600Y-57863619D01*
X158128304Y-57786209D01*
X158205714Y-57708800D01*
X158321828Y-57670095D01*
X158399238Y-57670095D01*
X158515352Y-57708800D01*
X158554057Y-57747504D01*
X159018514Y-58482895D02*
X158941104Y-58444190D01*
X158902400Y-58405485D01*
X158863695Y-58328076D01*
X158863695Y-58095847D01*
X158902400Y-58018438D01*
X158941104Y-57979733D01*
X159018514Y-57941028D01*
X159134628Y-57941028D01*
X159212038Y-57979733D01*
X159250742Y-58018438D01*
X159289447Y-58095847D01*
X159289447Y-58328076D01*
X159250742Y-58405485D01*
X159212038Y-58444190D01*
X159134628Y-58482895D01*
X159018514Y-58482895D01*
X159637790Y-57941028D02*
X159637790Y-58482895D01*
X159637790Y-58018438D02*
X159676495Y-57979733D01*
X159753904Y-57941028D01*
X159870019Y-57941028D01*
X159947428Y-57979733D01*
X159986133Y-58057142D01*
X159986133Y-58482895D01*
X160257066Y-57941028D02*
X160566704Y-57941028D01*
X160373180Y-57670095D02*
X160373180Y-58366780D01*
X160411885Y-58444190D01*
X160489295Y-58482895D01*
X160566704Y-58482895D01*
X160837638Y-58482895D02*
X160837638Y-57941028D01*
X160837638Y-58095847D02*
X160876342Y-58018438D01*
X160915047Y-57979733D01*
X160992457Y-57941028D01*
X161069866Y-57941028D01*
X161456914Y-58482895D02*
X161379504Y-58444190D01*
X161340800Y-58405485D01*
X161302095Y-58328076D01*
X161302095Y-58095847D01*
X161340800Y-58018438D01*
X161379504Y-57979733D01*
X161456914Y-57941028D01*
X161573028Y-57941028D01*
X161650438Y-57979733D01*
X161689142Y-58018438D01*
X161727847Y-58095847D01*
X161727847Y-58328076D01*
X161689142Y-58405485D01*
X161650438Y-58444190D01*
X161573028Y-58482895D01*
X161456914Y-58482895D01*
X162192304Y-58482895D02*
X162114895Y-58444190D01*
X162076190Y-58366780D01*
X162076190Y-57670095D01*
X162618057Y-58482895D02*
X162540647Y-58444190D01*
X162501942Y-58366780D01*
X162501942Y-57670095D01*
X163237333Y-58444190D02*
X163159923Y-58482895D01*
X163005104Y-58482895D01*
X162927695Y-58444190D01*
X162888990Y-58366780D01*
X162888990Y-58057142D01*
X162927695Y-57979733D01*
X163005104Y-57941028D01*
X163159923Y-57941028D01*
X163237333Y-57979733D01*
X163276038Y-58057142D01*
X163276038Y-58134552D01*
X162888990Y-58211961D01*
X163624380Y-58482895D02*
X163624380Y-57941028D01*
X163624380Y-58095847D02*
X163663085Y-58018438D01*
X163701790Y-57979733D01*
X163779200Y-57941028D01*
X163856609Y-57941028D01*
X164669409Y-57941028D02*
X164862933Y-58482895D01*
X165056457Y-57941028D01*
X165288685Y-57670095D02*
X165791847Y-57670095D01*
X165520914Y-57979733D01*
X165637028Y-57979733D01*
X165714438Y-58018438D01*
X165753142Y-58057142D01*
X165791847Y-58134552D01*
X165791847Y-58328076D01*
X165753142Y-58405485D01*
X165714438Y-58444190D01*
X165637028Y-58482895D01*
X165404800Y-58482895D01*
X165327390Y-58444190D01*
X165288685Y-58405485D01*
X157315504Y-59777085D02*
X157276800Y-59815790D01*
X157160685Y-59854495D01*
X157083276Y-59854495D01*
X156967161Y-59815790D01*
X156889752Y-59738380D01*
X156851047Y-59660971D01*
X156812342Y-59506152D01*
X156812342Y-59390038D01*
X156851047Y-59235219D01*
X156889752Y-59157809D01*
X156967161Y-59080400D01*
X157083276Y-59041695D01*
X157160685Y-59041695D01*
X157276800Y-59080400D01*
X157315504Y-59119104D01*
X157779961Y-59854495D02*
X157702552Y-59815790D01*
X157663847Y-59777085D01*
X157625142Y-59699676D01*
X157625142Y-59467447D01*
X157663847Y-59390038D01*
X157702552Y-59351333D01*
X157779961Y-59312628D01*
X157896076Y-59312628D01*
X157973485Y-59351333D01*
X158012190Y-59390038D01*
X158050895Y-59467447D01*
X158050895Y-59699676D01*
X158012190Y-59777085D01*
X157973485Y-59815790D01*
X157896076Y-59854495D01*
X157779961Y-59854495D01*
X158399238Y-59312628D02*
X158399238Y-59854495D01*
X158399238Y-59390038D02*
X158437942Y-59351333D01*
X158515352Y-59312628D01*
X158631466Y-59312628D01*
X158708876Y-59351333D01*
X158747580Y-59428742D01*
X158747580Y-59854495D01*
X159134628Y-59312628D02*
X159134628Y-59854495D01*
X159134628Y-59390038D02*
X159173333Y-59351333D01*
X159250742Y-59312628D01*
X159366857Y-59312628D01*
X159444266Y-59351333D01*
X159482971Y-59428742D01*
X159482971Y-59854495D01*
X159986133Y-59854495D02*
X159908723Y-59815790D01*
X159870019Y-59777085D01*
X159831314Y-59699676D01*
X159831314Y-59467447D01*
X159870019Y-59390038D01*
X159908723Y-59351333D01*
X159986133Y-59312628D01*
X160102247Y-59312628D01*
X160179657Y-59351333D01*
X160218361Y-59390038D01*
X160257066Y-59467447D01*
X160257066Y-59699676D01*
X160218361Y-59777085D01*
X160179657Y-59815790D01*
X160102247Y-59854495D01*
X159986133Y-59854495D01*
X160605409Y-59854495D02*
X160605409Y-59312628D01*
X160605409Y-59467447D02*
X160644114Y-59390038D01*
X160682819Y-59351333D01*
X160760228Y-59312628D01*
X160837638Y-59312628D01*
X162153600Y-59080400D02*
X162076190Y-59041695D01*
X161960076Y-59041695D01*
X161843961Y-59080400D01*
X161766552Y-59157809D01*
X161727847Y-59235219D01*
X161689142Y-59390038D01*
X161689142Y-59506152D01*
X161727847Y-59660971D01*
X161766552Y-59738380D01*
X161843961Y-59815790D01*
X161960076Y-59854495D01*
X162037485Y-59854495D01*
X162153600Y-59815790D01*
X162192304Y-59777085D01*
X162192304Y-59506152D01*
X162037485Y-59506152D01*
X162656761Y-59854495D02*
X162579352Y-59815790D01*
X162540647Y-59777085D01*
X162501942Y-59699676D01*
X162501942Y-59467447D01*
X162540647Y-59390038D01*
X162579352Y-59351333D01*
X162656761Y-59312628D01*
X162772876Y-59312628D01*
X162850285Y-59351333D01*
X162888990Y-59390038D01*
X162927695Y-59467447D01*
X162927695Y-59699676D01*
X162888990Y-59777085D01*
X162850285Y-59815790D01*
X162772876Y-59854495D01*
X162656761Y-59854495D01*
X163237333Y-59815790D02*
X163314742Y-59854495D01*
X163469561Y-59854495D01*
X163546971Y-59815790D01*
X163585676Y-59738380D01*
X163585676Y-59699676D01*
X163546971Y-59622266D01*
X163469561Y-59583561D01*
X163353447Y-59583561D01*
X163276038Y-59544857D01*
X163237333Y-59467447D01*
X163237333Y-59428742D01*
X163276038Y-59351333D01*
X163353447Y-59312628D01*
X163469561Y-59312628D01*
X163546971Y-59351333D01*
X163895314Y-59815790D02*
X163972723Y-59854495D01*
X164127542Y-59854495D01*
X164204952Y-59815790D01*
X164243657Y-59738380D01*
X164243657Y-59699676D01*
X164204952Y-59622266D01*
X164127542Y-59583561D01*
X164011428Y-59583561D01*
X163934019Y-59544857D01*
X163895314Y-59467447D01*
X163895314Y-59428742D01*
X163934019Y-59351333D01*
X164011428Y-59312628D01*
X164127542Y-59312628D01*
X164204952Y-59351333D01*
X180418619Y-77095047D02*
X180418619Y-76901523D01*
X180467000Y-76804761D01*
X180563761Y-76708000D01*
X180757285Y-76659619D01*
X181095952Y-76659619D01*
X181289476Y-76708000D01*
X181386238Y-76804761D01*
X181434619Y-76901523D01*
X181434619Y-77095047D01*
X181386238Y-77191809D01*
X181289476Y-77288571D01*
X181095952Y-77336952D01*
X180757285Y-77336952D01*
X180563761Y-77288571D01*
X180467000Y-77191809D01*
X180418619Y-77095047D01*
X181434619Y-76224190D02*
X180418619Y-76224190D01*
X181434619Y-75643619D01*
X180418619Y-75643619D01*
X181047571Y-74385714D02*
X181047571Y-73611619D01*
X180418619Y-72160190D02*
X180418619Y-71966666D01*
X180467000Y-71869904D01*
X180563761Y-71773142D01*
X180757285Y-71724761D01*
X181095952Y-71724761D01*
X181289476Y-71773142D01*
X181386238Y-71869904D01*
X181434619Y-71966666D01*
X181434619Y-72160190D01*
X181386238Y-72256952D01*
X181289476Y-72353714D01*
X181095952Y-72402095D01*
X180757285Y-72402095D01*
X180563761Y-72353714D01*
X180467000Y-72256952D01*
X180418619Y-72160190D01*
X180902428Y-70950666D02*
X180902428Y-71289333D01*
X181434619Y-71289333D02*
X180418619Y-71289333D01*
X180418619Y-70805523D01*
X180902428Y-70079809D02*
X180902428Y-70418476D01*
X181434619Y-70418476D02*
X180418619Y-70418476D01*
X180418619Y-69934666D01*
D12*
G04 #@! TO.C,G\u002A\u002A\u002A*
G36*
X156253120Y-50218861D02*
G01*
X156100615Y-50214336D01*
X155701838Y-50083423D01*
X155344838Y-49823166D01*
X155080881Y-49473286D01*
X155043400Y-49395208D01*
X154941123Y-49098558D01*
X154886102Y-48768405D01*
X154879462Y-48379524D01*
X154922328Y-47906690D01*
X155015827Y-47324680D01*
X155161081Y-46608269D01*
X155169441Y-46569761D01*
X155321790Y-45813419D01*
X155417157Y-45195383D01*
X155456543Y-44694866D01*
X155440951Y-44291077D01*
X155371383Y-43963225D01*
X155303330Y-43792602D01*
X155177145Y-43571654D01*
X155018044Y-43346872D01*
X154860693Y-43161329D01*
X154739751Y-43058098D01*
X154705833Y-43050128D01*
X154652924Y-43131056D01*
X154565163Y-43329584D01*
X154461531Y-43602766D01*
X154461343Y-43603295D01*
X154138079Y-44270822D01*
X153680380Y-44837768D01*
X153092785Y-45300289D01*
X152379841Y-45654541D01*
X151827727Y-45831118D01*
X151078305Y-46025701D01*
X151799379Y-45660572D01*
X152551105Y-45213733D01*
X153155505Y-44705590D01*
X153627508Y-44123289D01*
X153680050Y-44041267D01*
X153835452Y-43754872D01*
X153984338Y-43418324D01*
X154109909Y-43078388D01*
X154195365Y-42781830D01*
X154223906Y-42575413D01*
X154219371Y-42539992D01*
X154175742Y-42577178D01*
X154074670Y-42734430D01*
X153935480Y-42980881D01*
X153889708Y-43066591D01*
X153442181Y-43758514D01*
X152873607Y-44359042D01*
X152172348Y-44878054D01*
X151326764Y-45325426D01*
X151123191Y-45413962D01*
X150776629Y-45568339D01*
X150454943Y-45726609D01*
X150218925Y-45858582D01*
X150189824Y-45877488D01*
X149947383Y-46068137D01*
X149692781Y-46311478D01*
X149455533Y-46573147D01*
X149265157Y-46818783D01*
X149151171Y-47014021D01*
X149133656Y-47107049D01*
X149108452Y-47241328D01*
X148953750Y-47291578D01*
X148688922Y-47254459D01*
X148541242Y-47209150D01*
X148075422Y-47095655D01*
X147657056Y-47113460D01*
X147226949Y-47268043D01*
X147082780Y-47344144D01*
X146774543Y-47499419D01*
X146580677Y-47553670D01*
X146512289Y-47540217D01*
X146471476Y-47509382D01*
X146465990Y-47465363D01*
X146511767Y-47388807D01*
X146624741Y-47260364D01*
X146820848Y-47060680D01*
X147116024Y-46770403D01*
X147269708Y-46620392D01*
X147616518Y-46227814D01*
X147959014Y-45744862D01*
X148269993Y-45219057D01*
X148522253Y-44697916D01*
X148688587Y-44228955D01*
X148721876Y-44083777D01*
X148768916Y-43768132D01*
X148772806Y-43495938D01*
X148729067Y-43197997D01*
X148641009Y-42834471D01*
X148527193Y-42443877D01*
X148414508Y-42165015D01*
X148277322Y-41942410D01*
X148164737Y-41803748D01*
X147969134Y-41565582D01*
X147889856Y-41420557D01*
X147921385Y-41344219D01*
X148053872Y-41312541D01*
X148378287Y-41357874D01*
X148733327Y-41538420D01*
X149090298Y-41830790D01*
X149420500Y-42211597D01*
X149689059Y-42645271D01*
X149774172Y-42807270D01*
X149807993Y-42851311D01*
X149790083Y-42764645D01*
X149719998Y-42534525D01*
X149680944Y-42411065D01*
X149534579Y-42018276D01*
X149365447Y-41724823D01*
X149176275Y-41503035D01*
X149003636Y-41312574D01*
X148899034Y-41171696D01*
X148883049Y-41124173D01*
X149006831Y-41063915D01*
X149227954Y-41085253D01*
X149505253Y-41172369D01*
X149797563Y-41309445D01*
X150063719Y-41480661D01*
X150243603Y-41646999D01*
X150451331Y-41891201D01*
X151299434Y-41701016D01*
X151770025Y-41606275D01*
X152141099Y-41561195D01*
X152473414Y-41560805D01*
X152718632Y-41584862D01*
X153011774Y-41610403D01*
X153150432Y-41597418D01*
X153142169Y-41556510D01*
X152994548Y-41498283D01*
X152715135Y-41433343D01*
X152595534Y-41412285D01*
X152325519Y-41356375D01*
X152176532Y-41282972D01*
X152100663Y-41162966D01*
X152081221Y-41099775D01*
X151972592Y-40866306D01*
X151815502Y-40663375D01*
X151688589Y-40512328D01*
X151648211Y-40407765D01*
X151650608Y-40401670D01*
X151761647Y-40360111D01*
X151964609Y-40386606D01*
X152204860Y-40464391D01*
X152427760Y-40576702D01*
X152556372Y-40679592D01*
X152687585Y-40796204D01*
X152759538Y-40808289D01*
X152763658Y-40793479D01*
X152715387Y-40664087D01*
X152588593Y-40488933D01*
X152571575Y-40469846D01*
X152433765Y-40271553D01*
X152408621Y-40120658D01*
X152485671Y-40054661D01*
X152600861Y-40058108D01*
X152807164Y-40082284D01*
X152838048Y-40086787D01*
X153174899Y-40209168D01*
X153530719Y-40458924D01*
X153873627Y-40801912D01*
X154171742Y-41203989D01*
X154393180Y-41631011D01*
X154459665Y-41823429D01*
X154545148Y-42066491D01*
X154662330Y-42224568D01*
X154864518Y-42359410D01*
X154970674Y-42415330D01*
X155553345Y-42804737D01*
X156023277Y-43311972D01*
X156374277Y-43923242D01*
X156600146Y-44624761D01*
X156694691Y-45402738D01*
X156660197Y-46175512D01*
X156608583Y-46869764D01*
X156624060Y-47482061D01*
X156701711Y-47999307D01*
X156836621Y-48408405D01*
X157023874Y-48696263D01*
X157258554Y-48849782D01*
X157535745Y-48855870D01*
X157651621Y-48816620D01*
X157821590Y-48760709D01*
X157904604Y-48767120D01*
X157905295Y-48769057D01*
X157887657Y-48911685D01*
X157808688Y-49140791D01*
X157693326Y-49397144D01*
X157566513Y-49621514D01*
X157517665Y-49689672D01*
X157296171Y-49873743D01*
X156969115Y-50039021D01*
X156600197Y-50161923D01*
X156253120Y-50218861D01*
G37*
X156253120Y-50218861D02*
X156100615Y-50214336D01*
X155701838Y-50083423D01*
X155344838Y-49823166D01*
X155080881Y-49473286D01*
X155043400Y-49395208D01*
X154941123Y-49098558D01*
X154886102Y-48768405D01*
X154879462Y-48379524D01*
X154922328Y-47906690D01*
X155015827Y-47324680D01*
X155161081Y-46608269D01*
X155169441Y-46569761D01*
X155321790Y-45813419D01*
X155417157Y-45195383D01*
X155456543Y-44694866D01*
X155440951Y-44291077D01*
X155371383Y-43963225D01*
X155303330Y-43792602D01*
X155177145Y-43571654D01*
X155018044Y-43346872D01*
X154860693Y-43161329D01*
X154739751Y-43058098D01*
X154705833Y-43050128D01*
X154652924Y-43131056D01*
X154565163Y-43329584D01*
X154461531Y-43602766D01*
X154461343Y-43603295D01*
X154138079Y-44270822D01*
X153680380Y-44837768D01*
X153092785Y-45300289D01*
X152379841Y-45654541D01*
X151827727Y-45831118D01*
X151078305Y-46025701D01*
X151799379Y-45660572D01*
X152551105Y-45213733D01*
X153155505Y-44705590D01*
X153627508Y-44123289D01*
X153680050Y-44041267D01*
X153835452Y-43754872D01*
X153984338Y-43418324D01*
X154109909Y-43078388D01*
X154195365Y-42781830D01*
X154223906Y-42575413D01*
X154219371Y-42539992D01*
X154175742Y-42577178D01*
X154074670Y-42734430D01*
X153935480Y-42980881D01*
X153889708Y-43066591D01*
X153442181Y-43758514D01*
X152873607Y-44359042D01*
X152172348Y-44878054D01*
X151326764Y-45325426D01*
X151123191Y-45413962D01*
X150776629Y-45568339D01*
X150454943Y-45726609D01*
X150218925Y-45858582D01*
X150189824Y-45877488D01*
X149947383Y-46068137D01*
X149692781Y-46311478D01*
X149455533Y-46573147D01*
X149265157Y-46818783D01*
X149151171Y-47014021D01*
X149133656Y-47107049D01*
X149108452Y-47241328D01*
X148953750Y-47291578D01*
X148688922Y-47254459D01*
X148541242Y-47209150D01*
X148075422Y-47095655D01*
X147657056Y-47113460D01*
X147226949Y-47268043D01*
X147082780Y-47344144D01*
X146774543Y-47499419D01*
X146580677Y-47553670D01*
X146512289Y-47540217D01*
X146471476Y-47509382D01*
X146465990Y-47465363D01*
X146511767Y-47388807D01*
X146624741Y-47260364D01*
X146820848Y-47060680D01*
X147116024Y-46770403D01*
X147269708Y-46620392D01*
X147616518Y-46227814D01*
X147959014Y-45744862D01*
X148269993Y-45219057D01*
X148522253Y-44697916D01*
X148688587Y-44228955D01*
X148721876Y-44083777D01*
X148768916Y-43768132D01*
X148772806Y-43495938D01*
X148729067Y-43197997D01*
X148641009Y-42834471D01*
X148527193Y-42443877D01*
X148414508Y-42165015D01*
X148277322Y-41942410D01*
X148164737Y-41803748D01*
X147969134Y-41565582D01*
X147889856Y-41420557D01*
X147921385Y-41344219D01*
X148053872Y-41312541D01*
X148378287Y-41357874D01*
X148733327Y-41538420D01*
X149090298Y-41830790D01*
X149420500Y-42211597D01*
X149689059Y-42645271D01*
X149774172Y-42807270D01*
X149807993Y-42851311D01*
X149790083Y-42764645D01*
X149719998Y-42534525D01*
X149680944Y-42411065D01*
X149534579Y-42018276D01*
X149365447Y-41724823D01*
X149176275Y-41503035D01*
X149003636Y-41312574D01*
X148899034Y-41171696D01*
X148883049Y-41124173D01*
X149006831Y-41063915D01*
X149227954Y-41085253D01*
X149505253Y-41172369D01*
X149797563Y-41309445D01*
X150063719Y-41480661D01*
X150243603Y-41646999D01*
X150451331Y-41891201D01*
X151299434Y-41701016D01*
X151770025Y-41606275D01*
X152141099Y-41561195D01*
X152473414Y-41560805D01*
X152718632Y-41584862D01*
X153011774Y-41610403D01*
X153150432Y-41597418D01*
X153142169Y-41556510D01*
X152994548Y-41498283D01*
X152715135Y-41433343D01*
X152595534Y-41412285D01*
X152325519Y-41356375D01*
X152176532Y-41282972D01*
X152100663Y-41162966D01*
X152081221Y-41099775D01*
X151972592Y-40866306D01*
X151815502Y-40663375D01*
X151688589Y-40512328D01*
X151648211Y-40407765D01*
X151650608Y-40401670D01*
X151761647Y-40360111D01*
X151964609Y-40386606D01*
X152204860Y-40464391D01*
X152427760Y-40576702D01*
X152556372Y-40679592D01*
X152687585Y-40796204D01*
X152759538Y-40808289D01*
X152763658Y-40793479D01*
X152715387Y-40664087D01*
X152588593Y-40488933D01*
X152571575Y-40469846D01*
X152433765Y-40271553D01*
X152408621Y-40120658D01*
X152485671Y-40054661D01*
X152600861Y-40058108D01*
X152807164Y-40082284D01*
X152838048Y-40086787D01*
X153174899Y-40209168D01*
X153530719Y-40458924D01*
X153873627Y-40801912D01*
X154171742Y-41203989D01*
X154393180Y-41631011D01*
X154459665Y-41823429D01*
X154545148Y-42066491D01*
X154662330Y-42224568D01*
X154864518Y-42359410D01*
X154970674Y-42415330D01*
X155553345Y-42804737D01*
X156023277Y-43311972D01*
X156374277Y-43923242D01*
X156600146Y-44624761D01*
X156694691Y-45402738D01*
X156660197Y-46175512D01*
X156608583Y-46869764D01*
X156624060Y-47482061D01*
X156701711Y-47999307D01*
X156836621Y-48408405D01*
X157023874Y-48696263D01*
X157258554Y-48849782D01*
X157535745Y-48855870D01*
X157651621Y-48816620D01*
X157821590Y-48760709D01*
X157904604Y-48767120D01*
X157905295Y-48769057D01*
X157887657Y-48911685D01*
X157808688Y-49140791D01*
X157693326Y-49397144D01*
X157566513Y-49621514D01*
X157517665Y-49689672D01*
X157296171Y-49873743D01*
X156969115Y-50039021D01*
X156600197Y-50161923D01*
X156253120Y-50218861D01*
G36*
X155731561Y-52034249D02*
G01*
X155201094Y-52103886D01*
X154943411Y-52108739D01*
X154434129Y-52016134D01*
X153917331Y-51783849D01*
X153435628Y-51433945D01*
X153213284Y-51212974D01*
X153003992Y-50972587D01*
X152860247Y-50773260D01*
X152755096Y-50562096D01*
X152661582Y-50286199D01*
X152566303Y-49943351D01*
X152467930Y-49556140D01*
X152415541Y-49269496D01*
X152405142Y-49022195D01*
X152432741Y-48753013D01*
X152473177Y-48515241D01*
X152529486Y-48256281D01*
X152608473Y-48002464D01*
X152723817Y-47723848D01*
X152889196Y-47390491D01*
X153118287Y-46972450D01*
X153408481Y-46467733D01*
X153681866Y-45995034D01*
X153941007Y-45540969D01*
X154167623Y-45138022D01*
X154343431Y-44818681D01*
X154444490Y-44626844D01*
X154575508Y-44387195D01*
X154658171Y-44295344D01*
X154702084Y-44338689D01*
X154710700Y-44567712D01*
X154656881Y-44934569D01*
X154544837Y-45421427D01*
X154378776Y-46010451D01*
X154162905Y-46683809D01*
X154116503Y-46820111D01*
X153891257Y-47511665D01*
X153736717Y-48079916D01*
X153648692Y-48553429D01*
X153622991Y-48960770D01*
X153655420Y-49330504D01*
X153710918Y-49583931D01*
X153874748Y-50024552D01*
X154121167Y-50376119D01*
X154485955Y-50684161D01*
X154668901Y-50802862D01*
X155232742Y-51059038D01*
X155805531Y-51154210D01*
X156367348Y-51094227D01*
X156898268Y-50884940D01*
X157378370Y-50532197D01*
X157787727Y-50041848D01*
X157902412Y-49853477D01*
X158060415Y-49529087D01*
X158176327Y-49209897D01*
X158224575Y-48970758D01*
X158251107Y-48683900D01*
X158291440Y-48541102D01*
X158337655Y-48549795D01*
X158381829Y-48717412D01*
X158394860Y-48810966D01*
X158391581Y-49464108D01*
X158228822Y-50086912D01*
X157915810Y-50663616D01*
X157461769Y-51178454D01*
X156875927Y-51615665D01*
X156691908Y-51720748D01*
X156255178Y-51900616D01*
X155731561Y-52034249D01*
G37*
X155731561Y-52034249D02*
X155201094Y-52103886D01*
X154943411Y-52108739D01*
X154434129Y-52016134D01*
X153917331Y-51783849D01*
X153435628Y-51433945D01*
X153213284Y-51212974D01*
X153003992Y-50972587D01*
X152860247Y-50773260D01*
X152755096Y-50562096D01*
X152661582Y-50286199D01*
X152566303Y-49943351D01*
X152467930Y-49556140D01*
X152415541Y-49269496D01*
X152405142Y-49022195D01*
X152432741Y-48753013D01*
X152473177Y-48515241D01*
X152529486Y-48256281D01*
X152608473Y-48002464D01*
X152723817Y-47723848D01*
X152889196Y-47390491D01*
X153118287Y-46972450D01*
X153408481Y-46467733D01*
X153681866Y-45995034D01*
X153941007Y-45540969D01*
X154167623Y-45138022D01*
X154343431Y-44818681D01*
X154444490Y-44626844D01*
X154575508Y-44387195D01*
X154658171Y-44295344D01*
X154702084Y-44338689D01*
X154710700Y-44567712D01*
X154656881Y-44934569D01*
X154544837Y-45421427D01*
X154378776Y-46010451D01*
X154162905Y-46683809D01*
X154116503Y-46820111D01*
X153891257Y-47511665D01*
X153736717Y-48079916D01*
X153648692Y-48553429D01*
X153622991Y-48960770D01*
X153655420Y-49330504D01*
X153710918Y-49583931D01*
X153874748Y-50024552D01*
X154121167Y-50376119D01*
X154485955Y-50684161D01*
X154668901Y-50802862D01*
X155232742Y-51059038D01*
X155805531Y-51154210D01*
X156367348Y-51094227D01*
X156898268Y-50884940D01*
X157378370Y-50532197D01*
X157787727Y-50041848D01*
X157902412Y-49853477D01*
X158060415Y-49529087D01*
X158176327Y-49209897D01*
X158224575Y-48970758D01*
X158251107Y-48683900D01*
X158291440Y-48541102D01*
X158337655Y-48549795D01*
X158381829Y-48717412D01*
X158394860Y-48810966D01*
X158391581Y-49464108D01*
X158228822Y-50086912D01*
X157915810Y-50663616D01*
X157461769Y-51178454D01*
X156875927Y-51615665D01*
X156691908Y-51720748D01*
X156255178Y-51900616D01*
X155731561Y-52034249D01*
G36*
X147966354Y-47524704D02*
G01*
X147640814Y-47558438D01*
X147415657Y-47567912D01*
X147197349Y-47570994D01*
X147386196Y-47457964D01*
X147709682Y-47312003D01*
X148069765Y-47261462D01*
X148188108Y-47261253D01*
X148387849Y-47288746D01*
X148495193Y-47348546D01*
X148498572Y-47356758D01*
X148435993Y-47415917D01*
X148245001Y-47474548D01*
X147966354Y-47524704D01*
G37*
X147966354Y-47524704D02*
X147640814Y-47558438D01*
X147415657Y-47567912D01*
X147197349Y-47570994D01*
X147386196Y-47457964D01*
X147709682Y-47312003D01*
X148069765Y-47261462D01*
X148188108Y-47261253D01*
X148387849Y-47288746D01*
X148495193Y-47348546D01*
X148498572Y-47356758D01*
X148435993Y-47415917D01*
X148245001Y-47474548D01*
X147966354Y-47524704D01*
D13*
G04 #@! TO.C,U5*
X167005000Y-61880000D02*
X164005000Y-61880000D01*
X168005000Y-65120000D02*
X166005000Y-65120000D01*
G04 #@! TO.C,U4*
X173163000Y-62628000D02*
X174563000Y-62628000D01*
X174563000Y-60308000D02*
X172663000Y-60308000D01*
G04 #@! TO.C,U3*
X179208000Y-71923000D02*
X176758000Y-71923000D01*
X177408000Y-75143000D02*
X179208000Y-75143000D01*
G04 #@! TO.C,U2*
X147311000Y-50560000D02*
X144881000Y-50560000D01*
X145551000Y-53630000D02*
X147311000Y-53630000D01*
G04 #@! TO.C,U1*
X167585000Y-55521000D02*
X167585000Y-51921000D01*
X167573478Y-51882522D02*
G75*
G03*
X163135000Y-53721000I-1838478J-1838478D01*
G01*
X167573478Y-55559478D02*
G75*
G02*
X163135000Y-53721000I-1838478J1838478D01*
G01*
G04 #@! TO.C,SW1*
X168347000Y-69795000D02*
X168347000Y-76255000D01*
X172877000Y-69795000D02*
X170277000Y-69795000D01*
X174807000Y-69795000D02*
X174807000Y-76255000D01*
X172877000Y-76255000D02*
X170277000Y-76255000D01*
X174777000Y-69795000D02*
X174807000Y-69795000D01*
X168347000Y-69795000D02*
X168377000Y-69795000D01*
X168347000Y-76255000D02*
X168377000Y-76255000D01*
X174807000Y-76255000D02*
X174777000Y-76255000D01*
G04 #@! TO.C,RV1*
X151796000Y-76732000D02*
X151796000Y-74012000D01*
X151796000Y-69512000D02*
X151796000Y-65142000D01*
X162736000Y-69512000D02*
X162736000Y-65142000D01*
X160916000Y-65142000D02*
X162736000Y-65142000D01*
X151796000Y-76732000D02*
X162736000Y-76732000D01*
X162736000Y-76732000D02*
X162736000Y-74012000D01*
X151796000Y-65142000D02*
X153616000Y-65142000D01*
G04 #@! TO.C,R15*
X163700000Y-67106733D02*
X163700000Y-67449267D01*
X164720000Y-67106733D02*
X164720000Y-67449267D01*
G04 #@! TO.C,R14*
X165606000Y-67113333D02*
X165606000Y-67455867D01*
X166626000Y-67113333D02*
X166626000Y-67455867D01*
G04 #@! TO.C,R13*
X168400000Y-59264733D02*
X168400000Y-59607267D01*
X169420000Y-59264733D02*
X169420000Y-59607267D01*
G04 #@! TO.C,R12*
X157097000Y-40468733D02*
X157097000Y-40811267D01*
X158117000Y-40468733D02*
X158117000Y-40811267D01*
G04 #@! TO.C,R11*
X178564000Y-61639267D02*
X178564000Y-61296733D01*
X177544000Y-61639267D02*
X177544000Y-61296733D01*
G04 #@! TO.C,R10*
X186772733Y-77599000D02*
X187115267Y-77599000D01*
X186772733Y-76579000D02*
X187115267Y-76579000D01*
G04 #@! TO.C,R9*
X190328733Y-77599000D02*
X190671267Y-77599000D01*
X190328733Y-76579000D02*
X190671267Y-76579000D01*
G04 #@! TO.C,R8*
X194227267Y-76579000D02*
X193884733Y-76579000D01*
X194227267Y-77599000D02*
X193884733Y-77599000D01*
G04 #@! TO.C,R7*
X178479267Y-76198000D02*
X178136733Y-76198000D01*
X178479267Y-77218000D02*
X178136733Y-77218000D01*
G04 #@! TO.C,R6*
X143385000Y-52241267D02*
X143385000Y-51898733D01*
X142365000Y-52241267D02*
X142365000Y-51898733D01*
G04 #@! TO.C,R5*
X151763000Y-53803733D02*
X151763000Y-54146267D01*
X152783000Y-53803733D02*
X152783000Y-54146267D01*
G04 #@! TO.C,R4*
X152783000Y-58845267D02*
X152783000Y-58502733D01*
X151763000Y-58845267D02*
X151763000Y-58502733D01*
G04 #@! TO.C,R3*
X150271267Y-48385000D02*
X149928733Y-48385000D01*
X150271267Y-49405000D02*
X149928733Y-49405000D01*
G04 #@! TO.C,R2*
X149604000Y-52025733D02*
X149604000Y-52368267D01*
X150624000Y-52025733D02*
X150624000Y-52368267D01*
G04 #@! TO.C,R1*
X151763000Y-62453733D02*
X151763000Y-62796267D01*
X152783000Y-62453733D02*
X152783000Y-62796267D01*
G04 #@! TO.C,Q2*
X174623000Y-66985000D02*
X173163000Y-66985000D01*
X174623000Y-63825000D02*
X171463000Y-63825000D01*
X174623000Y-63825000D02*
X174623000Y-64755000D01*
X174623000Y-66985000D02*
X174623000Y-66055000D01*
G04 #@! TO.C,Q1*
X162108000Y-52961000D02*
X162108000Y-54421000D01*
X158948000Y-52961000D02*
X158948000Y-56121000D01*
X158948000Y-52961000D02*
X159878000Y-52961000D01*
X162108000Y-52961000D02*
X161178000Y-52961000D01*
G04 #@! TO.C,K1*
X184445000Y-57324000D02*
X184445000Y-54174000D01*
X184445000Y-63174000D02*
X184445000Y-60024000D01*
X179335000Y-59674000D02*
X179335000Y-57674000D01*
X185045000Y-59024000D02*
X185045000Y-58324000D01*
X183845000Y-59024000D02*
X185045000Y-59024000D01*
X183845000Y-58324000D02*
X183845000Y-59024000D01*
X185045000Y-58324000D02*
X183845000Y-58324000D01*
X184645000Y-59024000D02*
X184245000Y-58324000D01*
X202295000Y-67024000D02*
X202295000Y-50324000D01*
X179595000Y-67024000D02*
X202295000Y-67024000D01*
X179595000Y-50324000D02*
X179595000Y-67024000D01*
X202295000Y-50324000D02*
X179595000Y-50324000D01*
G04 #@! TO.C,JP4*
X184464000Y-77911000D02*
X183134000Y-77911000D01*
X184464000Y-76581000D02*
X184464000Y-77911000D01*
X184464000Y-75311000D02*
X181804000Y-75311000D01*
X181804000Y-75311000D02*
X181804000Y-70171000D01*
X184464000Y-75311000D02*
X184464000Y-70171000D01*
X184464000Y-70171000D02*
X181804000Y-70171000D01*
G04 #@! TO.C,JP3*
X186630000Y-70171000D02*
X187960000Y-70171000D01*
X186630000Y-71501000D02*
X186630000Y-70171000D01*
X186630000Y-72771000D02*
X189290000Y-72771000D01*
X189290000Y-72771000D02*
X189290000Y-75371000D01*
X186630000Y-72771000D02*
X186630000Y-75371000D01*
X186630000Y-75371000D02*
X189290000Y-75371000D01*
G04 #@! TO.C,JP2*
X189170000Y-70171000D02*
X190500000Y-70171000D01*
X189170000Y-71501000D02*
X189170000Y-70171000D01*
X189170000Y-72771000D02*
X191830000Y-72771000D01*
X191830000Y-72771000D02*
X191830000Y-75371000D01*
X189170000Y-72771000D02*
X189170000Y-75371000D01*
X189170000Y-75371000D02*
X191830000Y-75371000D01*
G04 #@! TO.C,JP1*
X191710000Y-70171000D02*
X193040000Y-70171000D01*
X191710000Y-71501000D02*
X191710000Y-70171000D01*
X191710000Y-72771000D02*
X194370000Y-72771000D01*
X194370000Y-72771000D02*
X194370000Y-75371000D01*
X191710000Y-72771000D02*
X191710000Y-75371000D01*
X191710000Y-75371000D02*
X194370000Y-75371000D01*
G04 #@! TO.C,J3*
X168971000Y-42880000D02*
X169571000Y-43180000D01*
X168971000Y-43480000D02*
X168971000Y-42880000D01*
X169571000Y-43180000D02*
X168971000Y-43480000D01*
X193691000Y-48090000D02*
X169771000Y-48090000D01*
X193691000Y-41070000D02*
X193691000Y-48090000D01*
X192491000Y-41070000D02*
X193691000Y-41070000D01*
X192491000Y-39370000D02*
X192491000Y-41070000D01*
X170971000Y-39370000D02*
X192491000Y-39370000D01*
X170971000Y-41070000D02*
X170971000Y-39370000D01*
X169771000Y-41070000D02*
X170971000Y-41070000D01*
X169771000Y-48090000D02*
X169771000Y-41070000D01*
G04 #@! TO.C,J2*
X145242000Y-67884000D02*
X145542000Y-67284000D01*
X145842000Y-67884000D02*
X145242000Y-67884000D01*
X145542000Y-67284000D02*
X145842000Y-67884000D01*
X150452000Y-55044000D02*
X150452000Y-67084000D01*
X143432000Y-55044000D02*
X150452000Y-55044000D01*
X143432000Y-56244000D02*
X143432000Y-55044000D01*
X141732000Y-56244000D02*
X143432000Y-56244000D01*
X141732000Y-65884000D02*
X141732000Y-56244000D01*
X143432000Y-65884000D02*
X141732000Y-65884000D01*
X143432000Y-67084000D02*
X143432000Y-65884000D01*
X150452000Y-67084000D02*
X143432000Y-67084000D01*
G04 #@! TO.C,J1*
X158684000Y-42880000D02*
X159284000Y-43180000D01*
X158684000Y-43480000D02*
X158684000Y-42880000D01*
X159284000Y-43180000D02*
X158684000Y-43480000D01*
X167564000Y-48090000D02*
X159484000Y-48090000D01*
X167564000Y-41070000D02*
X167564000Y-48090000D01*
X166364000Y-41070000D02*
X167564000Y-41070000D01*
X166364000Y-39370000D02*
X166364000Y-41070000D01*
X160684000Y-39370000D02*
X166364000Y-39370000D01*
X160684000Y-41070000D02*
X160684000Y-39370000D01*
X159484000Y-41070000D02*
X160684000Y-41070000D01*
X159484000Y-48090000D02*
X159484000Y-41070000D01*
G04 #@! TO.C,F1*
X160370733Y-50167000D02*
X160713267Y-50167000D01*
X160370733Y-49147000D02*
X160713267Y-49147000D01*
G04 #@! TO.C,D2*
X154840000Y-38980000D02*
X154840000Y-41440000D01*
X156310000Y-38980000D02*
X154840000Y-38980000D01*
X156310000Y-41440000D02*
X156310000Y-38980000D01*
G04 #@! TO.C,D1*
X177319000Y-63745000D02*
X177319000Y-66205000D01*
X178789000Y-63745000D02*
X177319000Y-63745000D01*
X178789000Y-66205000D02*
X178789000Y-63745000D01*
G04 #@! TO.C,C6*
X168763733Y-67058000D02*
X169056267Y-67058000D01*
X168763733Y-66038000D02*
X169056267Y-66038000D01*
G04 #@! TO.C,C5*
X172510750Y-57764750D02*
X173298250Y-57764750D01*
X172904500Y-58158500D02*
X172904500Y-57371000D01*
X177097563Y-57131000D02*
X178162000Y-56066563D01*
X172406437Y-57131000D02*
X171342000Y-56066563D01*
X172406437Y-57131000D02*
X173692000Y-57131000D01*
X177097563Y-57131000D02*
X175812000Y-57131000D01*
X178162000Y-56066563D02*
X178162000Y-50311000D01*
X171342000Y-56066563D02*
X171342000Y-50311000D01*
X171342000Y-50311000D02*
X173692000Y-50311000D01*
X178162000Y-50311000D02*
X175812000Y-50311000D01*
G04 #@! TO.C,C4*
X178161733Y-70868000D02*
X178454267Y-70868000D01*
X178161733Y-69848000D02*
X178454267Y-69848000D01*
G04 #@! TO.C,C3*
X146069267Y-48385000D02*
X145776733Y-48385000D01*
X146069267Y-49405000D02*
X145776733Y-49405000D01*
G04 #@! TO.C,C2*
X168400000Y-55479733D02*
X168400000Y-55772267D01*
X169420000Y-55479733D02*
X169420000Y-55772267D01*
G04 #@! TO.C,C1*
X169420000Y-52089267D02*
X169420000Y-51796733D01*
X168400000Y-52089267D02*
X168400000Y-51796733D01*
G04 #@! TO.C,SW1*
D14*
X176172761Y-75001190D02*
X176220380Y-74858333D01*
X176220380Y-74620238D01*
X176172761Y-74525000D01*
X176125142Y-74477380D01*
X176029904Y-74429761D01*
X175934666Y-74429761D01*
X175839428Y-74477380D01*
X175791809Y-74525000D01*
X175744190Y-74620238D01*
X175696571Y-74810714D01*
X175648952Y-74905952D01*
X175601333Y-74953571D01*
X175506095Y-75001190D01*
X175410857Y-75001190D01*
X175315619Y-74953571D01*
X175268000Y-74905952D01*
X175220380Y-74810714D01*
X175220380Y-74572619D01*
X175268000Y-74429761D01*
X175220380Y-74144047D02*
X175220380Y-73572619D01*
X176220380Y-73858333D02*
X175220380Y-73858333D01*
X175934666Y-73286904D02*
X175934666Y-72810714D01*
X176220380Y-73382142D02*
X175220380Y-73048809D01*
X176220380Y-72715476D01*
X176220380Y-71810714D02*
X175744190Y-72144047D01*
X176220380Y-72382142D02*
X175220380Y-72382142D01*
X175220380Y-72001190D01*
X175268000Y-71905952D01*
X175315619Y-71858333D01*
X175410857Y-71810714D01*
X175553714Y-71810714D01*
X175648952Y-71858333D01*
X175696571Y-71905952D01*
X175744190Y-72001190D01*
X175744190Y-72382142D01*
X175220380Y-71525000D02*
X175220380Y-70953571D01*
X176220380Y-71239285D02*
X175220380Y-71239285D01*
G04 #@! TO.C,RV1*
X155035523Y-78128761D02*
X155178380Y-78176380D01*
X155416476Y-78176380D01*
X155511714Y-78128761D01*
X155559333Y-78081142D01*
X155606952Y-77985904D01*
X155606952Y-77890666D01*
X155559333Y-77795428D01*
X155511714Y-77747809D01*
X155416476Y-77700190D01*
X155226000Y-77652571D01*
X155130761Y-77604952D01*
X155083142Y-77557333D01*
X155035523Y-77462095D01*
X155035523Y-77366857D01*
X155083142Y-77271619D01*
X155130761Y-77224000D01*
X155226000Y-77176380D01*
X155464095Y-77176380D01*
X155606952Y-77224000D01*
X156035523Y-78176380D02*
X156035523Y-77176380D01*
X156416476Y-77176380D01*
X156511714Y-77224000D01*
X156559333Y-77271619D01*
X156606952Y-77366857D01*
X156606952Y-77509714D01*
X156559333Y-77604952D01*
X156511714Y-77652571D01*
X156416476Y-77700190D01*
X156035523Y-77700190D01*
X157035523Y-77652571D02*
X157368857Y-77652571D01*
X157511714Y-78176380D02*
X157035523Y-78176380D01*
X157035523Y-77176380D01*
X157511714Y-77176380D01*
X157940285Y-77652571D02*
X158273619Y-77652571D01*
X158416476Y-78176380D02*
X157940285Y-78176380D01*
X157940285Y-77176380D01*
X158416476Y-77176380D01*
X158845047Y-78176380D02*
X158845047Y-77176380D01*
X159083142Y-77176380D01*
X159226000Y-77224000D01*
X159321238Y-77319238D01*
X159368857Y-77414476D01*
X159416476Y-77604952D01*
X159416476Y-77747809D01*
X159368857Y-77938285D01*
X159321238Y-78033523D01*
X159226000Y-78128761D01*
X159083142Y-78176380D01*
X158845047Y-78176380D01*
D10*
X154425952Y-62429571D02*
X155200047Y-62429571D01*
X154813000Y-62816619D02*
X154813000Y-62042523D01*
X159378952Y-62429571D02*
X160153047Y-62429571D01*
X157008285Y-62096952D02*
X157298571Y-62871047D01*
X157588857Y-62096952D01*
G04 #@! TO.C,JP4*
D14*
X181086380Y-68413380D02*
X181657809Y-68413380D01*
X181372095Y-69413380D02*
X181372095Y-68413380D01*
X181991142Y-69413380D02*
X181991142Y-68413380D01*
X182467333Y-69413380D02*
X182467333Y-68413380D01*
X182800666Y-69127666D01*
X183134000Y-68413380D01*
X183134000Y-69413380D01*
X183610190Y-68889571D02*
X183943523Y-68889571D01*
X184086380Y-69413380D02*
X183610190Y-69413380D01*
X183610190Y-68413380D01*
X184086380Y-68413380D01*
X185086380Y-69413380D02*
X184753047Y-68937190D01*
X184514952Y-69413380D02*
X184514952Y-68413380D01*
X184895904Y-68413380D01*
X184991142Y-68461000D01*
X185038761Y-68508619D01*
X185086380Y-68603857D01*
X185086380Y-68746714D01*
X185038761Y-68841952D01*
X184991142Y-68889571D01*
X184895904Y-68937190D01*
X184514952Y-68937190D01*
G04 #@! TO.C,JP3*
X188412380Y-69246666D02*
X188412380Y-69818095D01*
X188412380Y-69532380D02*
X187412380Y-69532380D01*
X187555238Y-69627619D01*
X187650476Y-69722857D01*
X187698095Y-69818095D01*
X187507619Y-68865714D02*
X187460000Y-68818095D01*
X187412380Y-68722857D01*
X187412380Y-68484761D01*
X187460000Y-68389523D01*
X187507619Y-68341904D01*
X187602857Y-68294285D01*
X187698095Y-68294285D01*
X187840952Y-68341904D01*
X188412380Y-68913333D01*
X188412380Y-68294285D01*
X187412380Y-67675238D02*
X187412380Y-67580000D01*
X187460000Y-67484761D01*
X187507619Y-67437142D01*
X187602857Y-67389523D01*
X187793333Y-67341904D01*
X188031428Y-67341904D01*
X188221904Y-67389523D01*
X188317142Y-67437142D01*
X188364761Y-67484761D01*
X188412380Y-67580000D01*
X188412380Y-67675238D01*
X188364761Y-67770476D01*
X188317142Y-67818095D01*
X188221904Y-67865714D01*
X188031428Y-67913333D01*
X187793333Y-67913333D01*
X187602857Y-67865714D01*
X187507619Y-67818095D01*
X187460000Y-67770476D01*
X187412380Y-67675238D01*
G04 #@! TO.C,JP2*
X189825380Y-69373714D02*
X189825380Y-69564190D01*
X189873000Y-69659428D01*
X189920619Y-69707047D01*
X190063476Y-69802285D01*
X190253952Y-69849904D01*
X190634904Y-69849904D01*
X190730142Y-69802285D01*
X190777761Y-69754666D01*
X190825380Y-69659428D01*
X190825380Y-69468952D01*
X190777761Y-69373714D01*
X190730142Y-69326095D01*
X190634904Y-69278476D01*
X190396809Y-69278476D01*
X190301571Y-69326095D01*
X190253952Y-69373714D01*
X190206333Y-69468952D01*
X190206333Y-69659428D01*
X190253952Y-69754666D01*
X190301571Y-69802285D01*
X190396809Y-69849904D01*
X189825380Y-68659428D02*
X189825380Y-68564190D01*
X189873000Y-68468952D01*
X189920619Y-68421333D01*
X190015857Y-68373714D01*
X190206333Y-68326095D01*
X190444428Y-68326095D01*
X190634904Y-68373714D01*
X190730142Y-68421333D01*
X190777761Y-68468952D01*
X190825380Y-68564190D01*
X190825380Y-68659428D01*
X190777761Y-68754666D01*
X190730142Y-68802285D01*
X190634904Y-68849904D01*
X190444428Y-68897523D01*
X190206333Y-68897523D01*
X190015857Y-68849904D01*
X189920619Y-68802285D01*
X189873000Y-68754666D01*
X189825380Y-68659428D01*
G04 #@! TO.C,JP1*
X192492380Y-69770523D02*
X192492380Y-69151476D01*
X192873333Y-69484809D01*
X192873333Y-69341952D01*
X192920952Y-69246714D01*
X192968571Y-69199095D01*
X193063809Y-69151476D01*
X193301904Y-69151476D01*
X193397142Y-69199095D01*
X193444761Y-69246714D01*
X193492380Y-69341952D01*
X193492380Y-69627666D01*
X193444761Y-69722904D01*
X193397142Y-69770523D01*
X192492380Y-68532428D02*
X192492380Y-68437190D01*
X192540000Y-68341952D01*
X192587619Y-68294333D01*
X192682857Y-68246714D01*
X192873333Y-68199095D01*
X193111428Y-68199095D01*
X193301904Y-68246714D01*
X193397142Y-68294333D01*
X193444761Y-68341952D01*
X193492380Y-68437190D01*
X193492380Y-68532428D01*
X193444761Y-68627666D01*
X193397142Y-68675285D01*
X193301904Y-68722904D01*
X193111428Y-68770523D01*
X192873333Y-68770523D01*
X192682857Y-68722904D01*
X192587619Y-68675285D01*
X192540000Y-68627666D01*
X192492380Y-68532428D01*
G04 #@! TO.C,J3*
D10*
X171202047Y-49735619D02*
X170621476Y-49735619D01*
X170911761Y-49735619D02*
X170911761Y-48719619D01*
X170815000Y-48864761D01*
X170718238Y-48961523D01*
X170621476Y-49009904D01*
X171589095Y-48816380D02*
X171637476Y-48768000D01*
X171734238Y-48719619D01*
X171976142Y-48719619D01*
X172072904Y-48768000D01*
X172121285Y-48816380D01*
X172169666Y-48913142D01*
X172169666Y-49009904D01*
X172121285Y-49155047D01*
X171540714Y-49735619D01*
X172169666Y-49735619D01*
X172459952Y-48719619D02*
X172798619Y-49735619D01*
X173137285Y-48719619D01*
X176644904Y-48768000D02*
X176548142Y-48719619D01*
X176403000Y-48719619D01*
X176257857Y-48768000D01*
X176161095Y-48864761D01*
X176112714Y-48961523D01*
X176064333Y-49155047D01*
X176064333Y-49300190D01*
X176112714Y-49493714D01*
X176161095Y-49590476D01*
X176257857Y-49687238D01*
X176403000Y-49735619D01*
X176499761Y-49735619D01*
X176644904Y-49687238D01*
X176693285Y-49638857D01*
X176693285Y-49300190D01*
X176499761Y-49300190D01*
X177128714Y-49735619D02*
X177128714Y-48719619D01*
X177709285Y-49735619D01*
X177709285Y-48719619D01*
X178193095Y-49735619D02*
X178193095Y-48719619D01*
X178435000Y-48719619D01*
X178580142Y-48768000D01*
X178676904Y-48864761D01*
X178725285Y-48961523D01*
X178773666Y-49155047D01*
X178773666Y-49300190D01*
X178725285Y-49493714D01*
X178676904Y-49590476D01*
X178580142Y-49687238D01*
X178435000Y-49735619D01*
X178193095Y-49735619D01*
X187058904Y-48768000D02*
X186962142Y-48719619D01*
X186817000Y-48719619D01*
X186671857Y-48768000D01*
X186575095Y-48864761D01*
X186526714Y-48961523D01*
X186478333Y-49155047D01*
X186478333Y-49300190D01*
X186526714Y-49493714D01*
X186575095Y-49590476D01*
X186671857Y-49687238D01*
X186817000Y-49735619D01*
X186913761Y-49735619D01*
X187058904Y-49687238D01*
X187107285Y-49638857D01*
X187107285Y-49300190D01*
X186913761Y-49300190D01*
X187542714Y-49735619D02*
X187542714Y-48719619D01*
X188123285Y-49735619D01*
X188123285Y-48719619D01*
X188607095Y-49735619D02*
X188607095Y-48719619D01*
X188849000Y-48719619D01*
X188994142Y-48768000D01*
X189090904Y-48864761D01*
X189139285Y-48961523D01*
X189187666Y-49155047D01*
X189187666Y-49300190D01*
X189139285Y-49493714D01*
X189090904Y-49590476D01*
X188994142Y-49687238D01*
X188849000Y-49735619D01*
X188607095Y-49735619D01*
X179674761Y-49735619D02*
X179674761Y-48719619D01*
X180061809Y-48719619D01*
X180158571Y-48768000D01*
X180206952Y-48816380D01*
X180255333Y-48913142D01*
X180255333Y-49058285D01*
X180206952Y-49155047D01*
X180158571Y-49203428D01*
X180061809Y-49251809D01*
X179674761Y-49251809D01*
X180594000Y-48719619D02*
X180835904Y-49735619D01*
X181029428Y-49009904D01*
X181222952Y-49735619D01*
X181464857Y-48719619D01*
X181851904Y-49735619D02*
X181851904Y-48719619D01*
X182190571Y-49445333D01*
X182529238Y-48719619D01*
X182529238Y-49735619D01*
G04 #@! TO.C,J2*
D14*
X140993761Y-63150476D02*
X141041380Y-63007619D01*
X141041380Y-62769523D01*
X140993761Y-62674285D01*
X140946142Y-62626666D01*
X140850904Y-62579047D01*
X140755666Y-62579047D01*
X140660428Y-62626666D01*
X140612809Y-62674285D01*
X140565190Y-62769523D01*
X140517571Y-62960000D01*
X140469952Y-63055238D01*
X140422333Y-63102857D01*
X140327095Y-63150476D01*
X140231857Y-63150476D01*
X140136619Y-63102857D01*
X140089000Y-63055238D01*
X140041380Y-62960000D01*
X140041380Y-62721904D01*
X140089000Y-62579047D01*
X141041380Y-62150476D02*
X140041380Y-62150476D01*
X140041380Y-61769523D01*
X140089000Y-61674285D01*
X140136619Y-61626666D01*
X140231857Y-61579047D01*
X140374714Y-61579047D01*
X140469952Y-61626666D01*
X140517571Y-61674285D01*
X140565190Y-61769523D01*
X140565190Y-62150476D01*
X140517571Y-61150476D02*
X140517571Y-60817142D01*
X141041380Y-60674285D02*
X141041380Y-61150476D01*
X140041380Y-61150476D01*
X140041380Y-60674285D01*
X140517571Y-60245714D02*
X140517571Y-59912380D01*
X141041380Y-59769523D02*
X141041380Y-60245714D01*
X140041380Y-60245714D01*
X140041380Y-59769523D01*
X141041380Y-59340952D02*
X140041380Y-59340952D01*
X140041380Y-59102857D01*
X140089000Y-58960000D01*
X140184238Y-58864761D01*
X140279476Y-58817142D01*
X140469952Y-58769523D01*
X140612809Y-58769523D01*
X140803285Y-58817142D01*
X140898523Y-58864761D01*
X140993761Y-58960000D01*
X141041380Y-59102857D01*
X141041380Y-59340952D01*
D10*
X151075571Y-65411047D02*
X151075571Y-64636952D01*
X151462619Y-65024000D02*
X150688523Y-65024000D01*
X150948571Y-57537047D02*
X150948571Y-56762952D01*
X151390047Y-60742285D02*
X150615952Y-61032571D01*
X151390047Y-61322857D01*
G04 #@! TO.C,J1*
X162680952Y-48967571D02*
X163455047Y-48967571D01*
X163068000Y-49354619D02*
X163068000Y-48580523D01*
X165347952Y-48967571D02*
X166122047Y-48967571D01*
G04 #@! TD*
%LPC*%
D15*
G04 #@! TO.C,REF\u002A\u002A*
X144399000Y-43561000D03*
G04 #@! TD*
G04 #@! TO.C,REF\u002A\u002A*
X199136000Y-73533000D03*
G04 #@! TD*
G04 #@! TO.C,REF\u002A\u002A*
X199136000Y-43561000D03*
G04 #@! TD*
G04 #@! TO.C,REF\u002A\u002A*
X144399000Y-73533000D03*
G04 #@! TD*
D16*
G04 #@! TO.C,U5*
X169205000Y-62525000D03*
X169205000Y-63175000D03*
X169205000Y-63825000D03*
X169205000Y-64475000D03*
X164805000Y-64475000D03*
X164805000Y-63825000D03*
X164805000Y-63175000D03*
X164805000Y-62525000D03*
G04 #@! TD*
D17*
G04 #@! TO.C,U4*
X175193000Y-60818000D03*
X175193000Y-62118000D03*
X172533000Y-62118000D03*
X172533000Y-61468000D03*
X172533000Y-60818000D03*
G04 #@! TD*
D18*
G04 #@! TO.C,U3*
X179408000Y-73533000D03*
X179408000Y-72583000D03*
X179408000Y-74483000D03*
X177208000Y-74483000D03*
X177208000Y-73533000D03*
X177208000Y-72583000D03*
G04 #@! TD*
D19*
G04 #@! TO.C,U2*
X147741000Y-51120000D03*
X147741000Y-52070000D03*
X147741000Y-53020000D03*
X145121000Y-53020000D03*
X145121000Y-52070000D03*
X145121000Y-51120000D03*
G04 #@! TD*
D20*
G04 #@! TO.C,U1*
X165735000Y-54991000D03*
D21*
X165735000Y-52451000D03*
X165735000Y-53721000D03*
G04 #@! TD*
D22*
G04 #@! TO.C,SW1*
X169327000Y-77005000D03*
X173827000Y-77005000D03*
X173827000Y-69045000D03*
X169327000Y-69045000D03*
G04 #@! TD*
D23*
G04 #@! TO.C,RV1*
X159766000Y-64262000D03*
D24*
X157266000Y-64262000D03*
X154766000Y-64262000D03*
D25*
X162016000Y-71762000D03*
X152516000Y-71762000D03*
G04 #@! TD*
G04 #@! TO.C,R15*
G36*
G01*
X163972500Y-67628000D02*
X164447500Y-67628000D01*
G75*
G02*
X164685000Y-67865500I0J-237500D01*
G01*
X164685000Y-68440500D01*
G75*
G02*
X164447500Y-68678000I-237500J0D01*
G01*
X163972500Y-68678000D01*
G75*
G02*
X163735000Y-68440500I0J237500D01*
G01*
X163735000Y-67865500D01*
G75*
G02*
X163972500Y-67628000I237500J0D01*
G01*
G37*
G36*
G01*
X163972500Y-65878000D02*
X164447500Y-65878000D01*
G75*
G02*
X164685000Y-66115500I0J-237500D01*
G01*
X164685000Y-66690500D01*
G75*
G02*
X164447500Y-66928000I-237500J0D01*
G01*
X163972500Y-66928000D01*
G75*
G02*
X163735000Y-66690500I0J237500D01*
G01*
X163735000Y-66115500D01*
G75*
G02*
X163972500Y-65878000I237500J0D01*
G01*
G37*
G04 #@! TD*
G04 #@! TO.C,R14*
G36*
G01*
X165878500Y-67634600D02*
X166353500Y-67634600D01*
G75*
G02*
X166591000Y-67872100I0J-237500D01*
G01*
X166591000Y-68447100D01*
G75*
G02*
X166353500Y-68684600I-237500J0D01*
G01*
X165878500Y-68684600D01*
G75*
G02*
X165641000Y-68447100I0J237500D01*
G01*
X165641000Y-67872100D01*
G75*
G02*
X165878500Y-67634600I237500J0D01*
G01*
G37*
G36*
G01*
X165878500Y-65884600D02*
X166353500Y-65884600D01*
G75*
G02*
X166591000Y-66122100I0J-237500D01*
G01*
X166591000Y-66697100D01*
G75*
G02*
X166353500Y-66934600I-237500J0D01*
G01*
X165878500Y-66934600D01*
G75*
G02*
X165641000Y-66697100I0J237500D01*
G01*
X165641000Y-66122100D01*
G75*
G02*
X165878500Y-65884600I237500J0D01*
G01*
G37*
G04 #@! TD*
G04 #@! TO.C,R13*
G36*
G01*
X168672500Y-59786000D02*
X169147500Y-59786000D01*
G75*
G02*
X169385000Y-60023500I0J-237500D01*
G01*
X169385000Y-60598500D01*
G75*
G02*
X169147500Y-60836000I-237500J0D01*
G01*
X168672500Y-60836000D01*
G75*
G02*
X168435000Y-60598500I0J237500D01*
G01*
X168435000Y-60023500D01*
G75*
G02*
X168672500Y-59786000I237500J0D01*
G01*
G37*
G36*
G01*
X168672500Y-58036000D02*
X169147500Y-58036000D01*
G75*
G02*
X169385000Y-58273500I0J-237500D01*
G01*
X169385000Y-58848500D01*
G75*
G02*
X169147500Y-59086000I-237500J0D01*
G01*
X168672500Y-59086000D01*
G75*
G02*
X168435000Y-58848500I0J237500D01*
G01*
X168435000Y-58273500D01*
G75*
G02*
X168672500Y-58036000I237500J0D01*
G01*
G37*
G04 #@! TD*
G04 #@! TO.C,R12*
G36*
G01*
X157369500Y-40990000D02*
X157844500Y-40990000D01*
G75*
G02*
X158082000Y-41227500I0J-237500D01*
G01*
X158082000Y-41802500D01*
G75*
G02*
X157844500Y-42040000I-237500J0D01*
G01*
X157369500Y-42040000D01*
G75*
G02*
X157132000Y-41802500I0J237500D01*
G01*
X157132000Y-41227500D01*
G75*
G02*
X157369500Y-40990000I237500J0D01*
G01*
G37*
G36*
G01*
X157369500Y-39240000D02*
X157844500Y-39240000D01*
G75*
G02*
X158082000Y-39477500I0J-237500D01*
G01*
X158082000Y-40052500D01*
G75*
G02*
X157844500Y-40290000I-237500J0D01*
G01*
X157369500Y-40290000D01*
G75*
G02*
X157132000Y-40052500I0J237500D01*
G01*
X157132000Y-39477500D01*
G75*
G02*
X157369500Y-39240000I237500J0D01*
G01*
G37*
G04 #@! TD*
G04 #@! TO.C,R11*
G36*
G01*
X178291500Y-61118000D02*
X177816500Y-61118000D01*
G75*
G02*
X177579000Y-60880500I0J237500D01*
G01*
X177579000Y-60305500D01*
G75*
G02*
X177816500Y-60068000I237500J0D01*
G01*
X178291500Y-60068000D01*
G75*
G02*
X178529000Y-60305500I0J-237500D01*
G01*
X178529000Y-60880500D01*
G75*
G02*
X178291500Y-61118000I-237500J0D01*
G01*
G37*
G36*
G01*
X178291500Y-62868000D02*
X177816500Y-62868000D01*
G75*
G02*
X177579000Y-62630500I0J237500D01*
G01*
X177579000Y-62055500D01*
G75*
G02*
X177816500Y-61818000I237500J0D01*
G01*
X178291500Y-61818000D01*
G75*
G02*
X178529000Y-62055500I0J-237500D01*
G01*
X178529000Y-62630500D01*
G75*
G02*
X178291500Y-62868000I-237500J0D01*
G01*
G37*
G04 #@! TD*
G04 #@! TO.C,R10*
G36*
G01*
X187294000Y-77326500D02*
X187294000Y-76851500D01*
G75*
G02*
X187531500Y-76614000I237500J0D01*
G01*
X188106500Y-76614000D01*
G75*
G02*
X188344000Y-76851500I0J-237500D01*
G01*
X188344000Y-77326500D01*
G75*
G02*
X188106500Y-77564000I-237500J0D01*
G01*
X187531500Y-77564000D01*
G75*
G02*
X187294000Y-77326500I0J237500D01*
G01*
G37*
G36*
G01*
X185544000Y-77326500D02*
X185544000Y-76851500D01*
G75*
G02*
X185781500Y-76614000I237500J0D01*
G01*
X186356500Y-76614000D01*
G75*
G02*
X186594000Y-76851500I0J-237500D01*
G01*
X186594000Y-77326500D01*
G75*
G02*
X186356500Y-77564000I-237500J0D01*
G01*
X185781500Y-77564000D01*
G75*
G02*
X185544000Y-77326500I0J237500D01*
G01*
G37*
G04 #@! TD*
G04 #@! TO.C,R9*
G36*
G01*
X190850000Y-77326500D02*
X190850000Y-76851500D01*
G75*
G02*
X191087500Y-76614000I237500J0D01*
G01*
X191662500Y-76614000D01*
G75*
G02*
X191900000Y-76851500I0J-237500D01*
G01*
X191900000Y-77326500D01*
G75*
G02*
X191662500Y-77564000I-237500J0D01*
G01*
X191087500Y-77564000D01*
G75*
G02*
X190850000Y-77326500I0J237500D01*
G01*
G37*
G36*
G01*
X189100000Y-77326500D02*
X189100000Y-76851500D01*
G75*
G02*
X189337500Y-76614000I237500J0D01*
G01*
X189912500Y-76614000D01*
G75*
G02*
X190150000Y-76851500I0J-237500D01*
G01*
X190150000Y-77326500D01*
G75*
G02*
X189912500Y-77564000I-237500J0D01*
G01*
X189337500Y-77564000D01*
G75*
G02*
X189100000Y-77326500I0J237500D01*
G01*
G37*
G04 #@! TD*
G04 #@! TO.C,R8*
G36*
G01*
X193706000Y-76851500D02*
X193706000Y-77326500D01*
G75*
G02*
X193468500Y-77564000I-237500J0D01*
G01*
X192893500Y-77564000D01*
G75*
G02*
X192656000Y-77326500I0J237500D01*
G01*
X192656000Y-76851500D01*
G75*
G02*
X192893500Y-76614000I237500J0D01*
G01*
X193468500Y-76614000D01*
G75*
G02*
X193706000Y-76851500I0J-237500D01*
G01*
G37*
G36*
G01*
X195456000Y-76851500D02*
X195456000Y-77326500D01*
G75*
G02*
X195218500Y-77564000I-237500J0D01*
G01*
X194643500Y-77564000D01*
G75*
G02*
X194406000Y-77326500I0J237500D01*
G01*
X194406000Y-76851500D01*
G75*
G02*
X194643500Y-76614000I237500J0D01*
G01*
X195218500Y-76614000D01*
G75*
G02*
X195456000Y-76851500I0J-237500D01*
G01*
G37*
G04 #@! TD*
G04 #@! TO.C,R7*
G36*
G01*
X177958000Y-76470500D02*
X177958000Y-76945500D01*
G75*
G02*
X177720500Y-77183000I-237500J0D01*
G01*
X177145500Y-77183000D01*
G75*
G02*
X176908000Y-76945500I0J237500D01*
G01*
X176908000Y-76470500D01*
G75*
G02*
X177145500Y-76233000I237500J0D01*
G01*
X177720500Y-76233000D01*
G75*
G02*
X177958000Y-76470500I0J-237500D01*
G01*
G37*
G36*
G01*
X179708000Y-76470500D02*
X179708000Y-76945500D01*
G75*
G02*
X179470500Y-77183000I-237500J0D01*
G01*
X178895500Y-77183000D01*
G75*
G02*
X178658000Y-76945500I0J237500D01*
G01*
X178658000Y-76470500D01*
G75*
G02*
X178895500Y-76233000I237500J0D01*
G01*
X179470500Y-76233000D01*
G75*
G02*
X179708000Y-76470500I0J-237500D01*
G01*
G37*
G04 #@! TD*
G04 #@! TO.C,R6*
G36*
G01*
X143112500Y-51720000D02*
X142637500Y-51720000D01*
G75*
G02*
X142400000Y-51482500I0J237500D01*
G01*
X142400000Y-50907500D01*
G75*
G02*
X142637500Y-50670000I237500J0D01*
G01*
X143112500Y-50670000D01*
G75*
G02*
X143350000Y-50907500I0J-237500D01*
G01*
X143350000Y-51482500D01*
G75*
G02*
X143112500Y-51720000I-237500J0D01*
G01*
G37*
G36*
G01*
X143112500Y-53470000D02*
X142637500Y-53470000D01*
G75*
G02*
X142400000Y-53232500I0J237500D01*
G01*
X142400000Y-52657500D01*
G75*
G02*
X142637500Y-52420000I237500J0D01*
G01*
X143112500Y-52420000D01*
G75*
G02*
X143350000Y-52657500I0J-237500D01*
G01*
X143350000Y-53232500D01*
G75*
G02*
X143112500Y-53470000I-237500J0D01*
G01*
G37*
G04 #@! TD*
G04 #@! TO.C,R5*
G36*
G01*
X152035500Y-54325000D02*
X152510500Y-54325000D01*
G75*
G02*
X152748000Y-54562500I0J-237500D01*
G01*
X152748000Y-55137500D01*
G75*
G02*
X152510500Y-55375000I-237500J0D01*
G01*
X152035500Y-55375000D01*
G75*
G02*
X151798000Y-55137500I0J237500D01*
G01*
X151798000Y-54562500D01*
G75*
G02*
X152035500Y-54325000I237500J0D01*
G01*
G37*
G36*
G01*
X152035500Y-52575000D02*
X152510500Y-52575000D01*
G75*
G02*
X152748000Y-52812500I0J-237500D01*
G01*
X152748000Y-53387500D01*
G75*
G02*
X152510500Y-53625000I-237500J0D01*
G01*
X152035500Y-53625000D01*
G75*
G02*
X151798000Y-53387500I0J237500D01*
G01*
X151798000Y-52812500D01*
G75*
G02*
X152035500Y-52575000I237500J0D01*
G01*
G37*
G04 #@! TD*
G04 #@! TO.C,R4*
G36*
G01*
X152510500Y-58324000D02*
X152035500Y-58324000D01*
G75*
G02*
X151798000Y-58086500I0J237500D01*
G01*
X151798000Y-57511500D01*
G75*
G02*
X152035500Y-57274000I237500J0D01*
G01*
X152510500Y-57274000D01*
G75*
G02*
X152748000Y-57511500I0J-237500D01*
G01*
X152748000Y-58086500D01*
G75*
G02*
X152510500Y-58324000I-237500J0D01*
G01*
G37*
G36*
G01*
X152510500Y-60074000D02*
X152035500Y-60074000D01*
G75*
G02*
X151798000Y-59836500I0J237500D01*
G01*
X151798000Y-59261500D01*
G75*
G02*
X152035500Y-59024000I237500J0D01*
G01*
X152510500Y-59024000D01*
G75*
G02*
X152748000Y-59261500I0J-237500D01*
G01*
X152748000Y-59836500D01*
G75*
G02*
X152510500Y-60074000I-237500J0D01*
G01*
G37*
G04 #@! TD*
G04 #@! TO.C,R3*
G36*
G01*
X149750000Y-48657500D02*
X149750000Y-49132500D01*
G75*
G02*
X149512500Y-49370000I-237500J0D01*
G01*
X148937500Y-49370000D01*
G75*
G02*
X148700000Y-49132500I0J237500D01*
G01*
X148700000Y-48657500D01*
G75*
G02*
X148937500Y-48420000I237500J0D01*
G01*
X149512500Y-48420000D01*
G75*
G02*
X149750000Y-48657500I0J-237500D01*
G01*
G37*
G36*
G01*
X151500000Y-48657500D02*
X151500000Y-49132500D01*
G75*
G02*
X151262500Y-49370000I-237500J0D01*
G01*
X150687500Y-49370000D01*
G75*
G02*
X150450000Y-49132500I0J237500D01*
G01*
X150450000Y-48657500D01*
G75*
G02*
X150687500Y-48420000I237500J0D01*
G01*
X151262500Y-48420000D01*
G75*
G02*
X151500000Y-48657500I0J-237500D01*
G01*
G37*
G04 #@! TD*
G04 #@! TO.C,R2*
G36*
G01*
X149876500Y-52547000D02*
X150351500Y-52547000D01*
G75*
G02*
X150589000Y-52784500I0J-237500D01*
G01*
X150589000Y-53359500D01*
G75*
G02*
X150351500Y-53597000I-237500J0D01*
G01*
X149876500Y-53597000D01*
G75*
G02*
X149639000Y-53359500I0J237500D01*
G01*
X149639000Y-52784500D01*
G75*
G02*
X149876500Y-52547000I237500J0D01*
G01*
G37*
G36*
G01*
X149876500Y-50797000D02*
X150351500Y-50797000D01*
G75*
G02*
X150589000Y-51034500I0J-237500D01*
G01*
X150589000Y-51609500D01*
G75*
G02*
X150351500Y-51847000I-237500J0D01*
G01*
X149876500Y-51847000D01*
G75*
G02*
X149639000Y-51609500I0J237500D01*
G01*
X149639000Y-51034500D01*
G75*
G02*
X149876500Y-50797000I237500J0D01*
G01*
G37*
G04 #@! TD*
G04 #@! TO.C,R1*
G36*
G01*
X152035500Y-62975000D02*
X152510500Y-62975000D01*
G75*
G02*
X152748000Y-63212500I0J-237500D01*
G01*
X152748000Y-63787500D01*
G75*
G02*
X152510500Y-64025000I-237500J0D01*
G01*
X152035500Y-64025000D01*
G75*
G02*
X151798000Y-63787500I0J237500D01*
G01*
X151798000Y-63212500D01*
G75*
G02*
X152035500Y-62975000I237500J0D01*
G01*
G37*
G36*
G01*
X152035500Y-61225000D02*
X152510500Y-61225000D01*
G75*
G02*
X152748000Y-61462500I0J-237500D01*
G01*
X152748000Y-62037500D01*
G75*
G02*
X152510500Y-62275000I-237500J0D01*
G01*
X152035500Y-62275000D01*
G75*
G02*
X151798000Y-62037500I0J237500D01*
G01*
X151798000Y-61462500D01*
G75*
G02*
X152035500Y-61225000I237500J0D01*
G01*
G37*
G04 #@! TD*
D26*
G04 #@! TO.C,Q2*
X175363000Y-65405000D03*
X172363000Y-66355000D03*
X172363000Y-64455000D03*
G04 #@! TD*
D27*
G04 #@! TO.C,Q1*
X160528000Y-52221000D03*
X161478000Y-55221000D03*
X159578000Y-55221000D03*
G04 #@! TD*
D28*
G04 #@! TO.C,K1*
X184245000Y-52674000D03*
X196445000Y-52674000D03*
X196445000Y-64674000D03*
X184245000Y-64674000D03*
D29*
X182245000Y-58674000D03*
G04 #@! TD*
D30*
G04 #@! TO.C,JP4*
X183134000Y-71501000D03*
X183134000Y-74041000D03*
D31*
X183134000Y-76581000D03*
G04 #@! TD*
D30*
G04 #@! TO.C,JP3*
X187960000Y-74041000D03*
D31*
X187960000Y-71501000D03*
G04 #@! TD*
D30*
G04 #@! TO.C,JP2*
X190500000Y-74041000D03*
D31*
X190500000Y-71501000D03*
G04 #@! TD*
D30*
G04 #@! TO.C,JP1*
X193040000Y-74041000D03*
D31*
X193040000Y-71501000D03*
G04 #@! TD*
D32*
G04 #@! TO.C,J3*
X191631000Y-43180000D03*
X187671000Y-43180000D03*
X183711000Y-43180000D03*
X179751000Y-43180000D03*
X175791000Y-43180000D03*
G36*
G01*
X170481000Y-44279999D02*
X170481000Y-42080001D01*
G75*
G02*
X170731001Y-41830000I250001J0D01*
G01*
X172930999Y-41830000D01*
G75*
G02*
X173181000Y-42080001I0J-250001D01*
G01*
X173181000Y-44279999D01*
G75*
G02*
X172930999Y-44530000I-250001J0D01*
G01*
X170731001Y-44530000D01*
G75*
G02*
X170481000Y-44279999I0J250001D01*
G01*
G37*
G04 #@! TD*
G04 #@! TO.C,J2*
X145542000Y-57104000D03*
X145542000Y-61064000D03*
G36*
G01*
X146641999Y-66374000D02*
X144442001Y-66374000D01*
G75*
G02*
X144192000Y-66123999I0J250001D01*
G01*
X144192000Y-63924001D01*
G75*
G02*
X144442001Y-63674000I250001J0D01*
G01*
X146641999Y-63674000D01*
G75*
G02*
X146892000Y-63924001I0J-250001D01*
G01*
X146892000Y-66123999D01*
G75*
G02*
X146641999Y-66374000I-250001J0D01*
G01*
G37*
G04 #@! TD*
G04 #@! TO.C,J1*
X165504000Y-43180000D03*
G36*
G01*
X160194000Y-44279999D02*
X160194000Y-42080001D01*
G75*
G02*
X160444001Y-41830000I250001J0D01*
G01*
X162643999Y-41830000D01*
G75*
G02*
X162894000Y-42080001I0J-250001D01*
G01*
X162894000Y-44279999D01*
G75*
G02*
X162643999Y-44530000I-250001J0D01*
G01*
X160444001Y-44530000D01*
G75*
G02*
X160194000Y-44279999I0J250001D01*
G01*
G37*
G04 #@! TD*
G04 #@! TO.C,F1*
G36*
G01*
X160892000Y-49894500D02*
X160892000Y-49419500D01*
G75*
G02*
X161129500Y-49182000I237500J0D01*
G01*
X161704500Y-49182000D01*
G75*
G02*
X161942000Y-49419500I0J-237500D01*
G01*
X161942000Y-49894500D01*
G75*
G02*
X161704500Y-50132000I-237500J0D01*
G01*
X161129500Y-50132000D01*
G75*
G02*
X160892000Y-49894500I0J237500D01*
G01*
G37*
G36*
G01*
X159142000Y-49894500D02*
X159142000Y-49419500D01*
G75*
G02*
X159379500Y-49182000I237500J0D01*
G01*
X159954500Y-49182000D01*
G75*
G02*
X160192000Y-49419500I0J-237500D01*
G01*
X160192000Y-49894500D01*
G75*
G02*
X159954500Y-50132000I-237500J0D01*
G01*
X159379500Y-50132000D01*
G75*
G02*
X159142000Y-49894500I0J237500D01*
G01*
G37*
G04 #@! TD*
G04 #@! TO.C,D2*
G36*
G01*
X155337500Y-40990000D02*
X155812500Y-40990000D01*
G75*
G02*
X156050000Y-41227500I0J-237500D01*
G01*
X156050000Y-41802500D01*
G75*
G02*
X155812500Y-42040000I-237500J0D01*
G01*
X155337500Y-42040000D01*
G75*
G02*
X155100000Y-41802500I0J237500D01*
G01*
X155100000Y-41227500D01*
G75*
G02*
X155337500Y-40990000I237500J0D01*
G01*
G37*
G36*
G01*
X155337500Y-39240000D02*
X155812500Y-39240000D01*
G75*
G02*
X156050000Y-39477500I0J-237500D01*
G01*
X156050000Y-40052500D01*
G75*
G02*
X155812500Y-40290000I-237500J0D01*
G01*
X155337500Y-40290000D01*
G75*
G02*
X155100000Y-40052500I0J237500D01*
G01*
X155100000Y-39477500D01*
G75*
G02*
X155337500Y-39240000I237500J0D01*
G01*
G37*
G04 #@! TD*
G04 #@! TO.C,D1*
G36*
G01*
X177816500Y-65755000D02*
X178291500Y-65755000D01*
G75*
G02*
X178529000Y-65992500I0J-237500D01*
G01*
X178529000Y-66567500D01*
G75*
G02*
X178291500Y-66805000I-237500J0D01*
G01*
X177816500Y-66805000D01*
G75*
G02*
X177579000Y-66567500I0J237500D01*
G01*
X177579000Y-65992500D01*
G75*
G02*
X177816500Y-65755000I237500J0D01*
G01*
G37*
G36*
G01*
X177816500Y-64005000D02*
X178291500Y-64005000D01*
G75*
G02*
X178529000Y-64242500I0J-237500D01*
G01*
X178529000Y-64817500D01*
G75*
G02*
X178291500Y-65055000I-237500J0D01*
G01*
X177816500Y-65055000D01*
G75*
G02*
X177579000Y-64817500I0J237500D01*
G01*
X177579000Y-64242500D01*
G75*
G02*
X177816500Y-64005000I237500J0D01*
G01*
G37*
G04 #@! TD*
G04 #@! TO.C,C6*
G36*
G01*
X169235000Y-66785500D02*
X169235000Y-66310500D01*
G75*
G02*
X169472500Y-66073000I237500J0D01*
G01*
X170072500Y-66073000D01*
G75*
G02*
X170310000Y-66310500I0J-237500D01*
G01*
X170310000Y-66785500D01*
G75*
G02*
X170072500Y-67023000I-237500J0D01*
G01*
X169472500Y-67023000D01*
G75*
G02*
X169235000Y-66785500I0J237500D01*
G01*
G37*
G36*
G01*
X167510000Y-66785500D02*
X167510000Y-66310500D01*
G75*
G02*
X167747500Y-66073000I237500J0D01*
G01*
X168347500Y-66073000D01*
G75*
G02*
X168585000Y-66310500I0J-237500D01*
G01*
X168585000Y-66785500D01*
G75*
G02*
X168347500Y-67023000I-237500J0D01*
G01*
X167747500Y-67023000D01*
G75*
G02*
X167510000Y-66785500I0J237500D01*
G01*
G37*
G04 #@! TD*
G04 #@! TO.C,C5*
G36*
G01*
X175302000Y-52771000D02*
X174202000Y-52771000D01*
G75*
G02*
X173952000Y-52521000I0J250000D01*
G01*
X173952000Y-49521000D01*
G75*
G02*
X174202000Y-49271000I250000J0D01*
G01*
X175302000Y-49271000D01*
G75*
G02*
X175552000Y-49521000I0J-250000D01*
G01*
X175552000Y-52521000D01*
G75*
G02*
X175302000Y-52771000I-250000J0D01*
G01*
G37*
G36*
G01*
X175302000Y-58171000D02*
X174202000Y-58171000D01*
G75*
G02*
X173952000Y-57921000I0J250000D01*
G01*
X173952000Y-54921000D01*
G75*
G02*
X174202000Y-54671000I250000J0D01*
G01*
X175302000Y-54671000D01*
G75*
G02*
X175552000Y-54921000I0J-250000D01*
G01*
X175552000Y-57921000D01*
G75*
G02*
X175302000Y-58171000I-250000J0D01*
G01*
G37*
G04 #@! TD*
G04 #@! TO.C,C4*
G36*
G01*
X178633000Y-70595500D02*
X178633000Y-70120500D01*
G75*
G02*
X178870500Y-69883000I237500J0D01*
G01*
X179470500Y-69883000D01*
G75*
G02*
X179708000Y-70120500I0J-237500D01*
G01*
X179708000Y-70595500D01*
G75*
G02*
X179470500Y-70833000I-237500J0D01*
G01*
X178870500Y-70833000D01*
G75*
G02*
X178633000Y-70595500I0J237500D01*
G01*
G37*
G36*
G01*
X176908000Y-70595500D02*
X176908000Y-70120500D01*
G75*
G02*
X177145500Y-69883000I237500J0D01*
G01*
X177745500Y-69883000D01*
G75*
G02*
X177983000Y-70120500I0J-237500D01*
G01*
X177983000Y-70595500D01*
G75*
G02*
X177745500Y-70833000I-237500J0D01*
G01*
X177145500Y-70833000D01*
G75*
G02*
X176908000Y-70595500I0J237500D01*
G01*
G37*
G04 #@! TD*
G04 #@! TO.C,C3*
G36*
G01*
X145598000Y-48657500D02*
X145598000Y-49132500D01*
G75*
G02*
X145360500Y-49370000I-237500J0D01*
G01*
X144760500Y-49370000D01*
G75*
G02*
X144523000Y-49132500I0J237500D01*
G01*
X144523000Y-48657500D01*
G75*
G02*
X144760500Y-48420000I237500J0D01*
G01*
X145360500Y-48420000D01*
G75*
G02*
X145598000Y-48657500I0J-237500D01*
G01*
G37*
G36*
G01*
X147323000Y-48657500D02*
X147323000Y-49132500D01*
G75*
G02*
X147085500Y-49370000I-237500J0D01*
G01*
X146485500Y-49370000D01*
G75*
G02*
X146248000Y-49132500I0J237500D01*
G01*
X146248000Y-48657500D01*
G75*
G02*
X146485500Y-48420000I237500J0D01*
G01*
X147085500Y-48420000D01*
G75*
G02*
X147323000Y-48657500I0J-237500D01*
G01*
G37*
G04 #@! TD*
G04 #@! TO.C,C2*
G36*
G01*
X168672500Y-55951000D02*
X169147500Y-55951000D01*
G75*
G02*
X169385000Y-56188500I0J-237500D01*
G01*
X169385000Y-56788500D01*
G75*
G02*
X169147500Y-57026000I-237500J0D01*
G01*
X168672500Y-57026000D01*
G75*
G02*
X168435000Y-56788500I0J237500D01*
G01*
X168435000Y-56188500D01*
G75*
G02*
X168672500Y-55951000I237500J0D01*
G01*
G37*
G36*
G01*
X168672500Y-54226000D02*
X169147500Y-54226000D01*
G75*
G02*
X169385000Y-54463500I0J-237500D01*
G01*
X169385000Y-55063500D01*
G75*
G02*
X169147500Y-55301000I-237500J0D01*
G01*
X168672500Y-55301000D01*
G75*
G02*
X168435000Y-55063500I0J237500D01*
G01*
X168435000Y-54463500D01*
G75*
G02*
X168672500Y-54226000I237500J0D01*
G01*
G37*
G04 #@! TD*
G04 #@! TO.C,C1*
G36*
G01*
X169147500Y-51618000D02*
X168672500Y-51618000D01*
G75*
G02*
X168435000Y-51380500I0J237500D01*
G01*
X168435000Y-50780500D01*
G75*
G02*
X168672500Y-50543000I237500J0D01*
G01*
X169147500Y-50543000D01*
G75*
G02*
X169385000Y-50780500I0J-237500D01*
G01*
X169385000Y-51380500D01*
G75*
G02*
X169147500Y-51618000I-237500J0D01*
G01*
G37*
G36*
G01*
X169147500Y-53343000D02*
X168672500Y-53343000D01*
G75*
G02*
X168435000Y-53105500I0J237500D01*
G01*
X168435000Y-52505500D01*
G75*
G02*
X168672500Y-52268000I237500J0D01*
G01*
X169147500Y-52268000D01*
G75*
G02*
X169385000Y-52505500I0J-237500D01*
G01*
X169385000Y-53105500D01*
G75*
G02*
X169147500Y-53343000I-237500J0D01*
G01*
G37*
G04 #@! TD*
M02*
