G04 #@! TF.GenerationSoftware,KiCad,Pcbnew,(5.1.7)-1*
G04 #@! TF.CreationDate,2020-12-21T12:07:40-05:00*
G04 #@! TF.ProjectId,Fan Controller v3.0,46616e20-436f-46e7-9472-6f6c6c657220,A*
G04 #@! TF.SameCoordinates,Original*
G04 #@! TF.FileFunction,Soldermask,Top*
G04 #@! TF.FilePolarity,Negative*
%FSLAX46Y46*%
G04 Gerber Fmt 4.6, Leading zero omitted, Abs format (unit mm)*
G04 Created by KiCad (PCBNEW (5.1.7)-1) date 2020-12-21 12:07:40*
%MOMM*%
%LPD*%
G01*
G04 APERTURE LIST*
%ADD10C,7.000000*%
%ADD11R,1.450000X0.450000*%
%ADD12R,1.500000X0.400000*%
%ADD13R,1.060000X0.650000*%
%ADD14R,1.220000X0.650000*%
%ADD15R,1.500000X1.050000*%
%ADD16O,1.500000X1.050000*%
%ADD17R,1.300000X1.550000*%
%ADD18R,1.800000X1.800000*%
%ADD19C,1.800000*%
%ADD20O,4.000000X4.000000*%
%ADD21R,1.900000X0.800000*%
%ADD22R,0.800000X1.900000*%
%ADD23O,2.500000X2.500000*%
%ADD24R,2.500000X2.500000*%
%ADD25O,1.700000X1.700000*%
%ADD26R,1.700000X1.700000*%
%ADD27C,2.700000*%
G04 APERTURE END LIST*
D10*
G04 #@! TO.C,REF\u002A\u002A*
X144399000Y-43561000D03*
G04 #@! TD*
G04 #@! TO.C,REF\u002A\u002A*
X199136000Y-73533000D03*
G04 #@! TD*
G04 #@! TO.C,REF\u002A\u002A*
X199136000Y-43561000D03*
G04 #@! TD*
G04 #@! TO.C,REF\u002A\u002A*
X144399000Y-73533000D03*
G04 #@! TD*
D11*
G04 #@! TO.C,U5*
X169205000Y-62525000D03*
X169205000Y-63175000D03*
X169205000Y-63825000D03*
X169205000Y-64475000D03*
X164805000Y-64475000D03*
X164805000Y-63825000D03*
X164805000Y-63175000D03*
X164805000Y-62525000D03*
G04 #@! TD*
D12*
G04 #@! TO.C,U4*
X175193000Y-60818000D03*
X175193000Y-62118000D03*
X172533000Y-62118000D03*
X172533000Y-61468000D03*
X172533000Y-60818000D03*
G04 #@! TD*
D13*
G04 #@! TO.C,U3*
X179408000Y-73533000D03*
X179408000Y-72583000D03*
X179408000Y-74483000D03*
X177208000Y-74483000D03*
X177208000Y-73533000D03*
X177208000Y-72583000D03*
G04 #@! TD*
D14*
G04 #@! TO.C,U2*
X147741000Y-51120000D03*
X147741000Y-52070000D03*
X147741000Y-53020000D03*
X145121000Y-53020000D03*
X145121000Y-52070000D03*
X145121000Y-51120000D03*
G04 #@! TD*
D15*
G04 #@! TO.C,U1*
X165735000Y-54991000D03*
D16*
X165735000Y-52451000D03*
X165735000Y-53721000D03*
G04 #@! TD*
D17*
G04 #@! TO.C,SW1*
X169327000Y-77005000D03*
X173827000Y-77005000D03*
X173827000Y-69045000D03*
X169327000Y-69045000D03*
G04 #@! TD*
D18*
G04 #@! TO.C,RV1*
X159766000Y-64262000D03*
D19*
X157266000Y-64262000D03*
X154766000Y-64262000D03*
D20*
X162016000Y-71762000D03*
X152516000Y-71762000D03*
G04 #@! TD*
G04 #@! TO.C,R15*
G36*
G01*
X163972500Y-67628000D02*
X164447500Y-67628000D01*
G75*
G02*
X164685000Y-67865500I0J-237500D01*
G01*
X164685000Y-68440500D01*
G75*
G02*
X164447500Y-68678000I-237500J0D01*
G01*
X163972500Y-68678000D01*
G75*
G02*
X163735000Y-68440500I0J237500D01*
G01*
X163735000Y-67865500D01*
G75*
G02*
X163972500Y-67628000I237500J0D01*
G01*
G37*
G36*
G01*
X163972500Y-65878000D02*
X164447500Y-65878000D01*
G75*
G02*
X164685000Y-66115500I0J-237500D01*
G01*
X164685000Y-66690500D01*
G75*
G02*
X164447500Y-66928000I-237500J0D01*
G01*
X163972500Y-66928000D01*
G75*
G02*
X163735000Y-66690500I0J237500D01*
G01*
X163735000Y-66115500D01*
G75*
G02*
X163972500Y-65878000I237500J0D01*
G01*
G37*
G04 #@! TD*
G04 #@! TO.C,R14*
G36*
G01*
X165878500Y-67634600D02*
X166353500Y-67634600D01*
G75*
G02*
X166591000Y-67872100I0J-237500D01*
G01*
X166591000Y-68447100D01*
G75*
G02*
X166353500Y-68684600I-237500J0D01*
G01*
X165878500Y-68684600D01*
G75*
G02*
X165641000Y-68447100I0J237500D01*
G01*
X165641000Y-67872100D01*
G75*
G02*
X165878500Y-67634600I237500J0D01*
G01*
G37*
G36*
G01*
X165878500Y-65884600D02*
X166353500Y-65884600D01*
G75*
G02*
X166591000Y-66122100I0J-237500D01*
G01*
X166591000Y-66697100D01*
G75*
G02*
X166353500Y-66934600I-237500J0D01*
G01*
X165878500Y-66934600D01*
G75*
G02*
X165641000Y-66697100I0J237500D01*
G01*
X165641000Y-66122100D01*
G75*
G02*
X165878500Y-65884600I237500J0D01*
G01*
G37*
G04 #@! TD*
G04 #@! TO.C,R13*
G36*
G01*
X168672500Y-59786000D02*
X169147500Y-59786000D01*
G75*
G02*
X169385000Y-60023500I0J-237500D01*
G01*
X169385000Y-60598500D01*
G75*
G02*
X169147500Y-60836000I-237500J0D01*
G01*
X168672500Y-60836000D01*
G75*
G02*
X168435000Y-60598500I0J237500D01*
G01*
X168435000Y-60023500D01*
G75*
G02*
X168672500Y-59786000I237500J0D01*
G01*
G37*
G36*
G01*
X168672500Y-58036000D02*
X169147500Y-58036000D01*
G75*
G02*
X169385000Y-58273500I0J-237500D01*
G01*
X169385000Y-58848500D01*
G75*
G02*
X169147500Y-59086000I-237500J0D01*
G01*
X168672500Y-59086000D01*
G75*
G02*
X168435000Y-58848500I0J237500D01*
G01*
X168435000Y-58273500D01*
G75*
G02*
X168672500Y-58036000I237500J0D01*
G01*
G37*
G04 #@! TD*
G04 #@! TO.C,R12*
G36*
G01*
X157369500Y-40990000D02*
X157844500Y-40990000D01*
G75*
G02*
X158082000Y-41227500I0J-237500D01*
G01*
X158082000Y-41802500D01*
G75*
G02*
X157844500Y-42040000I-237500J0D01*
G01*
X157369500Y-42040000D01*
G75*
G02*
X157132000Y-41802500I0J237500D01*
G01*
X157132000Y-41227500D01*
G75*
G02*
X157369500Y-40990000I237500J0D01*
G01*
G37*
G36*
G01*
X157369500Y-39240000D02*
X157844500Y-39240000D01*
G75*
G02*
X158082000Y-39477500I0J-237500D01*
G01*
X158082000Y-40052500D01*
G75*
G02*
X157844500Y-40290000I-237500J0D01*
G01*
X157369500Y-40290000D01*
G75*
G02*
X157132000Y-40052500I0J237500D01*
G01*
X157132000Y-39477500D01*
G75*
G02*
X157369500Y-39240000I237500J0D01*
G01*
G37*
G04 #@! TD*
G04 #@! TO.C,R11*
G36*
G01*
X178291500Y-61118000D02*
X177816500Y-61118000D01*
G75*
G02*
X177579000Y-60880500I0J237500D01*
G01*
X177579000Y-60305500D01*
G75*
G02*
X177816500Y-60068000I237500J0D01*
G01*
X178291500Y-60068000D01*
G75*
G02*
X178529000Y-60305500I0J-237500D01*
G01*
X178529000Y-60880500D01*
G75*
G02*
X178291500Y-61118000I-237500J0D01*
G01*
G37*
G36*
G01*
X178291500Y-62868000D02*
X177816500Y-62868000D01*
G75*
G02*
X177579000Y-62630500I0J237500D01*
G01*
X177579000Y-62055500D01*
G75*
G02*
X177816500Y-61818000I237500J0D01*
G01*
X178291500Y-61818000D01*
G75*
G02*
X178529000Y-62055500I0J-237500D01*
G01*
X178529000Y-62630500D01*
G75*
G02*
X178291500Y-62868000I-237500J0D01*
G01*
G37*
G04 #@! TD*
G04 #@! TO.C,R10*
G36*
G01*
X187294000Y-77326500D02*
X187294000Y-76851500D01*
G75*
G02*
X187531500Y-76614000I237500J0D01*
G01*
X188106500Y-76614000D01*
G75*
G02*
X188344000Y-76851500I0J-237500D01*
G01*
X188344000Y-77326500D01*
G75*
G02*
X188106500Y-77564000I-237500J0D01*
G01*
X187531500Y-77564000D01*
G75*
G02*
X187294000Y-77326500I0J237500D01*
G01*
G37*
G36*
G01*
X185544000Y-77326500D02*
X185544000Y-76851500D01*
G75*
G02*
X185781500Y-76614000I237500J0D01*
G01*
X186356500Y-76614000D01*
G75*
G02*
X186594000Y-76851500I0J-237500D01*
G01*
X186594000Y-77326500D01*
G75*
G02*
X186356500Y-77564000I-237500J0D01*
G01*
X185781500Y-77564000D01*
G75*
G02*
X185544000Y-77326500I0J237500D01*
G01*
G37*
G04 #@! TD*
G04 #@! TO.C,R9*
G36*
G01*
X190850000Y-77326500D02*
X190850000Y-76851500D01*
G75*
G02*
X191087500Y-76614000I237500J0D01*
G01*
X191662500Y-76614000D01*
G75*
G02*
X191900000Y-76851500I0J-237500D01*
G01*
X191900000Y-77326500D01*
G75*
G02*
X191662500Y-77564000I-237500J0D01*
G01*
X191087500Y-77564000D01*
G75*
G02*
X190850000Y-77326500I0J237500D01*
G01*
G37*
G36*
G01*
X189100000Y-77326500D02*
X189100000Y-76851500D01*
G75*
G02*
X189337500Y-76614000I237500J0D01*
G01*
X189912500Y-76614000D01*
G75*
G02*
X190150000Y-76851500I0J-237500D01*
G01*
X190150000Y-77326500D01*
G75*
G02*
X189912500Y-77564000I-237500J0D01*
G01*
X189337500Y-77564000D01*
G75*
G02*
X189100000Y-77326500I0J237500D01*
G01*
G37*
G04 #@! TD*
G04 #@! TO.C,R8*
G36*
G01*
X193706000Y-76851500D02*
X193706000Y-77326500D01*
G75*
G02*
X193468500Y-77564000I-237500J0D01*
G01*
X192893500Y-77564000D01*
G75*
G02*
X192656000Y-77326500I0J237500D01*
G01*
X192656000Y-76851500D01*
G75*
G02*
X192893500Y-76614000I237500J0D01*
G01*
X193468500Y-76614000D01*
G75*
G02*
X193706000Y-76851500I0J-237500D01*
G01*
G37*
G36*
G01*
X195456000Y-76851500D02*
X195456000Y-77326500D01*
G75*
G02*
X195218500Y-77564000I-237500J0D01*
G01*
X194643500Y-77564000D01*
G75*
G02*
X194406000Y-77326500I0J237500D01*
G01*
X194406000Y-76851500D01*
G75*
G02*
X194643500Y-76614000I237500J0D01*
G01*
X195218500Y-76614000D01*
G75*
G02*
X195456000Y-76851500I0J-237500D01*
G01*
G37*
G04 #@! TD*
G04 #@! TO.C,R7*
G36*
G01*
X177958000Y-76470500D02*
X177958000Y-76945500D01*
G75*
G02*
X177720500Y-77183000I-237500J0D01*
G01*
X177145500Y-77183000D01*
G75*
G02*
X176908000Y-76945500I0J237500D01*
G01*
X176908000Y-76470500D01*
G75*
G02*
X177145500Y-76233000I237500J0D01*
G01*
X177720500Y-76233000D01*
G75*
G02*
X177958000Y-76470500I0J-237500D01*
G01*
G37*
G36*
G01*
X179708000Y-76470500D02*
X179708000Y-76945500D01*
G75*
G02*
X179470500Y-77183000I-237500J0D01*
G01*
X178895500Y-77183000D01*
G75*
G02*
X178658000Y-76945500I0J237500D01*
G01*
X178658000Y-76470500D01*
G75*
G02*
X178895500Y-76233000I237500J0D01*
G01*
X179470500Y-76233000D01*
G75*
G02*
X179708000Y-76470500I0J-237500D01*
G01*
G37*
G04 #@! TD*
G04 #@! TO.C,R6*
G36*
G01*
X143112500Y-51720000D02*
X142637500Y-51720000D01*
G75*
G02*
X142400000Y-51482500I0J237500D01*
G01*
X142400000Y-50907500D01*
G75*
G02*
X142637500Y-50670000I237500J0D01*
G01*
X143112500Y-50670000D01*
G75*
G02*
X143350000Y-50907500I0J-237500D01*
G01*
X143350000Y-51482500D01*
G75*
G02*
X143112500Y-51720000I-237500J0D01*
G01*
G37*
G36*
G01*
X143112500Y-53470000D02*
X142637500Y-53470000D01*
G75*
G02*
X142400000Y-53232500I0J237500D01*
G01*
X142400000Y-52657500D01*
G75*
G02*
X142637500Y-52420000I237500J0D01*
G01*
X143112500Y-52420000D01*
G75*
G02*
X143350000Y-52657500I0J-237500D01*
G01*
X143350000Y-53232500D01*
G75*
G02*
X143112500Y-53470000I-237500J0D01*
G01*
G37*
G04 #@! TD*
G04 #@! TO.C,R5*
G36*
G01*
X152035500Y-54325000D02*
X152510500Y-54325000D01*
G75*
G02*
X152748000Y-54562500I0J-237500D01*
G01*
X152748000Y-55137500D01*
G75*
G02*
X152510500Y-55375000I-237500J0D01*
G01*
X152035500Y-55375000D01*
G75*
G02*
X151798000Y-55137500I0J237500D01*
G01*
X151798000Y-54562500D01*
G75*
G02*
X152035500Y-54325000I237500J0D01*
G01*
G37*
G36*
G01*
X152035500Y-52575000D02*
X152510500Y-52575000D01*
G75*
G02*
X152748000Y-52812500I0J-237500D01*
G01*
X152748000Y-53387500D01*
G75*
G02*
X152510500Y-53625000I-237500J0D01*
G01*
X152035500Y-53625000D01*
G75*
G02*
X151798000Y-53387500I0J237500D01*
G01*
X151798000Y-52812500D01*
G75*
G02*
X152035500Y-52575000I237500J0D01*
G01*
G37*
G04 #@! TD*
G04 #@! TO.C,R4*
G36*
G01*
X152510500Y-58324000D02*
X152035500Y-58324000D01*
G75*
G02*
X151798000Y-58086500I0J237500D01*
G01*
X151798000Y-57511500D01*
G75*
G02*
X152035500Y-57274000I237500J0D01*
G01*
X152510500Y-57274000D01*
G75*
G02*
X152748000Y-57511500I0J-237500D01*
G01*
X152748000Y-58086500D01*
G75*
G02*
X152510500Y-58324000I-237500J0D01*
G01*
G37*
G36*
G01*
X152510500Y-60074000D02*
X152035500Y-60074000D01*
G75*
G02*
X151798000Y-59836500I0J237500D01*
G01*
X151798000Y-59261500D01*
G75*
G02*
X152035500Y-59024000I237500J0D01*
G01*
X152510500Y-59024000D01*
G75*
G02*
X152748000Y-59261500I0J-237500D01*
G01*
X152748000Y-59836500D01*
G75*
G02*
X152510500Y-60074000I-237500J0D01*
G01*
G37*
G04 #@! TD*
G04 #@! TO.C,R3*
G36*
G01*
X149750000Y-48657500D02*
X149750000Y-49132500D01*
G75*
G02*
X149512500Y-49370000I-237500J0D01*
G01*
X148937500Y-49370000D01*
G75*
G02*
X148700000Y-49132500I0J237500D01*
G01*
X148700000Y-48657500D01*
G75*
G02*
X148937500Y-48420000I237500J0D01*
G01*
X149512500Y-48420000D01*
G75*
G02*
X149750000Y-48657500I0J-237500D01*
G01*
G37*
G36*
G01*
X151500000Y-48657500D02*
X151500000Y-49132500D01*
G75*
G02*
X151262500Y-49370000I-237500J0D01*
G01*
X150687500Y-49370000D01*
G75*
G02*
X150450000Y-49132500I0J237500D01*
G01*
X150450000Y-48657500D01*
G75*
G02*
X150687500Y-48420000I237500J0D01*
G01*
X151262500Y-48420000D01*
G75*
G02*
X151500000Y-48657500I0J-237500D01*
G01*
G37*
G04 #@! TD*
G04 #@! TO.C,R2*
G36*
G01*
X149876500Y-52547000D02*
X150351500Y-52547000D01*
G75*
G02*
X150589000Y-52784500I0J-237500D01*
G01*
X150589000Y-53359500D01*
G75*
G02*
X150351500Y-53597000I-237500J0D01*
G01*
X149876500Y-53597000D01*
G75*
G02*
X149639000Y-53359500I0J237500D01*
G01*
X149639000Y-52784500D01*
G75*
G02*
X149876500Y-52547000I237500J0D01*
G01*
G37*
G36*
G01*
X149876500Y-50797000D02*
X150351500Y-50797000D01*
G75*
G02*
X150589000Y-51034500I0J-237500D01*
G01*
X150589000Y-51609500D01*
G75*
G02*
X150351500Y-51847000I-237500J0D01*
G01*
X149876500Y-51847000D01*
G75*
G02*
X149639000Y-51609500I0J237500D01*
G01*
X149639000Y-51034500D01*
G75*
G02*
X149876500Y-50797000I237500J0D01*
G01*
G37*
G04 #@! TD*
G04 #@! TO.C,R1*
G36*
G01*
X152035500Y-62975000D02*
X152510500Y-62975000D01*
G75*
G02*
X152748000Y-63212500I0J-237500D01*
G01*
X152748000Y-63787500D01*
G75*
G02*
X152510500Y-64025000I-237500J0D01*
G01*
X152035500Y-64025000D01*
G75*
G02*
X151798000Y-63787500I0J237500D01*
G01*
X151798000Y-63212500D01*
G75*
G02*
X152035500Y-62975000I237500J0D01*
G01*
G37*
G36*
G01*
X152035500Y-61225000D02*
X152510500Y-61225000D01*
G75*
G02*
X152748000Y-61462500I0J-237500D01*
G01*
X152748000Y-62037500D01*
G75*
G02*
X152510500Y-62275000I-237500J0D01*
G01*
X152035500Y-62275000D01*
G75*
G02*
X151798000Y-62037500I0J237500D01*
G01*
X151798000Y-61462500D01*
G75*
G02*
X152035500Y-61225000I237500J0D01*
G01*
G37*
G04 #@! TD*
D21*
G04 #@! TO.C,Q2*
X175363000Y-65405000D03*
X172363000Y-66355000D03*
X172363000Y-64455000D03*
G04 #@! TD*
D22*
G04 #@! TO.C,Q1*
X160528000Y-52221000D03*
X161478000Y-55221000D03*
X159578000Y-55221000D03*
G04 #@! TD*
D23*
G04 #@! TO.C,K1*
X184245000Y-52674000D03*
X196445000Y-52674000D03*
X196445000Y-64674000D03*
X184245000Y-64674000D03*
D24*
X182245000Y-58674000D03*
G04 #@! TD*
D25*
G04 #@! TO.C,JP4*
X183134000Y-71501000D03*
X183134000Y-74041000D03*
D26*
X183134000Y-76581000D03*
G04 #@! TD*
D25*
G04 #@! TO.C,JP3*
X187960000Y-74041000D03*
D26*
X187960000Y-71501000D03*
G04 #@! TD*
D25*
G04 #@! TO.C,JP2*
X190500000Y-74041000D03*
D26*
X190500000Y-71501000D03*
G04 #@! TD*
D25*
G04 #@! TO.C,JP1*
X193040000Y-74041000D03*
D26*
X193040000Y-71501000D03*
G04 #@! TD*
D27*
G04 #@! TO.C,J3*
X191631000Y-43180000D03*
X187671000Y-43180000D03*
X183711000Y-43180000D03*
X179751000Y-43180000D03*
X175791000Y-43180000D03*
G36*
G01*
X170481000Y-44279999D02*
X170481000Y-42080001D01*
G75*
G02*
X170731001Y-41830000I250001J0D01*
G01*
X172930999Y-41830000D01*
G75*
G02*
X173181000Y-42080001I0J-250001D01*
G01*
X173181000Y-44279999D01*
G75*
G02*
X172930999Y-44530000I-250001J0D01*
G01*
X170731001Y-44530000D01*
G75*
G02*
X170481000Y-44279999I0J250001D01*
G01*
G37*
G04 #@! TD*
G04 #@! TO.C,J2*
X145542000Y-57104000D03*
X145542000Y-61064000D03*
G36*
G01*
X146641999Y-66374000D02*
X144442001Y-66374000D01*
G75*
G02*
X144192000Y-66123999I0J250001D01*
G01*
X144192000Y-63924001D01*
G75*
G02*
X144442001Y-63674000I250001J0D01*
G01*
X146641999Y-63674000D01*
G75*
G02*
X146892000Y-63924001I0J-250001D01*
G01*
X146892000Y-66123999D01*
G75*
G02*
X146641999Y-66374000I-250001J0D01*
G01*
G37*
G04 #@! TD*
G04 #@! TO.C,J1*
X165504000Y-43180000D03*
G36*
G01*
X160194000Y-44279999D02*
X160194000Y-42080001D01*
G75*
G02*
X160444001Y-41830000I250001J0D01*
G01*
X162643999Y-41830000D01*
G75*
G02*
X162894000Y-42080001I0J-250001D01*
G01*
X162894000Y-44279999D01*
G75*
G02*
X162643999Y-44530000I-250001J0D01*
G01*
X160444001Y-44530000D01*
G75*
G02*
X160194000Y-44279999I0J250001D01*
G01*
G37*
G04 #@! TD*
G04 #@! TO.C,F1*
G36*
G01*
X160892000Y-49894500D02*
X160892000Y-49419500D01*
G75*
G02*
X161129500Y-49182000I237500J0D01*
G01*
X161704500Y-49182000D01*
G75*
G02*
X161942000Y-49419500I0J-237500D01*
G01*
X161942000Y-49894500D01*
G75*
G02*
X161704500Y-50132000I-237500J0D01*
G01*
X161129500Y-50132000D01*
G75*
G02*
X160892000Y-49894500I0J237500D01*
G01*
G37*
G36*
G01*
X159142000Y-49894500D02*
X159142000Y-49419500D01*
G75*
G02*
X159379500Y-49182000I237500J0D01*
G01*
X159954500Y-49182000D01*
G75*
G02*
X160192000Y-49419500I0J-237500D01*
G01*
X160192000Y-49894500D01*
G75*
G02*
X159954500Y-50132000I-237500J0D01*
G01*
X159379500Y-50132000D01*
G75*
G02*
X159142000Y-49894500I0J237500D01*
G01*
G37*
G04 #@! TD*
G04 #@! TO.C,D2*
G36*
G01*
X155337500Y-40990000D02*
X155812500Y-40990000D01*
G75*
G02*
X156050000Y-41227500I0J-237500D01*
G01*
X156050000Y-41802500D01*
G75*
G02*
X155812500Y-42040000I-237500J0D01*
G01*
X155337500Y-42040000D01*
G75*
G02*
X155100000Y-41802500I0J237500D01*
G01*
X155100000Y-41227500D01*
G75*
G02*
X155337500Y-40990000I237500J0D01*
G01*
G37*
G36*
G01*
X155337500Y-39240000D02*
X155812500Y-39240000D01*
G75*
G02*
X156050000Y-39477500I0J-237500D01*
G01*
X156050000Y-40052500D01*
G75*
G02*
X155812500Y-40290000I-237500J0D01*
G01*
X155337500Y-40290000D01*
G75*
G02*
X155100000Y-40052500I0J237500D01*
G01*
X155100000Y-39477500D01*
G75*
G02*
X155337500Y-39240000I237500J0D01*
G01*
G37*
G04 #@! TD*
G04 #@! TO.C,D1*
G36*
G01*
X177816500Y-65755000D02*
X178291500Y-65755000D01*
G75*
G02*
X178529000Y-65992500I0J-237500D01*
G01*
X178529000Y-66567500D01*
G75*
G02*
X178291500Y-66805000I-237500J0D01*
G01*
X177816500Y-66805000D01*
G75*
G02*
X177579000Y-66567500I0J237500D01*
G01*
X177579000Y-65992500D01*
G75*
G02*
X177816500Y-65755000I237500J0D01*
G01*
G37*
G36*
G01*
X177816500Y-64005000D02*
X178291500Y-64005000D01*
G75*
G02*
X178529000Y-64242500I0J-237500D01*
G01*
X178529000Y-64817500D01*
G75*
G02*
X178291500Y-65055000I-237500J0D01*
G01*
X177816500Y-65055000D01*
G75*
G02*
X177579000Y-64817500I0J237500D01*
G01*
X177579000Y-64242500D01*
G75*
G02*
X177816500Y-64005000I237500J0D01*
G01*
G37*
G04 #@! TD*
G04 #@! TO.C,C6*
G36*
G01*
X169235000Y-66785500D02*
X169235000Y-66310500D01*
G75*
G02*
X169472500Y-66073000I237500J0D01*
G01*
X170072500Y-66073000D01*
G75*
G02*
X170310000Y-66310500I0J-237500D01*
G01*
X170310000Y-66785500D01*
G75*
G02*
X170072500Y-67023000I-237500J0D01*
G01*
X169472500Y-67023000D01*
G75*
G02*
X169235000Y-66785500I0J237500D01*
G01*
G37*
G36*
G01*
X167510000Y-66785500D02*
X167510000Y-66310500D01*
G75*
G02*
X167747500Y-66073000I237500J0D01*
G01*
X168347500Y-66073000D01*
G75*
G02*
X168585000Y-66310500I0J-237500D01*
G01*
X168585000Y-66785500D01*
G75*
G02*
X168347500Y-67023000I-237500J0D01*
G01*
X167747500Y-67023000D01*
G75*
G02*
X167510000Y-66785500I0J237500D01*
G01*
G37*
G04 #@! TD*
G04 #@! TO.C,C5*
G36*
G01*
X175302000Y-52771000D02*
X174202000Y-52771000D01*
G75*
G02*
X173952000Y-52521000I0J250000D01*
G01*
X173952000Y-49521000D01*
G75*
G02*
X174202000Y-49271000I250000J0D01*
G01*
X175302000Y-49271000D01*
G75*
G02*
X175552000Y-49521000I0J-250000D01*
G01*
X175552000Y-52521000D01*
G75*
G02*
X175302000Y-52771000I-250000J0D01*
G01*
G37*
G36*
G01*
X175302000Y-58171000D02*
X174202000Y-58171000D01*
G75*
G02*
X173952000Y-57921000I0J250000D01*
G01*
X173952000Y-54921000D01*
G75*
G02*
X174202000Y-54671000I250000J0D01*
G01*
X175302000Y-54671000D01*
G75*
G02*
X175552000Y-54921000I0J-250000D01*
G01*
X175552000Y-57921000D01*
G75*
G02*
X175302000Y-58171000I-250000J0D01*
G01*
G37*
G04 #@! TD*
G04 #@! TO.C,C4*
G36*
G01*
X178633000Y-70595500D02*
X178633000Y-70120500D01*
G75*
G02*
X178870500Y-69883000I237500J0D01*
G01*
X179470500Y-69883000D01*
G75*
G02*
X179708000Y-70120500I0J-237500D01*
G01*
X179708000Y-70595500D01*
G75*
G02*
X179470500Y-70833000I-237500J0D01*
G01*
X178870500Y-70833000D01*
G75*
G02*
X178633000Y-70595500I0J237500D01*
G01*
G37*
G36*
G01*
X176908000Y-70595500D02*
X176908000Y-70120500D01*
G75*
G02*
X177145500Y-69883000I237500J0D01*
G01*
X177745500Y-69883000D01*
G75*
G02*
X177983000Y-70120500I0J-237500D01*
G01*
X177983000Y-70595500D01*
G75*
G02*
X177745500Y-70833000I-237500J0D01*
G01*
X177145500Y-70833000D01*
G75*
G02*
X176908000Y-70595500I0J237500D01*
G01*
G37*
G04 #@! TD*
G04 #@! TO.C,C3*
G36*
G01*
X145598000Y-48657500D02*
X145598000Y-49132500D01*
G75*
G02*
X145360500Y-49370000I-237500J0D01*
G01*
X144760500Y-49370000D01*
G75*
G02*
X144523000Y-49132500I0J237500D01*
G01*
X144523000Y-48657500D01*
G75*
G02*
X144760500Y-48420000I237500J0D01*
G01*
X145360500Y-48420000D01*
G75*
G02*
X145598000Y-48657500I0J-237500D01*
G01*
G37*
G36*
G01*
X147323000Y-48657500D02*
X147323000Y-49132500D01*
G75*
G02*
X147085500Y-49370000I-237500J0D01*
G01*
X146485500Y-49370000D01*
G75*
G02*
X146248000Y-49132500I0J237500D01*
G01*
X146248000Y-48657500D01*
G75*
G02*
X146485500Y-48420000I237500J0D01*
G01*
X147085500Y-48420000D01*
G75*
G02*
X147323000Y-48657500I0J-237500D01*
G01*
G37*
G04 #@! TD*
G04 #@! TO.C,C2*
G36*
G01*
X168672500Y-55951000D02*
X169147500Y-55951000D01*
G75*
G02*
X169385000Y-56188500I0J-237500D01*
G01*
X169385000Y-56788500D01*
G75*
G02*
X169147500Y-57026000I-237500J0D01*
G01*
X168672500Y-57026000D01*
G75*
G02*
X168435000Y-56788500I0J237500D01*
G01*
X168435000Y-56188500D01*
G75*
G02*
X168672500Y-55951000I237500J0D01*
G01*
G37*
G36*
G01*
X168672500Y-54226000D02*
X169147500Y-54226000D01*
G75*
G02*
X169385000Y-54463500I0J-237500D01*
G01*
X169385000Y-55063500D01*
G75*
G02*
X169147500Y-55301000I-237500J0D01*
G01*
X168672500Y-55301000D01*
G75*
G02*
X168435000Y-55063500I0J237500D01*
G01*
X168435000Y-54463500D01*
G75*
G02*
X168672500Y-54226000I237500J0D01*
G01*
G37*
G04 #@! TD*
G04 #@! TO.C,C1*
G36*
G01*
X169147500Y-51618000D02*
X168672500Y-51618000D01*
G75*
G02*
X168435000Y-51380500I0J237500D01*
G01*
X168435000Y-50780500D01*
G75*
G02*
X168672500Y-50543000I237500J0D01*
G01*
X169147500Y-50543000D01*
G75*
G02*
X169385000Y-50780500I0J-237500D01*
G01*
X169385000Y-51380500D01*
G75*
G02*
X169147500Y-51618000I-237500J0D01*
G01*
G37*
G36*
G01*
X169147500Y-53343000D02*
X168672500Y-53343000D01*
G75*
G02*
X168435000Y-53105500I0J237500D01*
G01*
X168435000Y-52505500D01*
G75*
G02*
X168672500Y-52268000I237500J0D01*
G01*
X169147500Y-52268000D01*
G75*
G02*
X169385000Y-52505500I0J-237500D01*
G01*
X169385000Y-53105500D01*
G75*
G02*
X169147500Y-53343000I-237500J0D01*
G01*
G37*
G04 #@! TD*
M02*
